<?xml version="1.0" encoding="UTF-8" standalone="no"?>
<!-- Created with Inkscape (http://www.inkscape.org/) -->

<svg
   xmlns:dc="http://purl.org/dc/elements/1.1/"
   xmlns:cc="http://creativecommons.org/ns#"
   xmlns:rdf="http://www.w3.org/1999/02/22-rdf-syntax-ns#"
   xmlns:svg="http://www.w3.org/2000/svg"
   xmlns="http://www.w3.org/2000/svg"
   xmlns:sodipodi="http://sodipodi.sourceforge.net/DTD/sodipodi-0.dtd"
   xmlns:inkscape="http://www.inkscape.org/namespaces/inkscape"
   width="210mm"
   height="297mm"
   viewBox="0 0 744.09448819 1052.3622047"
   id="svg2"
   version="1.1"
   inkscape:version="0.91 r"
   sodipodi:docname="drawings.svg">
  <defs
     id="defs4" />
  <sodipodi:namedview
     id="base"
     pagecolor="#ffffff"
     bordercolor="#666666"
     borderopacity="1.0"
     inkscape:pageopacity="0.0"
     inkscape:pageshadow="2"
     inkscape:zoom="1.4"
     inkscape:cx="267.92723"
     inkscape:cy="856.80053"
     inkscape:document-units="px"
     inkscape:current-layer="layer1"
     showgrid="false"
     inkscape:window-width="1920"
     inkscape:window-height="1043"
     inkscape:window-x="0"
     inkscape:window-y="0"
     inkscape:window-maximized="1" />
  <metadata
     id="metadata7">
    <rdf:RDF>
      <cc:Work
         rdf:about="">
        <dc:format>image/svg+xml</dc:format>
        <dc:type
           rdf:resource="http://purl.org/dc/dcmitype/StillImage" />
        <dc:title></dc:title>
      </cc:Work>
    </rdf:RDF>
  </metadata>
  <g
     inkscape:label="Calque 1"
     inkscape:groupmode="layer"
     id="layer1">
    <path
       style="fill:#000000;fill-opacity:1;stroke:#ffffff;stroke-width:0.55553168;stroke-linecap:butt;stroke-linejoin:round;stroke-miterlimit:4;stroke-dasharray:none;stroke-dashoffset:0;stroke-opacity:1"
       d="m 161.42739,199.89533 c -11.01019,-0.001 -11.71501,0.20536 -12.99547,0.99202 -3.38336,2.07862 -3.27367,0.57715 -3.27367,45.5007 0,44.92476 -0.10923,43.42166 3.27367,45.48415 1.69204,1.03159 2.60702,1.07258 27.06564,1.07469 27.74786,0.002 27.7449,-0.009 29.59529,-3.14139 0.83045,-1.40584 0.90935,-4.89761 0.90935,-43.64892 l 0,-42.1113 -0.77944,-2.17299 -0.952,-0.75359 -1.90597,-1.02497 -26.09015,-0.1488 c -6.36035,-0.0337 -11.17718,-0.0492 -14.84725,-0.0496 z m 3.81929,2.66192 c 3.19482,-0.004 6.95003,0.007 11.30904,0.0331 l 24.86193,0.43224 1.19751,0.76764 c 0.95498,1.17973 0.74165,2.54146 0.74165,21.1702 0,18.62881 -0.0701,19.78497 -1.02508,20.96471 l -1.00856,1.25656 -25.04853,0.0992 c -17.01905,0.071 -25.41594,-0.0758 -26.20589,-0.46294 -0.63938,-0.31333 -1.41315,-1.28713 -1.7195,-2.16592 -0.76004,-2.18018 -0.74419,-37.21755 0.0165,-39.39977 0.32975,-0.9459 1.14406,-1.86758 1.98404,-2.21551 0.75782,-0.31389 5.31239,-0.46654 14.89685,-0.47948 z m 17.49263,8.34951 c -2.57591,-0.009 -5.12554,0.63 -7.20868,1.91791 -9.74804,6.02675 -7.0945,21.24649 4.10035,23.47783 8.70634,1.73533 16.30221,-4.16086 16.30221,-12.6648 0,-3.53372 -1.76431,-7.62913 -4.13342,-9.62261 -2.41113,-2.02882 -5.74858,-3.09715 -9.06046,-3.10833 z m -23.82504,0.0331 0,12.69787 0,12.69787 2.64539,0 2.64539,0 0,-12.69787 0,-12.69787 -2.64539,0 z m 23.79197,4.7617 c 3.6419,-0.0352 6.88978,2.65296 7.68817,6.96068 0.4918,2.65353 -1.20725,6.41583 -3.53821,7.83697 -2.28114,1.39077 -5.97024,1.40315 -8.21724,0.0331 -4.88571,-2.97899 -4.67055,-11.16341 0.36374,-13.85523 1.22417,-0.65456 2.48957,-0.96376 3.70354,-0.97549 z m -13.47495,41.46648 c 2.42713,0.006 4.86827,0.41923 6.41507,1.24003 2.76708,1.46831 5.6515,4.81429 6.44814,7.47322 0.91062,3.03937 0.74803,7.44263 -0.38028,9.8706 -1.22368,2.63323 -4.4484,5.76393 -7.04334,6.84495 -1.12495,0.46864 -3.5032,0.82986 -5.55532,0.82668 -8.09207,-0.0116 -13.48504,-5.18249 -13.52456,-12.9624 -0.0268,-5.28075 2.53737,-9.52019 7.29136,-12.06959 1.51799,-0.81405 3.92181,-1.22883 6.34893,-1.22349 z m 18.25319,0.33067 3.17447,0 3.191,0 -0.14881,12.83013 -0.13226,12.83014 -3.04221,0.14881 -3.04219,0.16533 0,-12.99547 z m -18.30279,5.40651 c -0.20656,0.003 -0.41437,0.0173 -0.62828,0.0331 -3.36976,0.24913 -5.56436,2.03545 -6.36547,5.19157 -0.98148,3.86673 0.487,7.26103 3.86889,8.9778 6.29284,3.19446 12.42026,-3.45649 9.53993,-10.35009 -1.06495,-2.54878 -3.31666,-3.9026 -6.41507,-3.85235 z"
       id="rect3085"
       inkscape:connector-curvature="0"
       sodipodi:nodetypes="ssssssscccccsscccscccssscssssssscccccccccssssssssssscssscccccccccssssss" />
    <text
       xml:space="preserve"
       style="font-style:normal;font-weight:normal;font-size:14.61067104px;line-height:125%;font-family:Sans;letter-spacing:0px;word-spacing:0px;fill:#000000;fill-opacity:1;stroke:none"
       x="208.20734"
       y="253.23859"
       id="text3066"
       sodipodi:linespacing="125%"
       transform="scale(1.0455968,0.9563916)"><tspan
         sodipodi:role="line"
         id="tspan3068"
         x="208.20734"
         y="253.23859">LICENCE OUVERTE</tspan></text>
    <text
       transform="scale(1.0455968,0.9563916)"
       sodipodi:linespacing="125%"
       id="text3070"
       y="273.35605"
       x="208.20734"
       style="font-style:normal;font-weight:normal;font-size:14.61067104px;line-height:125%;font-family:Sans;letter-spacing:0px;word-spacing:0px;fill:#000000;fill-opacity:1;stroke:none"
       xml:space="preserve"><tspan
         y="273.35605"
         x="208.20734"
         id="tspan3072"
         sodipodi:role="line">OPEN LICENCE</tspan></text>
    <path
       style="fill:none;stroke:#000000;stroke-width:0.52907783px;stroke-linecap:butt;stroke-linejoin:miter;stroke-opacity:1"
       d="m 248.50632,246.6909 83.64132,0"
       id="path3858"
       inkscape:connector-curvature="0" />
    <path
       style="fill:#413a42;fill-opacity:1"
       d="m 481.79092,191.25057 c -3.78587,0.0916 -5.8765,0.88643 -7.8475,2.91444 -2.13877,2.20063 -2.83084,4.35239 -2.83084,8.80306 l 0,3.57139 -4.49111,0 c -6.10904,0.0114 -8.41928,1.09698 -10.06917,4.73 -0.68034,1.49812 -0.72058,3.36053 -0.72861,41.05306 -0.009,43.20658 -0.12507,40.92817 2.20972,43.41805 0.56696,0.60462 1.72717,1.41429 2.56806,1.80361 1.45977,0.67587 3.4902,0.70473 44.91111,0.70473 41.42092,0 43.45135,-0.0289 44.91112,-0.70473 0.84089,-0.38932 1.98915,-1.19899 2.55611,-1.80361 2.3348,-2.48988 2.2189,-0.21147 2.20972,-43.41805 -0.008,-37.69253 -0.0363,-39.55494 -0.71666,-41.05306 -1.64989,-3.63302 -3.96013,-4.71857 -10.06917,-4.73 l -4.49111,0 0,-3.38028 c 0,-4.57102 -0.72746,-6.84302 -2.86667,-8.98222 -2.19928,-2.19928 -4.33808,-2.92639 -8.6,-2.92639 -4.17295,0 -6.39392,0.7332 -8.55222,2.83083 -2.20506,2.14307 -2.91445,4.3229 -2.91445,8.88667 l 0,3.57139 -11.46667,0 -11.46666,0 0,-3.38028 c 0,-4.57102 -0.72746,-6.84302 -2.86667,-8.98222 -2.19928,-2.19928 -4.33808,-2.92639 -8.6,-2.92639 -0.26784,0 -0.53594,-0.006 -0.78833,0 z m 0.84805,7.64444 c 2.54308,0 3.01735,0.0951 3.35639,0.72861 0.24121,0.45071 0.40611,4.32292 0.40611,9.91389 0,7.82779 -0.0965,9.2579 -0.60916,9.77056 -0.42924,0.42924 -1.34001,0.60917 -3.21306,0.60917 -3.99291,0 -3.82222,0.47436 -3.82222,-10.65445 0,-6.84178 0.12188,-9.58188 0.45389,-9.91389 0.27798,-0.27798 1.62933,-0.45389 3.42805,-0.45389 z m 45.86667,0 c 2.54308,0 3.01735,0.0951 3.35639,0.72861 0.24121,0.45071 0.40611,4.32292 0.40611,9.91389 0,7.82779 -0.0965,9.2579 -0.60916,9.77056 -0.42924,0.42924 -1.34001,0.60917 -3.21306,0.60917 -3.99291,0 -3.82222,0.47436 -3.82222,-10.65445 0,-6.84178 0.12188,-9.58188 0.45389,-9.91389 0.27798,-0.27798 1.62933,-0.45389 3.42805,-0.45389 z m -65.0375,30.57778 42.04444,0 42.04445,0 0,30.57778 0,30.57778 -42.04445,0 -42.04444,0 0,-30.57778 0,-30.57778 z"
       id="path3128"
       inkscape:connector-curvature="0"
       inkscape:export-filename="/home/kaore/Downloads/private.png"
       inkscape:export-xdpi="121.05"
       inkscape:export-ydpi="121.05" />
    <path
       style="fill:#41acdd;fill-opacity:1"
       d="m 488.12467,283.17368 c -0.62433,-0.30903 -0.99642,-0.68499 -1.30132,-1.31483 -0.41209,-0.85128 -0.42699,-1.2262 -0.42699,-10.74469 0,-9.65805 0.009,-9.88177 0.44642,-10.78483 0.50859,-1.05061 1.62067,-1.69553 2.937,-1.70323 l 0.78079,-0.005 0,-3.72947 c 0,-5.22403 0.48912,-7.4776 2.20521,-10.16028 4.48364,-7.00906 13.53757,-9.02027 20.31719,-4.51318 2.07603,1.38014 3.96511,3.53336 5.07771,5.78768 1.25966,2.55231 1.54938,4.21383 1.54938,8.88578 l 0,3.72947 0.78078,0.005 c 1.31633,0.008 2.42841,0.65262 2.937,1.70323 0.43716,0.90305 0.44643,1.12677 0.44643,10.78482 0,9.53301 -0.0143,9.89225 -0.42894,10.7487 -0.31142,0.64331 -0.67169,1.00358 -1.315,1.315 -0.87131,0.42179 -1.15464,0.42893 -17.0087,0.42877 -15.90644,-1.6e-4 -16.13437,-0.006 -16.99696,-0.43295 z m 25.30552,-28.76842 c -0.0674,-4.02581 -0.0949,-4.26799 -0.60902,-5.36142 -0.79793,-1.69695 -2.45866,-3.40019 -4.10615,-4.21125 -1.29849,-0.63924 -1.52118,-0.68169 -3.57533,-0.68154 -1.94363,1.5e-4 -2.32562,0.0634 -3.38835,0.56131 -1.66913,0.78199 -3.34508,2.43074 -4.16707,4.09946 l -0.67328,1.36681 -0.0706,4.22145 -0.0706,4.22144 8.36544,0 8.36544,0 -0.0706,-4.21626 z"
       id="path3126"
       inkscape:connector-curvature="0"
       inkscape:export-filename="/home/kaore/Downloads/private.png"
       inkscape:export-xdpi="121.05"
       inkscape:export-ydpi="121.05" />
    <rect
       style="fill:none;stroke:none"
       id="rect3902"
       width="185.86807"
       height="134.35028"
       x="412.46289"
       y="178.98843"
       inkscape:export-filename="/home/kaore/Downloads/private.png"
       inkscape:export-xdpi="121.05"
       inkscape:export-ydpi="121.05" />
    <path
       style="fill:none;stroke:#e6e6e6;stroke-width:3.48381305;stroke-linecap:butt;stroke-linejoin:round;stroke-miterlimit:4;stroke-dasharray:none;stroke-opacity:1"
       d="m 111.98235,426.47668 0.58821,-5.88221 20.29361,-4.41165 10.58797,0 3.82344,6.17631 20.88183,-4.70576 -3.82344,-16.17607 -3.23521,-9.70564 10.29386,0.29411 2.64699,7.64687 20.88183,1.17644 4.11754,-12.64674 18.23484,-8.5292 3.52933,-20.29361 15.29373,-4.41165 43.23421,35.58734 54.4104,19.9995 -2.94111,6.47043 -8.23508,29.41102 -25.5876,25.8817 1.47055,10.88208 10.29386,-7.05864 3.52932,11.4703 3.23522,16.17606 -6.47043,11.4703 15.88196,24.41115 -16.76429,12.94086 -14.70552,3.82343 -28.52869,-12.05852 -19.41128,12.35263 0.88234,12.94085 -25.29348,0 -27.35226,-7.35276 -29.99925,-13.52907 7.94098,-15.29373 2.94111,-36.46967 -1.76467,-18.52895 -14.99962,-13.82319 -2.05877,-12.94085 -23.52882,-9.99975 -12.64674,-0.58822 -5.5881,-6.47042 5.8822,-3.23521 -2.35288,-3.23522 z"
       id="path3010"
       inkscape:connector-curvature="0" />
    <path
       style="fill:none;stroke:#41acdd;stroke-width:3;stroke-linecap:butt;stroke-linejoin:miter;stroke-miterlimit:4;stroke-dasharray:none;stroke-opacity:1"
       d="m 241.79106,415.11382 -85.49532,36.17286 119.81808,32.39286 4.59518,63.12021 -105.88366,-33.72192 66.78529,-97.43643 34.84677,68.0173"
       id="path3803"
       inkscape:connector-curvature="0"
       sodipodi:nodetypes="ccccccc" />
    <g
       id="g3841"
       transform="matrix(0.58063551,0,0,0.58063551,-6.663891,182.98952)">
      <rect
         ry="1.5856866"
         y="447.54422"
         x="267.76431"
         height="39.285686"
         width="52.500019"
         id="rect3805"
         style="fill:#ffffff;fill-opacity:1;stroke:none" />
      <rect
         style="fill:#ffffff;fill-opacity:1;stroke:none"
         id="rect3837"
         width="6.7857332"
         height="39.285686"
         x="304.55005"
         y="428.97278"
         ry="1.5856866" />
      <rect
         ry="1.5856866"
         y="428.97278"
         x="276.6929"
         height="39.285686"
         width="6.7857332"
         id="rect3839"
         style="fill:#ffffff;fill-opacity:1;stroke:none" />
      <path
         style="fill:#000000"
         d="m 266.82495,489.36576 c -0.49922,-0.23114 -1.18307,-0.71394 -1.51967,-1.07289 -1.38613,-1.47821 -1.31729,-0.1256 -1.31184,-25.77671 0.005,-22.37749 0.0241,-23.47884 0.42802,-24.36825 0.97951,-2.15687 2.35063,-2.8009 5.97748,-2.80768 l 2.6663,-0.005 0,-2.11532 c 0,-2.64229 0.41042,-3.91862 1.68017,-5.2251 1.24816,-1.28427 2.58321,-1.73637 5.12742,-1.73637 2.53024,0 3.80026,0.43229 5.10594,1.73797 1.27002,1.27001 1.70165,2.62397 1.70165,5.33772 l 0,2.0011 6.80759,0 6.8076,0 0,-2.11532 c 0,-2.70944 0.42726,-4.009 1.73637,-5.28131 1.28135,-1.24533 2.5938,-1.68016 5.07122,-1.68016 2.53023,0 3.80025,0.43229 5.10593,1.73797 1.27002,1.27001 1.70166,2.62397 1.70166,5.33772 l 0,2.0011 2.6663,0.005 c 3.62685,0.007 4.99797,0.65081 5.97748,2.80768 0.40392,0.88941 0.42326,1.99076 0.42802,24.36825 0.005,25.65111 0.0743,24.2985 -1.31184,25.77671 -0.3366,0.35896 -1.02045,0.84175 -1.51967,1.07289 -0.86665,0.40124 -2.07208,0.42024 -26.66307,0.42024 -24.59098,0 -25.79641,-0.019 -26.66306,-0.42024 z m 11.91329,-9.21388 0,-5.10569 -5.1057,0 -5.10569,0 0,5.10569 0,5.10569 5.10569,0 5.1057,0 0,-5.10569 z m 13.61518,0 0,-5.10569 -5.673,0 -5.67299,0 0,5.10569 0,5.10569 5.67299,0 5.673,0 0,-5.10569 z m 13.61518,0 0,-5.10569 -5.67299,0 -5.673,0 0,5.10569 0,5.10569 5.673,0 5.67299,0 0,-5.10569 z m 12.48058,0 0,-5.10569 -5.10569,0 -5.1057,0 0,5.10569 0,5.10569 5.1057,0 5.10569,0 0,-5.10569 z m -39.71094,-13.04788 0,-5.67299 -5.1057,0 -5.10569,0 0,5.67299 0,5.67299 5.10569,0 5.1057,0 0,-5.67299 z m 13.61518,0 0,-5.67299 -5.673,0 -5.67299,0 0,5.67299 0,5.67299 5.67299,0 5.673,0 0,-5.67299 z m 13.61518,0 0,-5.67299 -5.67299,0 -5.673,0 0,5.67299 0,5.67299 5.673,0 5.67299,0 0,-5.67299 z m 12.48058,0 0,-5.67299 -5.10569,0 -5.1057,0 0,5.67299 0,5.67299 5.1057,0 5.10569,0 0,-5.67299 z m -39.71094,-13.04788 0,-5.1057 -5.1057,0 -5.10569,0 0,5.1057 0,5.10569 5.10569,0 5.1057,0 0,-5.10569 z m 13.61518,0 0,-5.1057 -5.673,0 -5.67299,0 0,5.1057 0,5.10569 5.67299,0 5.673,0 0,-5.10569 z m 13.61518,0 0,-5.1057 -5.67299,0 -5.673,0 0,5.1057 0,5.10569 5.673,0 5.67299,0 0,-5.10569 z m 12.48058,0 0,-5.1057 -5.10569,0 -5.1057,0 0,5.1057 0,5.10569 5.1057,0 5.10569,0 0,-5.10569 z m -36.66374,-11.13528 c 0.30465,-0.30465 0.35659,-1.16161 0.35659,-5.8837 0,-6.51172 0.0987,-6.24029 -2.2692,-6.24029 -2.36789,0 -2.26919,-0.27143 -2.26919,6.24029 0,6.51172 -0.0987,6.24029 2.26919,6.24029 1.11201,0 1.65778,-0.10175 1.91261,-0.35659 z m 27.23036,0 c 0.30465,-0.30465 0.35659,-1.16161 0.35659,-5.8837 0,-6.51172 0.0987,-6.24029 -2.26919,-6.24029 -2.3679,0 -2.2692,-0.27143 -2.2692,6.24029 0,6.51172 -0.0987,6.24029 2.2692,6.24029 1.112,0 1.65777,-0.10175 1.9126,-0.35659 z"
         id="path3793"
         inkscape:connector-curvature="0" />
    </g>
    <g
       transform="matrix(0.58063551,0,0,0.58063551,5.066718,244.86848)"
       id="g3857">
      <rect
         style="fill:#ffffff;fill-opacity:1;stroke:none"
         id="rect3859"
         width="52.500019"
         height="39.285686"
         x="267.76431"
         y="447.54422"
         ry="1.5856866" />
      <rect
         ry="1.5856866"
         y="428.97278"
         x="304.55005"
         height="39.285686"
         width="6.7857332"
         id="rect3861"
         style="fill:#ffffff;fill-opacity:1;stroke:none" />
      <rect
         style="fill:#ffffff;fill-opacity:1;stroke:none"
         id="rect3863"
         width="6.7857332"
         height="39.285686"
         x="276.6929"
         y="428.97278"
         ry="1.5856866" />
      <path
         inkscape:connector-curvature="0"
         id="path3865"
         d="m 266.82495,489.36576 c -0.49922,-0.23114 -1.18307,-0.71394 -1.51967,-1.07289 -1.38613,-1.47821 -1.31729,-0.1256 -1.31184,-25.77671 0.005,-22.37749 0.0241,-23.47884 0.42802,-24.36825 0.97951,-2.15687 2.35063,-2.8009 5.97748,-2.80768 l 2.6663,-0.005 0,-2.11532 c 0,-2.64229 0.41042,-3.91862 1.68017,-5.2251 1.24816,-1.28427 2.58321,-1.73637 5.12742,-1.73637 2.53024,0 3.80026,0.43229 5.10594,1.73797 1.27002,1.27001 1.70165,2.62397 1.70165,5.33772 l 0,2.0011 6.80759,0 6.8076,0 0,-2.11532 c 0,-2.70944 0.42726,-4.009 1.73637,-5.28131 1.28135,-1.24533 2.5938,-1.68016 5.07122,-1.68016 2.53023,0 3.80025,0.43229 5.10593,1.73797 1.27002,1.27001 1.70166,2.62397 1.70166,5.33772 l 0,2.0011 2.6663,0.005 c 3.62685,0.007 4.99797,0.65081 5.97748,2.80768 0.40392,0.88941 0.42326,1.99076 0.42802,24.36825 0.005,25.65111 0.0743,24.2985 -1.31184,25.77671 -0.3366,0.35896 -1.02045,0.84175 -1.51967,1.07289 -0.86665,0.40124 -2.07208,0.42024 -26.66307,0.42024 -24.59098,0 -25.79641,-0.019 -26.66306,-0.42024 z m 11.91329,-9.21388 0,-5.10569 -5.1057,0 -5.10569,0 0,5.10569 0,5.10569 5.10569,0 5.1057,0 0,-5.10569 z m 13.61518,0 0,-5.10569 -5.673,0 -5.67299,0 0,5.10569 0,5.10569 5.67299,0 5.673,0 0,-5.10569 z m 13.61518,0 0,-5.10569 -5.67299,0 -5.673,0 0,5.10569 0,5.10569 5.673,0 5.67299,0 0,-5.10569 z m 12.48058,0 0,-5.10569 -5.10569,0 -5.1057,0 0,5.10569 0,5.10569 5.1057,0 5.10569,0 0,-5.10569 z m -39.71094,-13.04788 0,-5.67299 -5.1057,0 -5.10569,0 0,5.67299 0,5.67299 5.10569,0 5.1057,0 0,-5.67299 z m 13.61518,0 0,-5.67299 -5.673,0 -5.67299,0 0,5.67299 0,5.67299 5.67299,0 5.673,0 0,-5.67299 z m 13.61518,0 0,-5.67299 -5.67299,0 -5.673,0 0,5.67299 0,5.67299 5.673,0 5.67299,0 0,-5.67299 z m 12.48058,0 0,-5.67299 -5.10569,0 -5.1057,0 0,5.67299 0,5.67299 5.1057,0 5.10569,0 0,-5.67299 z m -39.71094,-13.04788 0,-5.1057 -5.1057,0 -5.10569,0 0,5.1057 0,5.10569 5.10569,0 5.1057,0 0,-5.10569 z m 13.61518,0 0,-5.1057 -5.673,0 -5.67299,0 0,5.1057 0,5.10569 5.67299,0 5.673,0 0,-5.10569 z m 13.61518,0 0,-5.1057 -5.67299,0 -5.673,0 0,5.1057 0,5.10569 5.673,0 5.67299,0 0,-5.10569 z m 12.48058,0 0,-5.1057 -5.10569,0 -5.1057,0 0,5.1057 0,5.10569 5.1057,0 5.10569,0 0,-5.10569 z m -36.66374,-11.13528 c 0.30465,-0.30465 0.35659,-1.16161 0.35659,-5.8837 0,-6.51172 0.0987,-6.24029 -2.2692,-6.24029 -2.36789,0 -2.26919,-0.27143 -2.26919,6.24029 0,6.51172 -0.0987,6.24029 2.26919,6.24029 1.11201,0 1.65778,-0.10175 1.91261,-0.35659 z m 27.23036,0 c 0.30465,-0.30465 0.35659,-1.16161 0.35659,-5.8837 0,-6.51172 0.0987,-6.24029 -2.26919,-6.24029 -2.3679,0 -2.2692,-0.27143 -2.2692,6.24029 0,6.51172 -0.0987,6.24029 2.2692,6.24029 1.112,0 1.65777,-0.10175 1.9126,-0.35659 z"
         style="fill:#000000" />
    </g>
    <g
       id="g3867"
       transform="matrix(0.58063551,0,0,0.58063551,72.224455,145.1583)">
      <rect
         ry="1.5856866"
         y="447.54422"
         x="267.76431"
         height="39.285686"
         width="52.500019"
         id="rect3869"
         style="fill:#ffffff;fill-opacity:1;stroke:none" />
      <rect
         style="fill:#ffffff;fill-opacity:1;stroke:none"
         id="rect3871"
         width="6.7857332"
         height="39.285686"
         x="304.55005"
         y="428.97278"
         ry="1.5856866" />
      <rect
         ry="1.5856866"
         y="428.97278"
         x="276.6929"
         height="39.285686"
         width="6.7857332"
         id="rect3873"
         style="fill:#ffffff;fill-opacity:1;stroke:none" />
      <path
         style="fill:#000000"
         d="m 266.82495,489.36576 c -0.49922,-0.23114 -1.18307,-0.71394 -1.51967,-1.07289 -1.38613,-1.47821 -1.31729,-0.1256 -1.31184,-25.77671 0.005,-22.37749 0.0241,-23.47884 0.42802,-24.36825 0.97951,-2.15687 2.35063,-2.8009 5.97748,-2.80768 l 2.6663,-0.005 0,-2.11532 c 0,-2.64229 0.41042,-3.91862 1.68017,-5.2251 1.24816,-1.28427 2.58321,-1.73637 5.12742,-1.73637 2.53024,0 3.80026,0.43229 5.10594,1.73797 1.27002,1.27001 1.70165,2.62397 1.70165,5.33772 l 0,2.0011 6.80759,0 6.8076,0 0,-2.11532 c 0,-2.70944 0.42726,-4.009 1.73637,-5.28131 1.28135,-1.24533 2.5938,-1.68016 5.07122,-1.68016 2.53023,0 3.80025,0.43229 5.10593,1.73797 1.27002,1.27001 1.70166,2.62397 1.70166,5.33772 l 0,2.0011 2.6663,0.005 c 3.62685,0.007 4.99797,0.65081 5.97748,2.80768 0.40392,0.88941 0.42326,1.99076 0.42802,24.36825 0.005,25.65111 0.0743,24.2985 -1.31184,25.77671 -0.3366,0.35896 -1.02045,0.84175 -1.51967,1.07289 -0.86665,0.40124 -2.07208,0.42024 -26.66307,0.42024 -24.59098,0 -25.79641,-0.019 -26.66306,-0.42024 z m 11.91329,-9.21388 0,-5.10569 -5.1057,0 -5.10569,0 0,5.10569 0,5.10569 5.10569,0 5.1057,0 0,-5.10569 z m 13.61518,0 0,-5.10569 -5.673,0 -5.67299,0 0,5.10569 0,5.10569 5.67299,0 5.673,0 0,-5.10569 z m 13.61518,0 0,-5.10569 -5.67299,0 -5.673,0 0,5.10569 0,5.10569 5.673,0 5.67299,0 0,-5.10569 z m 12.48058,0 0,-5.10569 -5.10569,0 -5.1057,0 0,5.10569 0,5.10569 5.1057,0 5.10569,0 0,-5.10569 z m -39.71094,-13.04788 0,-5.67299 -5.1057,0 -5.10569,0 0,5.67299 0,5.67299 5.10569,0 5.1057,0 0,-5.67299 z m 13.61518,0 0,-5.67299 -5.673,0 -5.67299,0 0,5.67299 0,5.67299 5.67299,0 5.673,0 0,-5.67299 z m 13.61518,0 0,-5.67299 -5.67299,0 -5.673,0 0,5.67299 0,5.67299 5.673,0 5.67299,0 0,-5.67299 z m 12.48058,0 0,-5.67299 -5.10569,0 -5.1057,0 0,5.67299 0,5.67299 5.1057,0 5.10569,0 0,-5.67299 z m -39.71094,-13.04788 0,-5.1057 -5.1057,0 -5.10569,0 0,5.1057 0,5.10569 5.10569,0 5.1057,0 0,-5.10569 z m 13.61518,0 0,-5.1057 -5.673,0 -5.67299,0 0,5.1057 0,5.10569 5.67299,0 5.673,0 0,-5.10569 z m 13.61518,0 0,-5.1057 -5.67299,0 -5.673,0 0,5.1057 0,5.10569 5.673,0 5.67299,0 0,-5.10569 z m 12.48058,0 0,-5.1057 -5.10569,0 -5.1057,0 0,5.1057 0,5.10569 5.1057,0 5.10569,0 0,-5.10569 z m -36.66374,-11.13528 c 0.30465,-0.30465 0.35659,-1.16161 0.35659,-5.8837 0,-6.51172 0.0987,-6.24029 -2.2692,-6.24029 -2.36789,0 -2.26919,-0.27143 -2.26919,6.24029 0,6.51172 -0.0987,6.24029 2.26919,6.24029 1.11201,0 1.65778,-0.10175 1.91261,-0.35659 z m 27.23036,0 c 0.30465,-0.30465 0.35659,-1.16161 0.35659,-5.8837 0,-6.51172 0.0987,-6.24029 -2.26919,-6.24029 -2.3679,0 -2.2692,-0.27143 -2.2692,6.24029 0,6.51172 -0.0987,6.24029 2.2692,6.24029 1.112,0 1.65777,-0.10175 1.9126,-0.35659 z"
         id="path3875"
         inkscape:connector-curvature="0" />
    </g>
    <g
       transform="matrix(0.58063551,0,0,0.58063551,107.41628,213.19583)"
       id="g3877">
      <rect
         style="fill:#ffffff;fill-opacity:1;stroke:none"
         id="rect3879"
         width="52.500019"
         height="39.285686"
         x="267.76431"
         y="447.54422"
         ry="1.5856866" />
      <rect
         ry="1.5856866"
         y="428.97278"
         x="304.55005"
         height="39.285686"
         width="6.7857332"
         id="rect3881"
         style="fill:#ffffff;fill-opacity:1;stroke:none" />
      <rect
         style="fill:#ffffff;fill-opacity:1;stroke:none"
         id="rect3883"
         width="6.7857332"
         height="39.285686"
         x="276.6929"
         y="428.97278"
         ry="1.5856866" />
      <path
         inkscape:connector-curvature="0"
         id="path3885"
         d="m 266.82495,489.36576 c -0.49922,-0.23114 -1.18307,-0.71394 -1.51967,-1.07289 -1.38613,-1.47821 -1.31729,-0.1256 -1.31184,-25.77671 0.005,-22.37749 0.0241,-23.47884 0.42802,-24.36825 0.97951,-2.15687 2.35063,-2.8009 5.97748,-2.80768 l 2.6663,-0.005 0,-2.11532 c 0,-2.64229 0.41042,-3.91862 1.68017,-5.2251 1.24816,-1.28427 2.58321,-1.73637 5.12742,-1.73637 2.53024,0 3.80026,0.43229 5.10594,1.73797 1.27002,1.27001 1.70165,2.62397 1.70165,5.33772 l 0,2.0011 6.80759,0 6.8076,0 0,-2.11532 c 0,-2.70944 0.42726,-4.009 1.73637,-5.28131 1.28135,-1.24533 2.5938,-1.68016 5.07122,-1.68016 2.53023,0 3.80025,0.43229 5.10593,1.73797 1.27002,1.27001 1.70166,2.62397 1.70166,5.33772 l 0,2.0011 2.6663,0.005 c 3.62685,0.007 4.99797,0.65081 5.97748,2.80768 0.40392,0.88941 0.42326,1.99076 0.42802,24.36825 0.005,25.65111 0.0743,24.2985 -1.31184,25.77671 -0.3366,0.35896 -1.02045,0.84175 -1.51967,1.07289 -0.86665,0.40124 -2.07208,0.42024 -26.66307,0.42024 -24.59098,0 -25.79641,-0.019 -26.66306,-0.42024 z m 11.91329,-9.21388 0,-5.10569 -5.1057,0 -5.10569,0 0,5.10569 0,5.10569 5.10569,0 5.1057,0 0,-5.10569 z m 13.61518,0 0,-5.10569 -5.673,0 -5.67299,0 0,5.10569 0,5.10569 5.67299,0 5.673,0 0,-5.10569 z m 13.61518,0 0,-5.10569 -5.67299,0 -5.673,0 0,5.10569 0,5.10569 5.673,0 5.67299,0 0,-5.10569 z m 12.48058,0 0,-5.10569 -5.10569,0 -5.1057,0 0,5.10569 0,5.10569 5.1057,0 5.10569,0 0,-5.10569 z m -39.71094,-13.04788 0,-5.67299 -5.1057,0 -5.10569,0 0,5.67299 0,5.67299 5.10569,0 5.1057,0 0,-5.67299 z m 13.61518,0 0,-5.67299 -5.673,0 -5.67299,0 0,5.67299 0,5.67299 5.67299,0 5.673,0 0,-5.67299 z m 13.61518,0 0,-5.67299 -5.67299,0 -5.673,0 0,5.67299 0,5.67299 5.673,0 5.67299,0 0,-5.67299 z m 12.48058,0 0,-5.67299 -5.10569,0 -5.1057,0 0,5.67299 0,5.67299 5.1057,0 5.10569,0 0,-5.67299 z m -39.71094,-13.04788 0,-5.1057 -5.1057,0 -5.10569,0 0,5.1057 0,5.10569 5.10569,0 5.1057,0 0,-5.10569 z m 13.61518,0 0,-5.1057 -5.673,0 -5.67299,0 0,5.1057 0,5.10569 5.67299,0 5.673,0 0,-5.10569 z m 13.61518,0 0,-5.1057 -5.67299,0 -5.673,0 0,5.1057 0,5.10569 5.673,0 5.67299,0 0,-5.10569 z m 12.48058,0 0,-5.1057 -5.10569,0 -5.1057,0 0,5.1057 0,5.10569 5.1057,0 5.10569,0 0,-5.10569 z m -36.66374,-11.13528 c 0.30465,-0.30465 0.35659,-1.16161 0.35659,-5.8837 0,-6.51172 0.0987,-6.24029 -2.2692,-6.24029 -2.36789,0 -2.26919,-0.27143 -2.26919,6.24029 0,6.51172 -0.0987,6.24029 2.26919,6.24029 1.11201,0 1.65778,-0.10175 1.91261,-0.35659 z m 27.23036,0 c 0.30465,-0.30465 0.35659,-1.16161 0.35659,-5.8837 0,-6.51172 0.0987,-6.24029 -2.26919,-6.24029 -2.3679,0 -2.2692,-0.27143 -2.2692,6.24029 0,6.51172 -0.0987,6.24029 2.2692,6.24029 1.112,0 1.65777,-0.10175 1.9126,-0.35659 z"
         style="fill:#000000" />
    </g>
    <g
       id="g3887"
       transform="matrix(0.58063551,0,0,0.58063551,110.6422,280.9401)">
      <rect
         ry="1.5856866"
         y="447.54422"
         x="267.76431"
         height="39.285686"
         width="52.500019"
         id="rect3889"
         style="fill:#ffffff;fill-opacity:1;stroke:none" />
      <rect
         style="fill:#ffffff;fill-opacity:1;stroke:none"
         id="rect3891"
         width="6.7857332"
         height="39.285686"
         x="304.55005"
         y="428.97278"
         ry="1.5856866" />
      <rect
         ry="1.5856866"
         y="428.97278"
         x="276.6929"
         height="39.285686"
         width="6.7857332"
         id="rect3893"
         style="fill:#ffffff;fill-opacity:1;stroke:none" />
      <path
         style="fill:#000000"
         d="m 266.82495,489.36576 c -0.49922,-0.23114 -1.18307,-0.71394 -1.51967,-1.07289 -1.38613,-1.47821 -1.31729,-0.1256 -1.31184,-25.77671 0.005,-22.37749 0.0241,-23.47884 0.42802,-24.36825 0.97951,-2.15687 2.35063,-2.8009 5.97748,-2.80768 l 2.6663,-0.005 0,-2.11532 c 0,-2.64229 0.41042,-3.91862 1.68017,-5.2251 1.24816,-1.28427 2.58321,-1.73637 5.12742,-1.73637 2.53024,0 3.80026,0.43229 5.10594,1.73797 1.27002,1.27001 1.70165,2.62397 1.70165,5.33772 l 0,2.0011 6.80759,0 6.8076,0 0,-2.11532 c 0,-2.70944 0.42726,-4.009 1.73637,-5.28131 1.28135,-1.24533 2.5938,-1.68016 5.07122,-1.68016 2.53023,0 3.80025,0.43229 5.10593,1.73797 1.27002,1.27001 1.70166,2.62397 1.70166,5.33772 l 0,2.0011 2.6663,0.005 c 3.62685,0.007 4.99797,0.65081 5.97748,2.80768 0.40392,0.88941 0.42326,1.99076 0.42802,24.36825 0.005,25.65111 0.0743,24.2985 -1.31184,25.77671 -0.3366,0.35896 -1.02045,0.84175 -1.51967,1.07289 -0.86665,0.40124 -2.07208,0.42024 -26.66307,0.42024 -24.59098,0 -25.79641,-0.019 -26.66306,-0.42024 z m 11.91329,-9.21388 0,-5.10569 -5.1057,0 -5.10569,0 0,5.10569 0,5.10569 5.10569,0 5.1057,0 0,-5.10569 z m 13.61518,0 0,-5.10569 -5.673,0 -5.67299,0 0,5.10569 0,5.10569 5.67299,0 5.673,0 0,-5.10569 z m 13.61518,0 0,-5.10569 -5.67299,0 -5.673,0 0,5.10569 0,5.10569 5.673,0 5.67299,0 0,-5.10569 z m 12.48058,0 0,-5.10569 -5.10569,0 -5.1057,0 0,5.10569 0,5.10569 5.1057,0 5.10569,0 0,-5.10569 z m -39.71094,-13.04788 0,-5.67299 -5.1057,0 -5.10569,0 0,5.67299 0,5.67299 5.10569,0 5.1057,0 0,-5.67299 z m 13.61518,0 0,-5.67299 -5.673,0 -5.67299,0 0,5.67299 0,5.67299 5.67299,0 5.673,0 0,-5.67299 z m 13.61518,0 0,-5.67299 -5.67299,0 -5.673,0 0,5.67299 0,5.67299 5.673,0 5.67299,0 0,-5.67299 z m 12.48058,0 0,-5.67299 -5.10569,0 -5.1057,0 0,5.67299 0,5.67299 5.1057,0 5.10569,0 0,-5.67299 z m -39.71094,-13.04788 0,-5.1057 -5.1057,0 -5.10569,0 0,5.1057 0,5.10569 5.10569,0 5.1057,0 0,-5.10569 z m 13.61518,0 0,-5.1057 -5.673,0 -5.67299,0 0,5.1057 0,5.10569 5.67299,0 5.673,0 0,-5.10569 z m 13.61518,0 0,-5.1057 -5.67299,0 -5.673,0 0,5.1057 0,5.10569 5.673,0 5.67299,0 0,-5.10569 z m 12.48058,0 0,-5.1057 -5.10569,0 -5.1057,0 0,5.1057 0,5.10569 5.1057,0 5.10569,0 0,-5.10569 z m -36.66374,-11.13528 c 0.30465,-0.30465 0.35659,-1.16161 0.35659,-5.8837 0,-6.51172 0.0987,-6.24029 -2.2692,-6.24029 -2.36789,0 -2.26919,-0.27143 -2.26919,6.24029 0,6.51172 -0.0987,6.24029 2.26919,6.24029 1.11201,0 1.65778,-0.10175 1.91261,-0.35659 z m 27.23036,0 c 0.30465,-0.30465 0.35659,-1.16161 0.35659,-5.8837 0,-6.51172 0.0987,-6.24029 -2.26919,-6.24029 -2.3679,0 -2.2692,-0.27143 -2.2692,6.24029 0,6.51172 -0.0987,6.24029 2.2692,6.24029 1.112,0 1.65777,-0.10175 1.9126,-0.35659 z"
         id="path3895"
         inkscape:connector-curvature="0" />
    </g>
  </g>
</svg>
