<?xml version="1.0" encoding="UTF-8" standalone="no"?>
<!-- Created with Inkscape (http://www.inkscape.org/) -->

<svg
   xmlns:dc="http://purl.org/dc/elements/1.1/"
   xmlns:cc="http://creativecommons.org/ns#"
   xmlns:rdf="http://www.w3.org/1999/02/22-rdf-syntax-ns#"
   xmlns:svg="http://www.w3.org/2000/svg"
   xmlns="http://www.w3.org/2000/svg"
   xmlns:sodipodi="http://sodipodi.sourceforge.net/DTD/sodipodi-0.dtd"
   xmlns:inkscape="http://www.inkscape.org/namespaces/inkscape"
   width="744.09448819"
   height="1052.3622047"
   id="svg2"
   version="1.1"
   inkscape:version="0.48.4 r9939"
   sodipodi:docname="drawings.svg">
  <defs
     id="defs4" />
  <sodipodi:namedview
     id="base"
     pagecolor="#ffffff"
     bordercolor="#666666"
     borderopacity="1.0"
     inkscape:pageopacity="0.0"
     inkscape:pageshadow="2"
     inkscape:zoom="0.98994949"
     inkscape:cx="504.09463"
     inkscape:cy="1082.0279"
     inkscape:document-units="px"
     inkscape:current-layer="layer1"
     showgrid="false"
     inkscape:window-width="1920"
     inkscape:window-height="1056"
     inkscape:window-x="0"
     inkscape:window-y="24"
     inkscape:window-maximized="1" />
  <metadata
     id="metadata7">
    <rdf:RDF>
      <cc:Work
         rdf:about="">
        <dc:format>image/svg+xml</dc:format>
        <dc:type
           rdf:resource="http://purl.org/dc/dcmitype/StillImage" />
        <dc:title></dc:title>
      </cc:Work>
    </rdf:RDF>
  </metadata>
  <g
     inkscape:label="Layer 1"
     inkscape:groupmode="layer"
     id="layer1">
    <path
       style="fill:#000000;fill-opacity:1;stroke:#ffffff;stroke-width:0.55553168;stroke-linecap:butt;stroke-linejoin:round;stroke-miterlimit:4;stroke-opacity:1;stroke-dasharray:none;stroke-dashoffset:0"
       d="m 79.284373,46.9541 c -11.010194,-0.0011 -11.715015,0.205357 -12.995474,0.992021 -3.383363,2.07862 -3.273669,0.57715 -3.273669,45.500696 0,44.924763 -0.109233,43.421663 3.273669,45.484153 1.692044,1.03159 2.607026,1.07258 27.065637,1.07469 27.747864,0.002 27.744904,-0.009 29.595294,-3.14139 0.83045,-1.40584 0.90935,-4.89761 0.90935,-43.648924 l 0,-42.111292 -0.77944,-2.172997 -0.952,-0.753586 -1.90597,-1.024967 -26.090147,-0.148802 c -6.360348,-0.03375 -11.177183,-0.0492 -14.84725,-0.04957 z m 3.819283,2.661923 c 3.194821,-0.0042 6.950034,0.0071 11.309039,0.03307 l 24.861935,0.432236 1.19751,0.767639 c 0.95498,1.179732 0.74165,2.541462 0.74165,21.170198 0,18.628816 -0.0701,19.784974 -1.02508,20.964714 l -1.00856,1.256558 -25.048527,0.0992 c -17.019056,0.07099 -25.415944,-0.07583 -26.205889,-0.462942 -0.63938,-0.31333 -1.413157,-1.28713 -1.719503,-2.165912 -0.760037,-2.180183 -0.74419,-37.217552 0.01651,-39.399771 0.329749,-0.945901 1.144057,-1.867581 1.984042,-2.215513 0.757814,-0.313887 5.312391,-0.466536 14.89685,-0.479477 z m 17.492634,8.349509 c -2.575906,-0.0087 -5.125542,0.63 -7.208682,1.917908 -9.748038,6.026752 -7.094496,21.246491 4.100354,23.47783 8.706338,1.735328 16.302208,-4.160859 16.302208,-12.664802 0,-3.533716 -1.76431,-7.629123 -4.13342,-9.622603 -2.41113,-2.028828 -5.74858,-3.097158 -9.06046,-3.108333 z m -23.825036,0.03307 0,12.697868 0,12.697869 2.645388,0 2.64539,0 0,-12.697869 0,-12.697868 -2.64539,0 z m 23.791966,4.7617 c 3.6419,-0.03518 6.88978,2.652955 7.68817,6.96068 0.4918,2.653527 -1.20725,6.415832 -3.53821,7.836967 -2.28114,1.390771 -5.97024,1.403151 -8.21724,0.03306 -4.885711,-2.978989 -4.67055,-11.163411 0.36374,-13.855227 1.224172,-0.654564 2.489575,-0.963757 3.70354,-0.975487 z M 87.088274,104.22678 c 2.427123,0.006 4.868265,0.41923 6.415066,1.24003 2.767078,1.46831 5.651503,4.81429 6.448136,7.47322 0.910624,3.03937 0.748034,7.44263 -0.380276,9.8706 -1.223676,2.63323 -4.448399,5.76393 -7.043345,6.84495 -1.124948,0.46864 -3.503199,0.82986 -5.555318,0.82668 -8.092067,-0.0116 -13.485032,-5.18249 -13.524553,-12.9624 -0.02683,-5.28075 2.537367,-9.52019 7.291354,-12.06959 1.517992,-0.81405 3.921812,-1.22883 6.348936,-1.22349 z m 18.253186,0.33067 3.17447,0 3.191,0 -0.14881,12.83013 -0.13226,12.83014 -3.04221,0.14881 -3.04219,0.16533 0,-12.99547 z m -18.302788,5.40651 c -0.206562,0.003 -0.414368,0.0173 -0.628279,0.0331 -3.369766,0.24913 -5.564367,2.03545 -6.36547,5.19157 -0.981482,3.86673 0.486994,7.26103 3.868884,8.9778 6.292844,3.19446 12.420263,-3.45649 9.539932,-10.35009 -1.064944,-2.54878 -3.31666,-3.9026 -6.415067,-3.85235 z"
       id="rect3085"
       inkscape:connector-curvature="0"
       sodipodi:nodetypes="ssssssscccccsscccscccssscssssssscccccccccssssssssssscssscccccccccssssss" />
    <text
       xml:space="preserve"
       style="font-size:14.61067104px;font-style:normal;font-weight:normal;line-height:125%;letter-spacing:0px;word-spacing:0px;fill:#000000;fill-opacity:1;stroke:none;font-family:Sans"
       x="129.64644"
       y="93.32373"
       id="text3066"
       sodipodi:linespacing="125%"
       transform="scale(1.0455968,0.9563916)"><tspan
         sodipodi:role="line"
         id="tspan3068"
         x="129.64644"
         y="93.32373">LICENCE OUVERTE</tspan></text>
    <text
       transform="scale(1.0455968,0.9563916)"
       sodipodi:linespacing="125%"
       id="text3070"
       y="113.44118"
       x="129.64644"
       style="font-size:14.61067104px;font-style:normal;font-weight:normal;line-height:125%;letter-spacing:0px;word-spacing:0px;fill:#000000;fill-opacity:1;stroke:none;font-family:Sans"
       xml:space="preserve"><tspan
         y="113.44118"
         x="129.64644"
         id="tspan3072"
         sodipodi:role="line">OPEN LICENCE</tspan></text>
    <path
       style="fill:none;stroke:#000000;stroke-width:0.52907783px;stroke-linecap:butt;stroke-linejoin:miter;stroke-opacity:1"
       d="m 166.3633,93.749666 83.64132,0"
       id="path3858"
       inkscape:connector-curvature="0" />
    <path
       style="fill:#000000"
       d="m 399.6479,38.309339 c -3.78587,0.09159 -5.8765,0.886436 -7.8475,2.914445 -2.13877,2.200629 -2.83084,4.352391 -2.83084,8.803056 l 0,3.571389 -4.49111,0 c -6.10904,0.01143 -8.41928,1.096978 -10.06917,4.730001 -0.68034,1.49812 -0.72058,3.360532 -0.72861,41.053058 -0.009,43.206582 -0.12507,40.928172 2.20972,43.418052 0.56696,0.60462 1.72717,1.41429 2.56806,1.80361 1.45977,0.67587 3.4902,0.70473 44.91111,0.70473 41.42092,0 43.45135,-0.0289 44.91112,-0.70473 0.84089,-0.38932 1.98915,-1.19899 2.55611,-1.80361 2.3348,-2.48988 2.2189,-0.21147 2.20972,-43.418052 -0.008,-37.692526 -0.0363,-39.554938 -0.71666,-41.053058 -1.64989,-3.633023 -3.96013,-4.718572 -10.06917,-4.730001 l -4.49111,0 0,-3.380278 c 0,-4.571026 -0.72746,-6.843017 -2.86667,-8.982223 -2.19928,-2.199276 -4.33808,-2.926389 -8.6,-2.926389 -4.17295,0 -6.39392,0.733202 -8.55222,2.830834 -2.20506,2.14307 -2.91445,4.322899 -2.91445,8.886667 l 0,3.571389 -11.46667,0 -11.46666,0 0,-3.380278 c 0,-4.571026 -0.72746,-6.843017 -2.86667,-8.982223 -2.19928,-2.199276 -4.33808,-2.926389 -8.6,-2.926389 -0.26784,0 -0.53594,-0.0061 -0.78833,0 z m 0.84805,7.644445 c 2.54308,0 3.01735,0.09512 3.35639,0.728611 0.24121,0.450705 0.40611,4.322919 0.40611,9.91389 0,7.827789 -0.0965,9.2579 -0.60916,9.770556 -0.42924,0.429243 -1.34001,0.609167 -3.21306,0.609167 -3.99291,0 -3.82222,0.47436 -3.82222,-10.654445 0,-6.841779 0.12188,-9.58188 0.45389,-9.91389 0.27798,-0.277982 1.62933,-0.453889 3.42805,-0.453889 z m 45.86667,0 c 2.54308,0 3.01735,0.09512 3.35639,0.728611 0.24121,0.450705 0.40611,4.322919 0.40611,9.91389 0,7.827789 -0.0965,9.2579 -0.60916,9.770556 -0.42924,0.429243 -1.34001,0.609167 -3.21306,0.609167 -3.99291,0 -3.82222,0.47436 -3.82222,-10.654445 0,-6.841779 0.12188,-9.58188 0.45389,-9.91389 0.27798,-0.277982 1.62933,-0.453889 3.42805,-0.453889 z m -65.0375,30.57778 42.04444,0 42.04445,0 0,30.577776 0,30.57778 -42.04445,0 -42.04444,0 0,-30.57778 0,-30.577776 z"
       id="path3128"
       inkscape:connector-curvature="0"
       inkscape:export-filename="/home/kaore/Downloads/private.png"
       inkscape:export-xdpi="121.05"
       inkscape:export-ydpi="121.05" />
    <path
       style="fill:#41acdd;fill-opacity:1"
       d="m 405.98165,130.23245 c -0.62433,-0.30903 -0.99642,-0.68499 -1.30132,-1.31483 -0.41209,-0.85128 -0.42699,-1.2262 -0.42699,-10.74469 0,-9.65805 0.009,-9.88177 0.44642,-10.78483 0.50859,-1.05061 1.62067,-1.69553 2.937,-1.70323 l 0.78079,-0.005 0,-3.72947 c 0,-5.224026 0.48912,-7.477596 2.20521,-10.160276 4.48364,-7.00906 13.53757,-9.02027 20.31719,-4.51318 2.07603,1.38014 3.96511,3.53336 5.07771,5.78768 1.25966,2.55231 1.54938,4.21383 1.54938,8.885776 l 0,3.72947 0.78078,0.005 c 1.31633,0.008 2.42841,0.65262 2.937,1.70323 0.43716,0.90305 0.44643,1.12677 0.44643,10.78482 0,9.53301 -0.0143,9.89225 -0.42894,10.7487 -0.31142,0.64331 -0.67169,1.00358 -1.315,1.315 -0.87131,0.42179 -1.15464,0.42893 -17.0087,0.42877 -15.90644,-1.6e-4 -16.13437,-0.006 -16.99696,-0.43295 z m 25.30552,-28.76842 c -0.0674,-4.025806 -0.0949,-4.267986 -0.60902,-5.361416 -0.79793,-1.69695 -2.45866,-3.40019 -4.10615,-4.21125 -1.29849,-0.63924 -1.52118,-0.68169 -3.57533,-0.68154 -1.94363,1.5e-4 -2.32562,0.0634 -3.38835,0.56131 -1.66913,0.78199 -3.34508,2.43074 -4.16707,4.09946 l -0.67328,1.36681 -0.0706,4.221446 -0.0706,4.22144 8.36544,0 8.36544,0 -0.0706,-4.21626 z"
       id="path3126"
       inkscape:connector-curvature="0"
       inkscape:export-filename="/home/kaore/Downloads/private.png"
       inkscape:export-xdpi="121.05"
       inkscape:export-ydpi="121.05" />
    <rect
       style="fill:none;stroke:none"
       id="rect3902"
       width="185.86807"
       height="134.35028"
       x="330.31989"
       y="26.047197"
       inkscape:export-filename="/home/kaore/Downloads/private.png"
       inkscape:export-xdpi="121.05"
       inkscape:export-ydpi="121.05" />
  </g>
</svg>
