<?xml version="1.0" encoding="UTF-8" standalone="no"?>
<svg
   xmlns:dc="http://purl.org/dc/elements/1.1/"
   xmlns:cc="http://creativecommons.org/ns#"
   xmlns:rdf="http://www.w3.org/1999/02/22-rdf-syntax-ns#"
   xmlns:svg="http://www.w3.org/2000/svg"
   xmlns="http://www.w3.org/2000/svg"
   xmlns:sodipodi="http://sodipodi.sourceforge.net/DTD/sodipodi-0.dtd"
   xmlns:inkscape="http://www.inkscape.org/namespaces/inkscape"
   version="1.1"
   x="0px"
   y="0px"
   viewBox="0 0 100 125"
   style="enable-background:new 0 0 100 100;"
   xml:space="preserve"
   id="svg2"
   inkscape:version="0.48.4 r9939"
   sodipodi:docname="agenda.svg"
   width="100%"
   height="100%"
   inkscape:export-filename="/home/kaore/Downloads/network.jpg.png"
   inkscape:export-xdpi="584.34998"
   inkscape:export-ydpi="584.34998"><metadata
     id="metadata16"><rdf:RDF><cc:Work
         rdf:about=""><dc:format>image/svg+xml</dc:format><dc:type
           rdf:resource="http://purl.org/dc/dcmitype/StillImage" /><dc:title></dc:title></cc:Work></rdf:RDF></metadata><defs
     id="defs14"><marker
       inkscape:stockid="Arrow1Send"
       orient="auto"
       refY="0.0"
       refX="0.0"
       id="Arrow1Send"
       style="overflow:visible;"><path
         id="path4178"
         d="M 0.0,0.0 L 5.0,-5.0 L -12.5,0.0 L 5.0,5.0 L 0.0,0.0 z "
         style="fill-rule:evenodd;stroke:#000000;stroke-width:1.0pt;"
         transform="scale(0.2) rotate(180) translate(6,0)" /></marker><marker
       inkscape:stockid="DotL"
       orient="auto"
       refY="0.0"
       refX="0.0"
       id="DotL"
       style="overflow:visible"><path
         id="path4224"
         d="M -2.5,-1.0 C -2.5,1.7600000 -4.7400000,4.0 -7.5,4.0 C -10.260000,4.0 -12.5,1.7600000 -12.5,-1.0 C -12.5,-3.7600000 -10.260000,-6.0 -7.5,-6.0 C -4.7400000,-6.0 -2.5,-3.7600000 -2.5,-1.0 z "
         style="fill-rule:evenodd;stroke:#000000;stroke-width:1.0pt"
         transform="scale(0.8) translate(7.4, 1)" /></marker></defs><sodipodi:namedview
     pagecolor="#ffffff"
     bordercolor="#666666"
     borderopacity="1"
     objecttolerance="10"
     gridtolerance="10"
     guidetolerance="10"
     inkscape:pageopacity="0"
     inkscape:pageshadow="2"
     inkscape:window-width="1920"
     inkscape:window-height="1056"
     id="namedview12"
     showgrid="false"
     inkscape:zoom="7.552"
     inkscape:cx="37.273754"
     inkscape:cy="72.600774"
     inkscape:window-x="0"
     inkscape:window-y="24"
     inkscape:window-maximized="1"
     inkscape:current-layer="svg2" /><rect
     style="fill:none;stroke:none"
     id="rect3040"
     width="37.473518"
     height="37.473518"
     x="31.912075"
     y="16.55191"
     inkscape:export-filename="/home/kaore/Downloads/agenda.png"
     inkscape:export-xdpi="720.51001"
     inkscape:export-ydpi="720.51001" /><g
     id="g4"
     transform="matrix(0.3446158,0,0,0.3446158,33.525665,16.730964)"
     style="fill:#41acdd;fill-opacity:1"
     inkscape:export-filename="/home/kaore/Downloads/agenda.png"
     inkscape:export-xdpi="720.51001"
     inkscape:export-ydpi="720.51001"><path
       d="m 22.3,87.7 55.3,0 c 3.3,0 6,-2.7 6,-6 l 0,-55.9 c 0,-3.3 -2.7,-6 -6,-6 l -10.5,0 0,-5.5 c 0,-1.1 -0.9,-2 -2,-2 -1.1,0 -2,0.9 -2,2 l 0,5.5 -26.2,0 0,-5.5 c 0,-1.1 -0.9,-2 -2,-2 -1.1,0 -2,0.9 -2,2 l 0,5.5 -10.6,0 c -3.3,0 -6,2.7 -6,6 l 0,55.8 c 0,3.4 2.7,6.1 6,6.1 z m 55.4,-4 -55.4,0 c -1.1,0 -2,-0.9 -2,-2 l 0,-35.8 59.3,0 0,35.7 c 0.1,1.2 -0.8,2.1 -1.9,2.1 z m -55.4,-59.9 10.6,0 0,7.5 c 0,1.1 0.9,2 2,2 1.1,0 2,-0.9 2,-2 l 0,-7.5 26.2,0 0,7.5 c 0,1.1 0.9,2 2,2 1.1,0 2,-0.9 2,-2 l 0,-7.5 10.6,0 c 1.1,0 2,0.9 2,2 l 0,16.1 -59.4,0 0,-16.1 c 0,-1.1 0.9,-2 2,-2 z"
       id="path6"
       inkscape:connector-curvature="0"
       style="fill:#41acdd;fill-opacity:1" /></g><rect
     inkscape:export-ydpi="720.51001"
     inkscape:export-xdpi="720.51001"
     inkscape:export-filename="/home/kaore/Downloads/agenda-white.png"
     y="59.189621"
     x="31.912075"
     height="37.473518"
     width="37.473518"
     id="rect2988"
     style="fill:none;stroke:none" /><g
     inkscape:export-ydpi="720.51001"
     inkscape:export-xdpi="720.51001"
     inkscape:export-filename="/home/kaore/Downloads/agenda-white.png"
     style="fill:#ffffff;fill-opacity:1"
     transform="matrix(0.3446158,0,0,0.3446158,33.525665,59.368676)"
     id="g2990"><path
       style="fill:#ffffff;fill-opacity:1"
       inkscape:connector-curvature="0"
       id="path2992"
       d="m 22.3,87.7 55.3,0 c 3.3,0 6,-2.7 6,-6 l 0,-55.9 c 0,-3.3 -2.7,-6 -6,-6 l -10.5,0 0,-5.5 c 0,-1.1 -0.9,-2 -2,-2 -1.1,0 -2,0.9 -2,2 l 0,5.5 -26.2,0 0,-5.5 c 0,-1.1 -0.9,-2 -2,-2 -1.1,0 -2,0.9 -2,2 l 0,5.5 -10.6,0 c -3.3,0 -6,2.7 -6,6 l 0,55.8 c 0,3.4 2.7,6.1 6,6.1 z m 55.4,-4 -55.4,0 c -1.1,0 -2,-0.9 -2,-2 l 0,-35.8 59.3,0 0,35.7 c 0.1,1.2 -0.8,2.1 -1.9,2.1 z m -55.4,-59.9 10.6,0 0,7.5 c 0,1.1 0.9,2 2,2 1.1,0 2,-0.9 2,-2 l 0,-7.5 26.2,0 0,7.5 c 0,1.1 0.9,2 2,2 1.1,0 2,-0.9 2,-2 l 0,-7.5 10.6,0 c 1.1,0 2,0.9 2,2 l 0,16.1 -59.4,0 0,-16.1 c 0,-1.1 0.9,-2 2,-2 z" /></g></svg>