<?xml version="1.0" encoding="UTF-8" standalone="no"?>
<svg
   xmlns:dc="http://purl.org/dc/elements/1.1/"
   xmlns:cc="http://creativecommons.org/ns#"
   xmlns:rdf="http://www.w3.org/1999/02/22-rdf-syntax-ns#"
   xmlns:svg="http://www.w3.org/2000/svg"
   xmlns="http://www.w3.org/2000/svg"
   xmlns:sodipodi="http://sodipodi.sourceforge.net/DTD/sodipodi-0.dtd"
   xmlns:inkscape="http://www.inkscape.org/namespaces/inkscape"
   version="1.1"
   x="0px"
   y="0px"
   viewBox="0 0 100 125"
   style="enable-background:new 0 0 100 100;"
   xml:space="preserve"
   id="svg2"
   inkscape:version="0.48.4 r9939"
   sodipodi:docname="network.svg"
   width="100%"
   height="100%"
   inkscape:export-filename="/home/kaore/Downloads/network.jpg.png"
   inkscape:export-xdpi="584.34998"
   inkscape:export-ydpi="584.34998"><metadata
     id="metadata16"><rdf:RDF><cc:Work
         rdf:about=""><dc:format>image/svg+xml</dc:format><dc:type
           rdf:resource="http://purl.org/dc/dcmitype/StillImage" /><dc:title></dc:title></cc:Work></rdf:RDF></metadata><defs
     id="defs14"><marker
       inkscape:stockid="Arrow1Send"
       orient="auto"
       refY="0.0"
       refX="0.0"
       id="Arrow1Send"
       style="overflow:visible;"><path
         id="path4178"
         d="M 0.0,0.0 L 5.0,-5.0 L -12.5,0.0 L 5.0,5.0 L 0.0,0.0 z "
         style="fill-rule:evenodd;stroke:#000000;stroke-width:1.0pt;"
         transform="scale(0.2) rotate(180) translate(6,0)" /></marker><marker
       inkscape:stockid="DotL"
       orient="auto"
       refY="0.0"
       refX="0.0"
       id="DotL"
       style="overflow:visible"><path
         id="path4224"
         d="M -2.5,-1.0 C -2.5,1.7600000 -4.7400000,4.0 -7.5,4.0 C -10.260000,4.0 -12.5,1.7600000 -12.5,-1.0 C -12.5,-3.7600000 -10.260000,-6.0 -7.5,-6.0 C -4.7400000,-6.0 -2.5,-3.7600000 -2.5,-1.0 z "
         style="fill-rule:evenodd;stroke:#000000;stroke-width:1.0pt"
         transform="scale(0.8) translate(7.4, 1)" /></marker></defs><sodipodi:namedview
     pagecolor="#ffffff"
     bordercolor="#666666"
     borderopacity="1"
     objecttolerance="10"
     gridtolerance="10"
     guidetolerance="10"
     inkscape:pageopacity="0"
     inkscape:pageshadow="2"
     inkscape:window-width="1920"
     inkscape:window-height="1056"
     id="namedview12"
     showgrid="false"
     inkscape:zoom="5.3400705"
     inkscape:cx="49.745706"
     inkscape:cy="52.622188"
     inkscape:window-x="0"
     inkscape:window-y="24"
     inkscape:window-maximized="1"
     inkscape:current-layer="svg2" /><g
     transform="matrix(0.10038843,0,0,0.10038843,44.90708,7.4647178)"
     id="g3791"
     style="fill:#41acdd;fill-opacity:1;stroke:none"><path
       inkscape:connector-curvature="0"
       id="path3793"
       d="m 22.3,87.7 55.3,0 c 3.3,0 6,-2.7 6,-6 l 0,-55.9 c 0,-3.3 -2.7,-6 -6,-6 l -10.5,0 0,-5.5 c 0,-1.1 -0.9,-2 -2,-2 -1.1,0 -2,0.9 -2,2 l 0,5.5 -26.2,0 0,-5.5 c 0,-1.1 -0.9,-2 -2,-2 -1.1,0 -2,0.9 -2,2 l 0,5.5 -10.6,0 c -3.3,0 -6,2.7 -6,6 l 0,55.8 c 0,3.4 2.7,6.1 6,6.1 z m 55.4,-4 -55.4,0 c -1.1,0 -2,-0.9 -2,-2 l 0,-35.8 59.3,0 0,35.7 c 0.1,1.2 -0.8,2.1 -1.9,2.1 z m -55.4,-59.9 10.6,0 0,7.5 c 0,1.1 0.9,2 2,2 1.1,0 2,-0.9 2,-2 l 0,-7.5 26.2,0 0,7.5 c 0,1.1 0.9,2 2,2 1.1,0 2,-0.9 2,-2 l 0,-7.5 10.6,0 c 1.1,0 2,0.9 2,2 l 0,16.1 -59.4,0 0,-16.1 c 0,-1.1 0.9,-2 2,-2 z"
       style="fill:#41acdd;fill-opacity:1;stroke:none" /></g><g
     id="g4"
     transform="matrix(0.18831663,0,0,0.18831663,40.31063,23.287978)"
     style="fill:#41acdd;fill-opacity:1"
     inkscape:export-filename="C:\Users\Romain Lange\Dropbox\OA\Marketing\Illustrations\g4.png"
     inkscape:export-xdpi="133.72957"
     inkscape:export-ydpi="133.72957"><path
       d="m 22.3,87.7 55.3,0 c 3.3,0 6,-2.7 6,-6 l 0,-55.9 c 0,-3.3 -2.7,-6 -6,-6 l -10.5,0 0,-5.5 c 0,-1.1 -0.9,-2 -2,-2 -1.1,0 -2,0.9 -2,2 l 0,5.5 -26.2,0 0,-5.5 c 0,-1.1 -0.9,-2 -2,-2 -1.1,0 -2,0.9 -2,2 l 0,5.5 -10.6,0 c -3.3,0 -6,2.7 -6,6 l 0,55.8 c 0,3.4 2.7,6.1 6,6.1 z m 55.4,-4 -55.4,0 c -1.1,0 -2,-0.9 -2,-2 l 0,-35.8 59.3,0 0,35.7 c 0.1,1.2 -0.8,2.1 -1.9,2.1 z m -55.4,-59.9 10.6,0 0,7.5 c 0,1.1 0.9,2 2,2 1.1,0 2,-0.9 2,-2 l 0,-7.5 26.2,0 0,7.5 c 0,1.1 0.9,2 2,2 1.1,0 2,-0.9 2,-2 l 0,-7.5 10.6,0 c 1.1,0 2,0.9 2,2 l 0,16.1 -59.4,0 0,-16.1 c 0,-1.1 0.9,-2 2,-2 z"
       id="path6"
       inkscape:connector-curvature="0"
       style="fill:#41acdd;fill-opacity:1" /></g><g
     transform="matrix(0.10038843,0,0,0.10038843,25.15777,18.486418)"
     id="g4144"
     style="fill:#41acdd;fill-opacity:1;stroke:none"><path
       inkscape:connector-curvature="0"
       id="path4146"
       d="m 22.3,87.7 55.3,0 c 3.3,0 6,-2.7 6,-6 l 0,-55.9 c 0,-3.3 -2.7,-6 -6,-6 l -10.5,0 0,-5.5 c 0,-1.1 -0.9,-2 -2,-2 -1.1,0 -2,0.9 -2,2 l 0,5.5 -26.2,0 0,-5.5 c 0,-1.1 -0.9,-2 -2,-2 -1.1,0 -2,0.9 -2,2 l 0,5.5 -10.6,0 c -3.3,0 -6,2.7 -6,6 l 0,55.8 c 0,3.4 2.7,6.1 6,6.1 z m 55.4,-4 -55.4,0 c -1.1,0 -2,-0.9 -2,-2 l 0,-35.8 59.3,0 0,35.7 c 0.1,1.2 -0.8,2.1 -1.9,2.1 z m -55.4,-59.9 10.6,0 0,7.5 c 0,1.1 0.9,2 2,2 1.1,0 2,-0.9 2,-2 l 0,-7.5 26.2,0 0,7.5 c 0,1.1 0.9,2 2,2 1.1,0 2,-0.9 2,-2 l 0,-7.5 10.6,0 c 1.1,0 2,0.9 2,2 l 0,16.1 -59.4,0 0,-16.1 c 0,-1.1 0.9,-2 2,-2 z"
       style="fill:#41acdd;fill-opacity:1;stroke:none" /></g><g
     style="fill:#41acdd;fill-opacity:1;stroke:none"
     id="g3779"
     transform="matrix(0.10038843,0,0,0.10038843,25.15777,37.886628)"><path
       style="fill:#41acdd;fill-opacity:1;stroke:none"
       d="m 22.3,87.7 55.3,0 c 3.3,0 6,-2.7 6,-6 l 0,-55.9 c 0,-3.3 -2.7,-6 -6,-6 l -10.5,0 0,-5.5 c 0,-1.1 -0.9,-2 -2,-2 -1.1,0 -2,0.9 -2,2 l 0,5.5 -26.2,0 0,-5.5 c 0,-1.1 -0.9,-2 -2,-2 -1.1,0 -2,0.9 -2,2 l 0,5.5 -10.6,0 c -3.3,0 -6,2.7 -6,6 l 0,55.8 c 0,3.4 2.7,6.1 6,6.1 z m 55.4,-4 -55.4,0 c -1.1,0 -2,-0.9 -2,-2 l 0,-35.8 59.3,0 0,35.7 c 0.1,1.2 -0.8,2.1 -1.9,2.1 z m -55.4,-59.9 10.6,0 0,7.5 c 0,1.1 0.9,2 2,2 1.1,0 2,-0.9 2,-2 l 0,-7.5 26.2,0 0,7.5 c 0,1.1 0.9,2 2,2 1.1,0 2,-0.9 2,-2 l 0,-7.5 10.6,0 c 1.1,0 2,0.9 2,2 l 0,16.1 -59.4,0 0,-16.1 c 0,-1.1 0.9,-2 2,-2 z"
       id="path3781"
       inkscape:connector-curvature="0" /></g><g
     transform="matrix(0.10038843,0,0,0.10038843,64.60652,37.886628)"
     id="g3783"
     style="fill:#41acdd;fill-opacity:1;stroke:none"><path
       inkscape:connector-curvature="0"
       id="path3785"
       d="m 22.3,87.7 55.3,0 c 3.3,0 6,-2.7 6,-6 l 0,-55.9 c 0,-3.3 -2.7,-6 -6,-6 l -10.5,0 0,-5.5 c 0,-1.1 -0.9,-2 -2,-2 -1.1,0 -2,0.9 -2,2 l 0,5.5 -26.2,0 0,-5.5 c 0,-1.1 -0.9,-2 -2,-2 -1.1,0 -2,0.9 -2,2 l 0,5.5 -10.6,0 c -3.3,0 -6,2.7 -6,6 l 0,55.8 c 0,3.4 2.7,6.1 6,6.1 z m 55.4,-4 -55.4,0 c -1.1,0 -2,-0.9 -2,-2 l 0,-35.8 59.3,0 0,35.7 c 0.1,1.2 -0.8,2.1 -1.9,2.1 z m -55.4,-59.9 10.6,0 0,7.5 c 0,1.1 0.9,2 2,2 1.1,0 2,-0.9 2,-2 l 0,-7.5 26.2,0 0,7.5 c 0,1.1 0.9,2 2,2 1.1,0 2,-0.9 2,-2 l 0,-7.5 10.6,0 c 1.1,0 2,0.9 2,2 l 0,16.1 -59.4,0 0,-16.1 c 0,-1.1 0.9,-2 2,-2 z"
       style="fill:#41acdd;fill-opacity:1;stroke:none" /></g><g
     style="fill:#41acdd;fill-opacity:1;stroke:none"
     id="g3787"
     transform="matrix(0.10038843,0,0,0.10038843,64.60652,18.436548)"><path
       style="fill:#41acdd;fill-opacity:1;stroke:none"
       d="m 22.3,87.7 55.3,0 c 3.3,0 6,-2.7 6,-6 l 0,-55.9 c 0,-3.3 -2.7,-6 -6,-6 l -10.5,0 0,-5.5 c 0,-1.1 -0.9,-2 -2,-2 -1.1,0 -2,0.9 -2,2 l 0,5.5 -26.2,0 0,-5.5 c 0,-1.1 -0.9,-2 -2,-2 -1.1,0 -2,0.9 -2,2 l 0,5.5 -10.6,0 c -3.3,0 -6,2.7 -6,6 l 0,55.8 c 0,3.4 2.7,6.1 6,6.1 z m 55.4,-4 -55.4,0 c -1.1,0 -2,-0.9 -2,-2 l 0,-35.8 59.3,0 0,35.7 c 0.1,1.2 -0.8,2.1 -1.9,2.1 z m -55.4,-59.9 10.6,0 0,7.5 c 0,1.1 0.9,2 2,2 1.1,0 2,-0.9 2,-2 l 0,-7.5 26.2,0 0,7.5 c 0,1.1 0.9,2 2,2 1.1,0 2,-0.9 2,-2 l 0,-7.5 10.6,0 c 1.1,0 2,0.9 2,2 l 0,16.1 -59.4,0 0,-16.1 c 0,-1.1 0.9,-2 2,-2 z"
       id="path3789"
       inkscape:connector-curvature="0" /></g><g
     style="fill:#41acdd;fill-opacity:1;stroke:none"
     id="g3795"
     transform="matrix(0.10038843,0,0,0.10038843,44.90708,49.506798)"><path
       style="fill:#41acdd;fill-opacity:1;stroke:none"
       d="m 22.3,87.7 55.3,0 c 3.3,0 6,-2.7 6,-6 l 0,-55.9 c 0,-3.3 -2.7,-6 -6,-6 l -10.5,0 0,-5.5 c 0,-1.1 -0.9,-2 -2,-2 -1.1,0 -2,0.9 -2,2 l 0,5.5 -26.2,0 0,-5.5 c 0,-1.1 -0.9,-2 -2,-2 -1.1,0 -2,0.9 -2,2 l 0,5.5 -10.6,0 c -3.3,0 -6,2.7 -6,6 l 0,55.8 c 0,3.4 2.7,6.1 6,6.1 z m 55.4,-4 -55.4,0 c -1.1,0 -2,-0.9 -2,-2 l 0,-35.8 59.3,0 0,35.7 c 0.1,1.2 -0.8,2.1 -1.9,2.1 z m -55.4,-59.9 10.6,0 0,7.5 c 0,1.1 0.9,2 2,2 1.1,0 2,-0.9 2,-2 l 0,-7.5 26.2,0 0,7.5 c 0,1.1 0.9,2 2,2 1.1,0 2,-0.9 2,-2 l 0,-7.5 10.6,0 c 1.1,0 2,0.9 2,2 l 0,16.1 -59.4,0 0,-16.1 c 0,-1.1 0.9,-2 2,-2 z"
       id="path3797"
       inkscape:connector-curvature="0" /></g><path
     sodipodi:type="arc"
     style="fill:#41acdd;fill-opacity:1;stroke:none"
     id="path5351"
     sodipodi:cx="-237.91821"
     sodipodi:cy="-52.151222"
     sodipodi:rx="2.0598979"
     sodipodi:ry="2.0598979"
     d="m -235.85831,-52.151222 a 2.0598979,2.0598979 0 1 1 -4.1198,0 2.0598979,2.0598979 0 1 1 4.1198,0 z"
     transform="matrix(0.18831663,0,0,0.18831663,78.66946,52.557588)" /><g
     id="g5355"
     transform="matrix(0.18831663,0,0,0.18831663,87.37987,47.532348)"><path
       transform="translate(-2.5080929e-7,-0.37452681)"
       d="m -235.85831,-52.151222 c 0,1.13765 -0.92225,2.059898 -2.0599,2.059898 -1.13765,0 -2.0599,-0.922248 -2.0599,-2.059898 0,-1.13765 0.92225,-2.059898 2.0599,-2.059898 1.13765,0 2.0599,0.922248 2.0599,2.059898 z"
       sodipodi:ry="2.0598979"
       sodipodi:rx="2.0598979"
       sodipodi:cy="-52.151222"
       sodipodi:cx="-237.91821"
       id="path5341"
       style="fill:#41acdd;fill-opacity:1;stroke:none"
       sodipodi:type="arc" /><path
       sodipodi:type="arc"
       style="fill:#41acdd;fill-opacity:1;stroke:none"
       id="path5345"
       sodipodi:cx="-237.91821"
       sodipodi:cy="-52.151222"
       sodipodi:rx="2.0598979"
       sodipodi:ry="2.0598979"
       d="m -235.85831,-52.151222 c 0,1.13765 -0.92225,2.059898 -2.0599,2.059898 -1.13765,0 -2.0599,-0.922248 -2.0599,-2.059898 0,-1.13765 0.92225,-2.059898 2.0599,-2.059898 1.13765,0 2.0599,0.922248 2.0599,2.059898 z"
       transform="translate(-11.235807,6.2733256)" /><path
       transform="translate(-23.033404,13.108441)"
       d="m -235.85831,-52.151222 c 0,1.13765 -0.92225,2.059898 -2.0599,2.059898 -1.13765,0 -2.0599,-0.922248 -2.0599,-2.059898 0,-1.13765 0.92225,-2.059898 2.0599,-2.059898 1.13765,0 2.0599,0.922248 2.0599,2.059898 z"
       sodipodi:ry="2.0598979"
       sodipodi:rx="2.0598979"
       sodipodi:cy="-52.151222"
       sodipodi:cx="-237.91821"
       id="path5347"
       style="fill:#41acdd;fill-opacity:1;stroke:none"
       sodipodi:type="arc" /><path
       sodipodi:type="arc"
       style="fill:#41acdd;fill-opacity:1;stroke:none"
       id="path5349"
       sodipodi:cx="-237.91821"
       sodipodi:cy="-52.151222"
       sodipodi:rx="2.0598979"
       sodipodi:ry="2.0598979"
       d="m -235.85831,-52.151222 c 0,1.13765 -0.92225,2.059898 -2.0599,2.059898 -1.13765,0 -2.0599,-0.922248 -2.0599,-2.059898 0,-1.13765 0.92225,-2.059898 2.0599,-2.059898 1.13765,0 2.0599,0.922248 2.0599,2.059898 z"
       transform="translate(-34.269211,20.037189)" /><path
       sodipodi:type="arc"
       style="fill:#41acdd;fill-opacity:1;stroke:none"
       id="path5353"
       sodipodi:cx="-237.91821"
       sodipodi:cy="-52.151222"
       sodipodi:rx="2.0598979"
       sodipodi:ry="2.0598979"
       d="m -235.85831,-52.151222 c 0,1.13765 -0.92225,2.059898 -2.0599,2.059898 -1.13765,0 -2.0599,-0.922248 -2.0599,-2.059898 0,-1.13765 0.92225,-2.059898 2.0599,-2.059898 1.13765,0 2.0599,0.922248 2.0599,2.059898 z"
       transform="translate(-46.254072,26.685041)" /></g><g
     id="g5362"
     transform="matrix(0.09415832,-0.16308699,0.16308699,0.09415832,80.92272,7.7056678)"><path
       sodipodi:type="arc"
       style="fill:#41acdd;fill-opacity:1;stroke:none"
       id="path5364"
       sodipodi:cx="-237.91821"
       sodipodi:cy="-52.151222"
       sodipodi:rx="2.0598979"
       sodipodi:ry="2.0598979"
       d="m -235.85831,-52.151222 c 0,1.13765 -0.92225,2.059898 -2.0599,2.059898 -1.13765,0 -2.0599,-0.922248 -2.0599,-2.059898 0,-1.13765 0.92225,-2.059898 2.0599,-2.059898 1.13765,0 2.0599,0.922248 2.0599,2.059898 z"
       transform="translate(-2.5080929e-7,-0.37452681)" /><path
       transform="translate(-11.235807,6.2733256)"
       d="m -235.85831,-52.151222 c 0,1.13765 -0.92225,2.059898 -2.0599,2.059898 -1.13765,0 -2.0599,-0.922248 -2.0599,-2.059898 0,-1.13765 0.92225,-2.059898 2.0599,-2.059898 1.13765,0 2.0599,0.922248 2.0599,2.059898 z"
       sodipodi:ry="2.0598979"
       sodipodi:rx="2.0598979"
       sodipodi:cy="-52.151222"
       sodipodi:cx="-237.91821"
       id="path5366"
       style="fill:#41acdd;fill-opacity:1;stroke:none"
       sodipodi:type="arc" /><path
       sodipodi:type="arc"
       style="fill:#41acdd;fill-opacity:1;stroke:none"
       id="path5368"
       sodipodi:cx="-237.91821"
       sodipodi:cy="-52.151222"
       sodipodi:rx="2.0598979"
       sodipodi:ry="2.0598979"
       d="m -235.85831,-52.151222 c 0,1.13765 -0.92225,2.059898 -2.0599,2.059898 -1.13765,0 -2.0599,-0.922248 -2.0599,-2.059898 0,-1.13765 0.92225,-2.059898 2.0599,-2.059898 1.13765,0 2.0599,0.922248 2.0599,2.059898 z"
       transform="translate(-23.033404,13.108441)" /><path
       transform="translate(-34.269211,20.037189)"
       d="m -235.85831,-52.151222 c 0,1.13765 -0.92225,2.059898 -2.0599,2.059898 -1.13765,0 -2.0599,-0.922248 -2.0599,-2.059898 0,-1.13765 0.92225,-2.059898 2.0599,-2.059898 1.13765,0 2.0599,0.922248 2.0599,2.059898 z"
       sodipodi:ry="2.0598979"
       sodipodi:rx="2.0598979"
       sodipodi:cy="-52.151222"
       sodipodi:cx="-237.91821"
       id="path5370"
       style="fill:#41acdd;fill-opacity:1;stroke:none"
       sodipodi:type="arc" /><path
       transform="translate(-46.254072,26.685041)"
       d="m -235.85831,-52.151222 c 0,1.13765 -0.92225,2.059898 -2.0599,2.059898 -1.13765,0 -2.0599,-0.922248 -2.0599,-2.059898 0,-1.13765 0.92225,-2.059898 2.0599,-2.059898 1.13765,0 2.0599,0.922248 2.0599,2.059898 z"
       sodipodi:ry="2.0598979"
       sodipodi:rx="2.0598979"
       sodipodi:cy="-52.151222"
       sodipodi:cx="-237.91821"
       id="path5372"
       style="fill:#41acdd;fill-opacity:1;stroke:none"
       sodipodi:type="arc" /></g><g
     transform="matrix(-0.09415832,-0.16308699,0.16308699,-0.09415832,43.55309,-6.0016722)"
     id="g5374"
     inkscape:transform-center-x="2.6448568"
     inkscape:transform-center-y="1.6574429"><path
       transform="translate(-2.5080929e-7,-0.37452681)"
       d="m -235.85831,-52.151222 c 0,1.13765 -0.92225,2.059898 -2.0599,2.059898 -1.13765,0 -2.0599,-0.922248 -2.0599,-2.059898 0,-1.13765 0.92225,-2.059898 2.0599,-2.059898 1.13765,0 2.0599,0.922248 2.0599,2.059898 z"
       sodipodi:ry="2.0598979"
       sodipodi:rx="2.0598979"
       sodipodi:cy="-52.151222"
       sodipodi:cx="-237.91821"
       id="path5376"
       style="fill:#41acdd;fill-opacity:1;stroke:none"
       sodipodi:type="arc" /><path
       sodipodi:type="arc"
       style="fill:#41acdd;fill-opacity:1;stroke:none"
       id="path5378"
       sodipodi:cx="-237.91821"
       sodipodi:cy="-52.151222"
       sodipodi:rx="2.0598979"
       sodipodi:ry="2.0598979"
       d="m -235.85831,-52.151222 c 0,1.13765 -0.92225,2.059898 -2.0599,2.059898 -1.13765,0 -2.0599,-0.922248 -2.0599,-2.059898 0,-1.13765 0.92225,-2.059898 2.0599,-2.059898 1.13765,0 2.0599,0.922248 2.0599,2.059898 z"
       transform="translate(-11.235807,6.2733256)" /><path
       transform="translate(-23.033404,13.108441)"
       d="m -235.85831,-52.151222 c 0,1.13765 -0.92225,2.059898 -2.0599,2.059898 -1.13765,0 -2.0599,-0.922248 -2.0599,-2.059898 0,-1.13765 0.92225,-2.059898 2.0599,-2.059898 1.13765,0 2.0599,0.922248 2.0599,2.059898 z"
       sodipodi:ry="2.0598979"
       sodipodi:rx="2.0598979"
       sodipodi:cy="-52.151222"
       sodipodi:cx="-237.91821"
       id="path5380"
       style="fill:#41acdd;fill-opacity:1;stroke:none"
       sodipodi:type="arc" /><path
       sodipodi:type="arc"
       style="fill:#41acdd;fill-opacity:1;stroke:none"
       id="path5382"
       sodipodi:cx="-237.91821"
       sodipodi:cy="-52.151222"
       sodipodi:rx="2.0598979"
       sodipodi:ry="2.0598979"
       d="m -235.85831,-52.151222 c 0,1.13765 -0.92225,2.059898 -2.0599,2.059898 -1.13765,0 -2.0599,-0.922248 -2.0599,-2.059898 0,-1.13765 0.92225,-2.059898 2.0599,-2.059898 1.13765,0 2.0599,0.922248 2.0599,2.059898 z"
       transform="translate(-34.269211,20.037189)" /><path
       sodipodi:type="arc"
       style="fill:#41acdd;fill-opacity:1;stroke:none"
       id="path5384"
       sodipodi:cx="-237.91821"
       sodipodi:cy="-52.151222"
       sodipodi:rx="2.0598979"
       sodipodi:ry="2.0598979"
       d="m -235.85831,-52.151222 c 0,1.13765 -0.92225,2.059898 -2.0599,2.059898 -1.13765,0 -2.0599,-0.922248 -2.0599,-2.059898 0,-1.13765 0.92225,-2.059898 2.0599,-2.059898 1.13765,0 2.0599,0.922248 2.0599,2.059898 z"
       transform="translate(-46.254072,26.685041)" /></g><g
     inkscape:transform-center-y="3.1192396"
     inkscape:transform-center-x="-0.11295946"
     id="g5386"
     transform="matrix(-0.18831663,0,0,-0.18831663,12.6562,18.809628)"><path
       sodipodi:type="arc"
       style="fill:#41acdd;fill-opacity:1;stroke:none"
       id="path5388"
       sodipodi:cx="-237.91821"
       sodipodi:cy="-52.151222"
       sodipodi:rx="2.0598979"
       sodipodi:ry="2.0598979"
       d="m -235.85831,-52.151222 c 0,1.13765 -0.92225,2.059898 -2.0599,2.059898 -1.13765,0 -2.0599,-0.922248 -2.0599,-2.059898 0,-1.13765 0.92225,-2.059898 2.0599,-2.059898 1.13765,0 2.0599,0.922248 2.0599,2.059898 z"
       transform="translate(-2.5080929e-7,-0.37452681)" /><path
       transform="translate(-11.235807,6.2733256)"
       d="m -235.85831,-52.151222 c 0,1.13765 -0.92225,2.059898 -2.0599,2.059898 -1.13765,0 -2.0599,-0.922248 -2.0599,-2.059898 0,-1.13765 0.92225,-2.059898 2.0599,-2.059898 1.13765,0 2.0599,0.922248 2.0599,2.059898 z"
       sodipodi:ry="2.0598979"
       sodipodi:rx="2.0598979"
       sodipodi:cy="-52.151222"
       sodipodi:cx="-237.91821"
       id="path5390"
       style="fill:#41acdd;fill-opacity:1;stroke:none"
       sodipodi:type="arc" /><path
       sodipodi:type="arc"
       style="fill:#41acdd;fill-opacity:1;stroke:none"
       id="path5392"
       sodipodi:cx="-237.91821"
       sodipodi:cy="-52.151222"
       sodipodi:rx="2.0598979"
       sodipodi:ry="2.0598979"
       d="m -235.85831,-52.151222 c 0,1.13765 -0.92225,2.059898 -2.0599,2.059898 -1.13765,0 -2.0599,-0.922248 -2.0599,-2.059898 0,-1.13765 0.92225,-2.059898 2.0599,-2.059898 1.13765,0 2.0599,0.922248 2.0599,2.059898 z"
       transform="translate(-23.033404,13.108441)" /><path
       transform="translate(-34.269211,20.037189)"
       d="m -235.85831,-52.151222 c 0,1.13765 -0.92225,2.059898 -2.0599,2.059898 -1.13765,0 -2.0599,-0.922248 -2.0599,-2.059898 0,-1.13765 0.92225,-2.059898 2.0599,-2.059898 1.13765,0 2.0599,0.922248 2.0599,2.059898 z"
       sodipodi:ry="2.0598979"
       sodipodi:rx="2.0598979"
       sodipodi:cy="-52.151222"
       sodipodi:cx="-237.91821"
       id="path5394"
       style="fill:#41acdd;fill-opacity:1;stroke:none"
       sodipodi:type="arc" /><path
       transform="translate(-46.254072,26.685041)"
       d="m -235.85831,-52.151222 c 0,1.13765 -0.92225,2.059898 -2.0599,2.059898 -1.13765,0 -2.0599,-0.922248 -2.0599,-2.059898 0,-1.13765 0.92225,-2.059898 2.0599,-2.059898 1.13765,0 2.0599,0.922248 2.0599,2.059898 z"
       sodipodi:ry="2.0598979"
       sodipodi:rx="2.0598979"
       sodipodi:cy="-52.151222"
       sodipodi:cx="-237.91821"
       id="path5396"
       style="fill:#41acdd;fill-opacity:1;stroke:none"
       sodipodi:type="arc" /></g><g
     transform="matrix(-0.09415832,0.16308699,-0.16308699,-0.09415832,18.95654,60.646408)"
     id="g5398"
     inkscape:transform-center-x="-2.7356793"
     inkscape:transform-center-y="1.4617973"><path
       transform="translate(-2.5080929e-7,-0.37452681)"
       d="m -235.85831,-52.151222 c 0,1.13765 -0.92225,2.059898 -2.0599,2.059898 -1.13765,0 -2.0599,-0.922248 -2.0599,-2.059898 0,-1.13765 0.92225,-2.059898 2.0599,-2.059898 1.13765,0 2.0599,0.922248 2.0599,2.059898 z"
       sodipodi:ry="2.0598979"
       sodipodi:rx="2.0598979"
       sodipodi:cy="-52.151222"
       sodipodi:cx="-237.91821"
       id="path5400"
       style="fill:#41acdd;fill-opacity:1;stroke:none"
       sodipodi:type="arc" /><path
       sodipodi:type="arc"
       style="fill:#41acdd;fill-opacity:1;stroke:none"
       id="path5402"
       sodipodi:cx="-237.91821"
       sodipodi:cy="-52.151222"
       sodipodi:rx="2.0598979"
       sodipodi:ry="2.0598979"
       d="m -235.85831,-52.151222 c 0,1.13765 -0.92225,2.059898 -2.0599,2.059898 -1.13765,0 -2.0599,-0.922248 -2.0599,-2.059898 0,-1.13765 0.92225,-2.059898 2.0599,-2.059898 1.13765,0 2.0599,0.922248 2.0599,2.059898 z"
       transform="translate(-11.235807,6.2733256)" /><path
       transform="translate(-23.033404,13.108441)"
       d="m -235.85831,-52.151222 c 0,1.13765 -0.92225,2.059898 -2.0599,2.059898 -1.13765,0 -2.0599,-0.922248 -2.0599,-2.059898 0,-1.13765 0.92225,-2.059898 2.0599,-2.059898 1.13765,0 2.0599,0.922248 2.0599,2.059898 z"
       sodipodi:ry="2.0598979"
       sodipodi:rx="2.0598979"
       sodipodi:cy="-52.151222"
       sodipodi:cx="-237.91821"
       id="path5404"
       style="fill:#41acdd;fill-opacity:1;stroke:none"
       sodipodi:type="arc" /><path
       sodipodi:type="arc"
       style="fill:#41acdd;fill-opacity:1;stroke:none"
       id="path5406"
       sodipodi:cx="-237.91821"
       sodipodi:cy="-52.151222"
       sodipodi:rx="2.0598979"
       sodipodi:ry="2.0598979"
       d="m -235.85831,-52.151222 c 0,1.13765 -0.92225,2.059898 -2.0599,2.059898 -1.13765,0 -2.0599,-0.922248 -2.0599,-2.059898 0,-1.13765 0.92225,-2.059898 2.0599,-2.059898 1.13765,0 2.0599,0.922248 2.0599,2.059898 z"
       transform="translate(-34.269211,20.037189)" /><path
       sodipodi:type="arc"
       style="fill:#41acdd;fill-opacity:1;stroke:none"
       id="path5408"
       sodipodi:cx="-237.91821"
       sodipodi:cy="-52.151222"
       sodipodi:rx="2.0598979"
       sodipodi:ry="2.0598979"
       d="m -235.85831,-52.151222 c 0,1.13765 -0.92225,2.059898 -2.0599,2.059898 -1.13765,0 -2.0599,-0.922248 -2.0599,-2.059898 0,-1.13765 0.92225,-2.059898 2.0599,-2.059898 1.13765,0 2.0599,0.922248 2.0599,2.059898 z"
       transform="translate(-46.254072,26.685041)" /></g><g
     inkscape:transform-center-y="1.6574473"
     inkscape:transform-center-x="2.6448586"
     id="g5410"
     transform="matrix(-0.09415832,-0.16308699,0.16308699,-0.09415832,20.10198,-19.931272)"><path
       sodipodi:type="arc"
       style="fill:#41acdd;fill-opacity:1;stroke:none"
       id="path5412"
       sodipodi:cx="-237.91821"
       sodipodi:cy="-52.151222"
       sodipodi:rx="2.0598979"
       sodipodi:ry="2.0598979"
       d="m -235.85831,-52.151222 c 0,1.13765 -0.92225,2.059898 -2.0599,2.059898 -1.13765,0 -2.0599,-0.922248 -2.0599,-2.059898 0,-1.13765 0.92225,-2.059898 2.0599,-2.059898 1.13765,0 2.0599,0.922248 2.0599,2.059898 z"
       transform="translate(-2.5080929e-7,-0.37452681)" /><path
       transform="translate(-11.235807,6.2733256)"
       d="m -235.85831,-52.151222 c 0,1.13765 -0.92225,2.059898 -2.0599,2.059898 -1.13765,0 -2.0599,-0.922248 -2.0599,-2.059898 0,-1.13765 0.92225,-2.059898 2.0599,-2.059898 1.13765,0 2.0599,0.922248 2.0599,2.059898 z"
       sodipodi:ry="2.0598979"
       sodipodi:rx="2.0598979"
       sodipodi:cy="-52.151222"
       sodipodi:cx="-237.91821"
       id="path5414"
       style="fill:#41acdd;fill-opacity:1;stroke:none"
       sodipodi:type="arc" /><path
       sodipodi:type="arc"
       style="fill:#41acdd;fill-opacity:1;stroke:none"
       id="path5416"
       sodipodi:cx="-237.91821"
       sodipodi:cy="-52.151222"
       sodipodi:rx="2.0598979"
       sodipodi:ry="2.0598979"
       d="m -235.85831,-52.151222 c 0,1.13765 -0.92225,2.059898 -2.0599,2.059898 -1.13765,0 -2.0599,-0.922248 -2.0599,-2.059898 0,-1.13765 0.92225,-2.059898 2.0599,-2.059898 1.13765,0 2.0599,0.922248 2.0599,2.059898 z"
       transform="translate(-23.033404,13.108441)" /><path
       transform="translate(-34.269211,20.037189)"
       d="m -235.85831,-52.151222 c 0,1.13765 -0.92225,2.059898 -2.0599,2.059898 -1.13765,0 -2.0599,-0.922248 -2.0599,-2.059898 0,-1.13765 0.92225,-2.059898 2.0599,-2.059898 1.13765,0 2.0599,0.922248 2.0599,2.059898 z"
       sodipodi:ry="2.0598979"
       sodipodi:rx="2.0598979"
       sodipodi:cy="-52.151222"
       sodipodi:cx="-237.91821"
       id="path5418"
       style="fill:#41acdd;fill-opacity:1;stroke:none"
       sodipodi:type="arc" /><path
       transform="translate(-46.254072,26.685041)"
       d="m -235.85831,-52.151222 c 0,1.13765 -0.92225,2.059898 -2.0599,2.059898 -1.13765,0 -2.0599,-0.922248 -2.0599,-2.059898 0,-1.13765 0.92225,-2.059898 2.0599,-2.059898 1.13765,0 2.0599,0.922248 2.0599,2.059898 z"
       sodipodi:ry="2.0598979"
       sodipodi:rx="2.0598979"
       sodipodi:cy="-52.151222"
       sodipodi:cx="-237.91821"
       id="path5420"
       style="fill:#41acdd;fill-opacity:1;stroke:none"
       sodipodi:type="arc" /></g><g
     id="g3140"
     inkscape:export-xdpi="703.31335"
     inkscape:export-ydpi="703.31335"
     transform="translate(0,-4.307059)"><g
       transform="matrix(0.10038843,0,0,0.10038843,44.90708,77.512387)"
       id="g3052"
       style="fill:#41acdd;fill-opacity:1;stroke:none"><path
         inkscape:connector-curvature="0"
         id="path3054"
         d="m 22.3,87.7 55.3,0 c 3.3,0 6,-2.7 6,-6 l 0,-55.9 c 0,-3.3 -2.7,-6 -6,-6 l -10.5,0 0,-5.5 c 0,-1.1 -0.9,-2 -2,-2 -1.1,0 -2,0.9 -2,2 l 0,5.5 -26.2,0 0,-5.5 c 0,-1.1 -0.9,-2 -2,-2 -1.1,0 -2,0.9 -2,2 l 0,5.5 -10.6,0 c -3.3,0 -6,2.7 -6,6 l 0,55.8 c 0,3.4 2.7,6.1 6,6.1 z m 55.4,-4 -55.4,0 c -1.1,0 -2,-0.9 -2,-2 l 0,-35.8 59.3,0 0,35.7 c 0.1,1.2 -0.8,2.1 -1.9,2.1 z m -55.4,-59.9 10.6,0 0,7.5 c 0,1.1 0.9,2 2,2 1.1,0 2,-0.9 2,-2 l 0,-7.5 26.2,0 0,7.5 c 0,1.1 0.9,2 2,2 1.1,0 2,-0.9 2,-2 l 0,-7.5 10.6,0 c 1.1,0 2,0.9 2,2 l 0,16.1 -59.4,0 0,-16.1 c 0,-1.1 0.9,-2 2,-2 z"
         style="fill:#41acdd;fill-opacity:1;stroke:none" /></g><g
       inkscape:transform-center-y="3.1192396"
       inkscape:transform-center-x="-0.11295946"
       id="g3056"
       transform="matrix(-0.18831663,0,0,-0.18831663,-7.3385034,82.36895)"><path
         sodipodi:type="arc"
         style="fill:#41acdd;fill-opacity:1;stroke:none"
         id="path3058"
         sodipodi:cx="-237.91821"
         sodipodi:cy="-52.151222"
         sodipodi:rx="2.0598979"
         sodipodi:ry="2.0598979"
         d="m -235.85831,-52.151222 c 0,1.13765 -0.92225,2.059898 -2.0599,2.059898 -1.13765,0 -2.0599,-0.922248 -2.0599,-2.059898 0,-1.13765 0.92225,-2.059898 2.0599,-2.059898 1.13765,0 2.0599,0.922248 2.0599,2.059898 z"
         transform="translate(-2.5080929e-7,-0.37452681)" /><path
         transform="translate(-11.235807,6.2733256)"
         d="m -235.85831,-52.151222 c 0,1.13765 -0.92225,2.059898 -2.0599,2.059898 -1.13765,0 -2.0599,-0.922248 -2.0599,-2.059898 0,-1.13765 0.92225,-2.059898 2.0599,-2.059898 1.13765,0 2.0599,0.922248 2.0599,2.059898 z"
         sodipodi:ry="2.0598979"
         sodipodi:rx="2.0598979"
         sodipodi:cy="-52.151222"
         sodipodi:cx="-237.91821"
         id="path3060"
         style="fill:#41acdd;fill-opacity:1;stroke:none"
         sodipodi:type="arc" /><path
         sodipodi:type="arc"
         style="fill:#41acdd;fill-opacity:1;stroke:none"
         id="path3062"
         sodipodi:cx="-237.91821"
         sodipodi:cy="-52.151222"
         sodipodi:rx="2.0598979"
         sodipodi:ry="2.0598979"
         d="m -235.85831,-52.151222 c 0,1.13765 -0.92225,2.059898 -2.0599,2.059898 -1.13765,0 -2.0599,-0.922248 -2.0599,-2.059898 0,-1.13765 0.92225,-2.059898 2.0599,-2.059898 1.13765,0 2.0599,0.922248 2.0599,2.059898 z"
         transform="translate(-23.033404,13.108441)" /><path
         transform="translate(-34.269211,20.037189)"
         d="m -235.85831,-52.151222 c 0,1.13765 -0.92225,2.059898 -2.0599,2.059898 -1.13765,0 -2.0599,-0.922248 -2.0599,-2.059898 0,-1.13765 0.92225,-2.059898 2.0599,-2.059898 1.13765,0 2.0599,0.922248 2.0599,2.059898 z"
         sodipodi:ry="2.0598979"
         sodipodi:rx="2.0598979"
         sodipodi:cy="-52.151222"
         sodipodi:cx="-237.91821"
         id="path3064"
         style="fill:#41acdd;fill-opacity:1;stroke:none"
         sodipodi:type="arc" /><path
         transform="translate(-46.254072,26.685041)"
         d="m -235.85831,-52.151222 c 0,1.13765 -0.92225,2.059898 -2.0599,2.059898 -1.13765,0 -2.0599,-0.922248 -2.0599,-2.059898 0,-1.13765 0.92225,-2.059898 2.0599,-2.059898 1.13765,0 2.0599,0.922248 2.0599,2.059898 z"
         sodipodi:ry="2.0598979"
         sodipodi:rx="2.0598979"
         sodipodi:cy="-52.151222"
         sodipodi:cx="-237.91821"
         id="path3066"
         style="fill:#41acdd;fill-opacity:1;stroke:none"
         sodipodi:type="arc" /></g><g
       transform="matrix(-0.17780987,0.06202259,-0.06202259,-0.17780987,-16.58659,108.22583)"
       id="g3080"
       inkscape:transform-center-x="-1.1339854"
       inkscape:transform-center-y="2.9080049"><path
         transform="translate(-2.5080929e-7,-0.37452681)"
         d="m -235.85831,-52.151222 c 0,1.13765 -0.92225,2.059898 -2.0599,2.059898 -1.13765,0 -2.0599,-0.922248 -2.0599,-2.059898 0,-1.13765 0.92225,-2.059898 2.0599,-2.059898 1.13765,0 2.0599,0.922248 2.0599,2.059898 z"
         sodipodi:ry="2.0598979"
         sodipodi:rx="2.0598979"
         sodipodi:cy="-52.151222"
         sodipodi:cx="-237.91821"
         id="path3082"
         style="fill:#41acdd;fill-opacity:1;stroke:none"
         sodipodi:type="arc" /><path
         sodipodi:type="arc"
         style="fill:#41acdd;fill-opacity:1;stroke:none"
         id="path3084"
         sodipodi:cx="-237.91821"
         sodipodi:cy="-52.151222"
         sodipodi:rx="2.0598979"
         sodipodi:ry="2.0598979"
         d="m -235.85831,-52.151222 c 0,1.13765 -0.92225,2.059898 -2.0599,2.059898 -1.13765,0 -2.0599,-0.922248 -2.0599,-2.059898 0,-1.13765 0.92225,-2.059898 2.0599,-2.059898 1.13765,0 2.0599,0.922248 2.0599,2.059898 z"
         transform="translate(-11.235807,6.2733256)" /><path
         transform="translate(-23.033404,13.108441)"
         d="m -235.85831,-52.151222 c 0,1.13765 -0.92225,2.059898 -2.0599,2.059898 -1.13765,0 -2.0599,-0.922248 -2.0599,-2.059898 0,-1.13765 0.92225,-2.059898 2.0599,-2.059898 1.13765,0 2.0599,0.922248 2.0599,2.059898 z"
         sodipodi:ry="2.0598979"
         sodipodi:rx="2.0598979"
         sodipodi:cy="-52.151222"
         sodipodi:cx="-237.91821"
         id="path3086"
         style="fill:#41acdd;fill-opacity:1;stroke:none"
         sodipodi:type="arc" /><path
         sodipodi:type="arc"
         style="fill:#41acdd;fill-opacity:1;stroke:none"
         id="path3088"
         sodipodi:cx="-237.91821"
         sodipodi:cy="-52.151222"
         sodipodi:rx="2.0598979"
         sodipodi:ry="2.0598979"
         d="m -235.85831,-52.151222 c 0,1.13765 -0.92225,2.059898 -2.0599,2.059898 -1.13765,0 -2.0599,-0.922248 -2.0599,-2.059898 0,-1.13765 0.92225,-2.059898 2.0599,-2.059898 1.13765,0 2.0599,0.922248 2.0599,2.059898 z"
         transform="translate(-34.269211,20.037189)" /><path
         sodipodi:type="arc"
         style="fill:#41acdd;fill-opacity:1;stroke:none"
         id="path3090"
         sodipodi:cx="-237.91821"
         sodipodi:cy="-52.151222"
         sodipodi:rx="2.0598979"
         sodipodi:ry="2.0598979"
         d="m -235.85831,-52.151222 c 0,1.13765 -0.92225,2.059898 -2.0599,2.059898 -1.13765,0 -2.0599,-0.922248 -2.0599,-2.059898 0,-1.13765 0.92225,-2.059898 2.0599,-2.059898 1.13765,0 2.0599,0.922248 2.0599,2.059898 z"
         transform="translate(-46.254072,26.685041)" /></g><g
       style="fill:#41acdd;fill-opacity:1;stroke:none"
       id="g3092"
       transform="matrix(0.10038843,0,0,0.10038843,23.999136,101.34663)"><path
         style="fill:#41acdd;fill-opacity:1;stroke:none"
         d="m 22.3,87.7 55.3,0 c 3.3,0 6,-2.7 6,-6 l 0,-55.9 c 0,-3.3 -2.7,-6 -6,-6 l -10.5,0 0,-5.5 c 0,-1.1 -0.9,-2 -2,-2 -1.1,0 -2,0.9 -2,2 l 0,5.5 -26.2,0 0,-5.5 c 0,-1.1 -0.9,-2 -2,-2 -1.1,0 -2,0.9 -2,2 l 0,5.5 -10.6,0 c -3.3,0 -6,2.7 -6,6 l 0,55.8 c 0,3.4 2.7,6.1 6,6.1 z m 55.4,-4 -55.4,0 c -1.1,0 -2,-0.9 -2,-2 l 0,-35.8 59.3,0 0,35.7 c 0.1,1.2 -0.8,2.1 -1.9,2.1 z m -55.4,-59.9 10.6,0 0,7.5 c 0,1.1 0.9,2 2,2 1.1,0 2,-0.9 2,-2 l 0,-7.5 26.2,0 0,7.5 c 0,1.1 0.9,2 2,2 1.1,0 2,-0.9 2,-2 l 0,-7.5 10.6,0 c 1.1,0 2,0.9 2,2 l 0,16.1 -59.4,0 0,-16.1 c 0,-1.1 0.9,-2 2,-2 z"
         id="path3094"
         inkscape:connector-curvature="0" /></g><g
       transform="matrix(0.00680201,0.18819374,-0.18819374,0.00680201,50.645372,140.65945)"
       id="g3100"
       inkscape:transform-center-x="-3.113125"
       inkscape:transform-center-y="-0.22555181"><path
         transform="translate(-2.5080929e-7,-0.37452681)"
         d="m -235.85831,-52.151222 c 0,1.13765 -0.92225,2.059898 -2.0599,2.059898 -1.13765,0 -2.0599,-0.922248 -2.0599,-2.059898 0,-1.13765 0.92225,-2.059898 2.0599,-2.059898 1.13765,0 2.0599,0.922248 2.0599,2.059898 z"
         sodipodi:ry="2.0598979"
         sodipodi:rx="2.0598979"
         sodipodi:cy="-52.151222"
         sodipodi:cx="-237.91821"
         id="path3102"
         style="fill:#41acdd;fill-opacity:1;stroke:none"
         sodipodi:type="arc" /><path
         sodipodi:type="arc"
         style="fill:#41acdd;fill-opacity:1;stroke:none"
         id="path3104"
         sodipodi:cx="-237.91821"
         sodipodi:cy="-52.151222"
         sodipodi:rx="2.0598979"
         sodipodi:ry="2.0598979"
         d="m -235.85831,-52.151222 c 0,1.13765 -0.92225,2.059898 -2.0599,2.059898 -1.13765,0 -2.0599,-0.922248 -2.0599,-2.059898 0,-1.13765 0.92225,-2.059898 2.0599,-2.059898 1.13765,0 2.0599,0.922248 2.0599,2.059898 z"
         transform="translate(-11.235807,6.2733256)" /><path
         transform="translate(-23.033404,13.108441)"
         d="m -235.85831,-52.151222 c 0,1.13765 -0.92225,2.059898 -2.0599,2.059898 -1.13765,0 -2.0599,-0.922248 -2.0599,-2.059898 0,-1.13765 0.92225,-2.059898 2.0599,-2.059898 1.13765,0 2.0599,0.922248 2.0599,2.059898 z"
         sodipodi:ry="2.0598979"
         sodipodi:rx="2.0598979"
         sodipodi:cy="-52.151222"
         sodipodi:cx="-237.91821"
         id="path3106"
         style="fill:#41acdd;fill-opacity:1;stroke:none"
         sodipodi:type="arc" /><path
         sodipodi:type="arc"
         style="fill:#41acdd;fill-opacity:1;stroke:none"
         id="path3108"
         sodipodi:cx="-237.91821"
         sodipodi:cy="-52.151222"
         sodipodi:rx="2.0598979"
         sodipodi:ry="2.0598979"
         d="m -235.85831,-52.151222 c 0,1.13765 -0.92225,2.059898 -2.0599,2.059898 -1.13765,0 -2.0599,-0.922248 -2.0599,-2.059898 0,-1.13765 0.92225,-2.059898 2.0599,-2.059898 1.13765,0 2.0599,0.922248 2.0599,2.059898 z"
         transform="translate(-34.269211,20.037189)" /><path
         sodipodi:type="arc"
         style="fill:#41acdd;fill-opacity:1;stroke:none"
         id="path3110"
         sodipodi:cx="-237.91821"
         sodipodi:cy="-52.151222"
         sodipodi:rx="2.0598979"
         sodipodi:ry="2.0598979"
         d="m -235.85831,-52.151222 c 0,1.13765 -0.92225,2.059898 -2.0599,2.059898 -1.13765,0 -2.0599,-0.922248 -2.0599,-2.059898 0,-1.13765 0.92225,-2.059898 2.0599,-2.059898 1.13765,0 2.0599,0.922248 2.0599,2.059898 z"
         transform="translate(-46.254072,26.685041)" /></g><rect
       style="fill:#ffffff;fill-opacity:1;stroke:none"
       id="rect3118"
       width="6.0911016"
       height="6.2235169"
       x="57.600636"
       y="97.663712" /><g
       transform="matrix(0.10038843,0,0,0.10038843,55.632715,95.396144)"
       id="g3112"
       style="fill:#41acdd;fill-opacity:1;stroke:none"><path
         inkscape:connector-curvature="0"
         id="path3114"
         d="m 22.3,87.7 55.3,0 c 3.3,0 6,-2.7 6,-6 l 0,-55.9 c 0,-3.3 -2.7,-6 -6,-6 l -10.5,0 0,-5.5 c 0,-1.1 -0.9,-2 -2,-2 -1.1,0 -2,0.9 -2,2 l 0,5.5 -26.2,0 0,-5.5 c 0,-1.1 -0.9,-2 -2,-2 -1.1,0 -2,0.9 -2,2 l 0,5.5 -10.6,0 c -3.3,0 -6,2.7 -6,6 l 0,55.8 c 0,3.4 2.7,6.1 6,6.1 z m 55.4,-4 -55.4,0 c -1.1,0 -2,-0.9 -2,-2 l 0,-35.8 59.3,0 0,35.7 c 0.1,1.2 -0.8,2.1 -1.9,2.1 z m -55.4,-59.9 10.6,0 0,7.5 c 0,1.1 0.9,2 2,2 1.1,0 2,-0.9 2,-2 l 0,-7.5 26.2,0 0,7.5 c 0,1.1 0.9,2 2,2 1.1,0 2,-0.9 2,-2 l 0,-7.5 10.6,0 c 1.1,0 2,0.9 2,2 l 0,16.1 -59.4,0 0,-16.1 c 0,-1.1 0.9,-2 2,-2 z"
         style="fill:#41acdd;fill-opacity:1;stroke:none" /></g><g
       inkscape:transform-center-y="2.9080049"
       inkscape:transform-center-x="-1.1339854"
       id="g3119"
       transform="matrix(-0.17780987,0.06202259,-0.06202259,-0.17780987,-9.3368548,108.22583)"><g
         transform="matrix(0.25881905,-0.96592583,0.96592583,0.25881905,-159.26177,-293.05401)"
         id="g3131"><path
           transform="translate(-2.5080929e-7,-0.37452681)"
           d="m -235.85831,-52.151222 c 0,1.13765 -0.92225,2.059898 -2.0599,2.059898 -1.13765,0 -2.0599,-0.922248 -2.0599,-2.059898 0,-1.13765 0.92225,-2.059898 2.0599,-2.059898 1.13765,0 2.0599,0.922248 2.0599,2.059898 z"
           sodipodi:ry="2.0598979"
           sodipodi:rx="2.0598979"
           sodipodi:cy="-52.151222"
           sodipodi:cx="-237.91821"
           id="path3121"
           style="fill:#41acdd;fill-opacity:1;stroke:none"
           sodipodi:type="arc" /><path
           sodipodi:type="arc"
           style="fill:#41acdd;fill-opacity:1;stroke:none"
           id="path3123"
           sodipodi:cx="-237.91821"
           sodipodi:cy="-52.151222"
           sodipodi:rx="2.0598979"
           sodipodi:ry="2.0598979"
           d="m -235.85831,-52.151222 c 0,1.13765 -0.92225,2.059898 -2.0599,2.059898 -1.13765,0 -2.0599,-0.922248 -2.0599,-2.059898 0,-1.13765 0.92225,-2.059898 2.0599,-2.059898 1.13765,0 2.0599,0.922248 2.0599,2.059898 z"
           transform="translate(-11.235807,6.2733256)" /><path
           transform="translate(-23.033404,13.108441)"
           d="m -235.85831,-52.151222 c 0,1.13765 -0.92225,2.059898 -2.0599,2.059898 -1.13765,0 -2.0599,-0.922248 -2.0599,-2.059898 0,-1.13765 0.92225,-2.059898 2.0599,-2.059898 1.13765,0 2.0599,0.922248 2.0599,2.059898 z"
           sodipodi:ry="2.0598979"
           sodipodi:rx="2.0598979"
           sodipodi:cy="-52.151222"
           sodipodi:cx="-237.91821"
           id="path3125"
           style="fill:#41acdd;fill-opacity:1;stroke:none"
           sodipodi:type="arc" /><path
           sodipodi:type="arc"
           style="fill:#41acdd;fill-opacity:1;stroke:none"
           id="path3127"
           sodipodi:cx="-237.91821"
           sodipodi:cy="-52.151222"
           sodipodi:rx="2.0598979"
           sodipodi:ry="2.0598979"
           d="m -235.85831,-52.151222 c 0,1.13765 -0.92225,2.059898 -2.0599,2.059898 -1.13765,0 -2.0599,-0.922248 -2.0599,-2.059898 0,-1.13765 0.92225,-2.059898 2.0599,-2.059898 1.13765,0 2.0599,0.922248 2.0599,2.059898 z"
           transform="translate(-34.269211,20.037189)" /><path
           sodipodi:type="arc"
           style="fill:#41acdd;fill-opacity:1;stroke:none"
           id="path3129"
           sodipodi:cx="-237.91821"
           sodipodi:cy="-52.151222"
           sodipodi:rx="2.0598979"
           sodipodi:ry="2.0598979"
           d="m -235.85831,-52.151222 c 0,1.13765 -0.92225,2.059898 -2.0599,2.059898 -1.13765,0 -2.0599,-0.922248 -2.0599,-2.059898 0,-1.13765 0.92225,-2.059898 2.0599,-2.059898 1.13765,0 2.0599,0.922248 2.0599,2.059898 z"
           transform="translate(-46.254072,26.685041)" /></g></g><rect
       y="91.896187"
       x="32.838982"
       height="6.2235169"
       width="6.0911016"
       id="rect3116"
       style="fill:#ffffff;fill-opacity:1;stroke:none" /><g
       style="fill:#41acdd;fill-opacity:1;stroke:none"
       id="g3048"
       transform="matrix(0.10038843,0,0,0.10038843,30.738647,89.628619)"><path
         style="fill:#41acdd;fill-opacity:1;stroke:none"
         d="m 22.3,87.7 55.3,0 c 3.3,0 6,-2.7 6,-6 l 0,-55.9 c 0,-3.3 -2.7,-6 -6,-6 l -10.5,0 0,-5.5 c 0,-1.1 -0.9,-2 -2,-2 -1.1,0 -2,0.9 -2,2 l 0,5.5 -26.2,0 0,-5.5 c 0,-1.1 -0.9,-2 -2,-2 -1.1,0 -2,0.9 -2,2 l 0,5.5 -10.6,0 c -3.3,0 -6,2.7 -6,6 l 0,55.8 c 0,3.4 2.7,6.1 6,6.1 z m 55.4,-4 -55.4,0 c -1.1,0 -2,-0.9 -2,-2 l 0,-35.8 59.3,0 0,35.7 c 0.1,1.2 -0.8,2.1 -1.9,2.1 z m -55.4,-59.9 10.6,0 0,7.5 c 0,1.1 0.9,2 2,2 1.1,0 2,-0.9 2,-2 l 0,-7.5 26.2,0 0,7.5 c 0,1.1 0.9,2 2,2 1.1,0 2,-0.9 2,-2 l 0,-7.5 10.6,0 c 1.1,0 2,0.9 2,2 l 0,16.1 -59.4,0 0,-16.1 c 0,-1.1 0.9,-2 2,-2 z"
         id="path3050"
         inkscape:connector-curvature="0" /></g><rect
       style="fill:#ffffff;fill-opacity:1;stroke:none"
       id="rect3138"
       width="6.0911016"
       height="6.2235169"
       x="39.42664"
       y="103.61494" /><g
       transform="matrix(0.10038843,0,0,0.10038843,37.439285,101.31352)"
       id="g3096"
       style="fill:#41acdd;fill-opacity:1;stroke:none"><path
         inkscape:connector-curvature="0"
         id="path3098"
         d="m 22.3,87.7 55.3,0 c 3.3,0 6,-2.7 6,-6 l 0,-55.9 c 0,-3.3 -2.7,-6 -6,-6 l -10.5,0 0,-5.5 c 0,-1.1 -0.9,-2 -2,-2 -1.1,0 -2,0.9 -2,2 l 0,5.5 -26.2,0 0,-5.5 c 0,-1.1 -0.9,-2 -2,-2 -1.1,0 -2,0.9 -2,2 l 0,5.5 -10.6,0 c -3.3,0 -6,2.7 -6,6 l 0,55.8 c 0,3.4 2.7,6.1 6,6.1 z m 55.4,-4 -55.4,0 c -1.1,0 -2,-0.9 -2,-2 l 0,-35.8 59.3,0 0,35.7 c 0.1,1.2 -0.8,2.1 -1.9,2.1 z m -55.4,-59.9 10.6,0 0,7.5 c 0,1.1 0.9,2 2,2 1.1,0 2,-0.9 2,-2 l 0,-7.5 26.2,0 0,7.5 c 0,1.1 0.9,2 2,2 1.1,0 2,-0.9 2,-2 l 0,-7.5 10.6,0 c 1.1,0 2,0.9 2,2 l 0,16.1 -59.4,0 0,-16.1 c 0,-1.1 0.9,-2 2,-2 z"
         style="fill:#41acdd;fill-opacity:1;stroke:none" /></g></g><g
     style="fill:#ffffff;fill-opacity:1;stroke:none"
     id="g3077"
     transform="matrix(0.10038843,0,0,0.10038843,152.3963,14.018938)"
     inkscape:export-filename="/home/kaore/Downloads/network-white.png"
     inkscape:export-xdpi="584.34998"
     inkscape:export-ydpi="584.34998"><path
       style="fill:#ffffff;fill-opacity:1;stroke:none"
       d="m 22.3,87.7 55.3,0 c 3.3,0 6,-2.7 6,-6 l 0,-55.9 c 0,-3.3 -2.7,-6 -6,-6 l -10.5,0 0,-5.5 c 0,-1.1 -0.9,-2 -2,-2 -1.1,0 -2,0.9 -2,2 l 0,5.5 -26.2,0 0,-5.5 c 0,-1.1 -0.9,-2 -2,-2 -1.1,0 -2,0.9 -2,2 l 0,5.5 -10.6,0 c -3.3,0 -6,2.7 -6,6 l 0,55.8 c 0,3.4 2.7,6.1 6,6.1 z m 55.4,-4 -55.4,0 c -1.1,0 -2,-0.9 -2,-2 l 0,-35.8 59.3,0 0,35.7 c 0.1,1.2 -0.8,2.1 -1.9,2.1 z m -55.4,-59.9 10.6,0 0,7.5 c 0,1.1 0.9,2 2,2 1.1,0 2,-0.9 2,-2 l 0,-7.5 26.2,0 0,7.5 c 0,1.1 0.9,2 2,2 1.1,0 2,-0.9 2,-2 l 0,-7.5 10.6,0 c 1.1,0 2,0.9 2,2 l 0,16.1 -59.4,0 0,-16.1 c 0,-1.1 0.9,-2 2,-2 z"
       id="path3079"
       inkscape:connector-curvature="0" /></g><g
     inkscape:export-ydpi="584.34998"
     inkscape:export-xdpi="584.34998"
     inkscape:export-filename="/home/kaore/Downloads/network-white.png"
     style="fill:#ffffff;fill-opacity:1"
     transform="matrix(0.18831663,0,0,0.18831663,147.79985,29.842199)"
     id="g3081"><path
       style="fill:#ffffff;fill-opacity:1"
       inkscape:connector-curvature="0"
       id="path3083"
       d="m 22.3,87.7 55.3,0 c 3.3,0 6,-2.7 6,-6 l 0,-55.9 c 0,-3.3 -2.7,-6 -6,-6 l -10.5,0 0,-5.5 c 0,-1.1 -0.9,-2 -2,-2 -1.1,0 -2,0.9 -2,2 l 0,5.5 -26.2,0 0,-5.5 c 0,-1.1 -0.9,-2 -2,-2 -1.1,0 -2,0.9 -2,2 l 0,5.5 -10.6,0 c -3.3,0 -6,2.7 -6,6 l 0,55.8 c 0,3.4 2.7,6.1 6,6.1 z m 55.4,-4 -55.4,0 c -1.1,0 -2,-0.9 -2,-2 l 0,-35.8 59.3,0 0,35.7 c 0.1,1.2 -0.8,2.1 -1.9,2.1 z m -55.4,-59.9 10.6,0 0,7.5 c 0,1.1 0.9,2 2,2 1.1,0 2,-0.9 2,-2 l 0,-7.5 26.2,0 0,7.5 c 0,1.1 0.9,2 2,2 1.1,0 2,-0.9 2,-2 l 0,-7.5 10.6,0 c 1.1,0 2,0.9 2,2 l 0,16.1 -59.4,0 0,-16.1 c 0,-1.1 0.9,-2 2,-2 z" /></g><g
     style="fill:#ffffff;fill-opacity:1;stroke:none"
     id="g3085"
     transform="matrix(0.10038843,0,0,0.10038843,132.64699,25.040639)"
     inkscape:export-filename="/home/kaore/Downloads/network-white.png"
     inkscape:export-xdpi="584.34998"
     inkscape:export-ydpi="584.34998"><path
       style="fill:#ffffff;fill-opacity:1;stroke:none"
       d="m 22.3,87.7 55.3,0 c 3.3,0 6,-2.7 6,-6 l 0,-55.9 c 0,-3.3 -2.7,-6 -6,-6 l -10.5,0 0,-5.5 c 0,-1.1 -0.9,-2 -2,-2 -1.1,0 -2,0.9 -2,2 l 0,5.5 -26.2,0 0,-5.5 c 0,-1.1 -0.9,-2 -2,-2 -1.1,0 -2,0.9 -2,2 l 0,5.5 -10.6,0 c -3.3,0 -6,2.7 -6,6 l 0,55.8 c 0,3.4 2.7,6.1 6,6.1 z m 55.4,-4 -55.4,0 c -1.1,0 -2,-0.9 -2,-2 l 0,-35.8 59.3,0 0,35.7 c 0.1,1.2 -0.8,2.1 -1.9,2.1 z m -55.4,-59.9 10.6,0 0,7.5 c 0,1.1 0.9,2 2,2 1.1,0 2,-0.9 2,-2 l 0,-7.5 26.2,0 0,7.5 c 0,1.1 0.9,2 2,2 1.1,0 2,-0.9 2,-2 l 0,-7.5 10.6,0 c 1.1,0 2,0.9 2,2 l 0,16.1 -59.4,0 0,-16.1 c 0,-1.1 0.9,-2 2,-2 z"
       id="path3087"
       inkscape:connector-curvature="0" /></g><g
     transform="matrix(0.10038843,0,0,0.10038843,132.64699,44.440849)"
     id="g3089"
     style="fill:#ffffff;fill-opacity:1;stroke:none"
     inkscape:export-filename="/home/kaore/Downloads/network-white.png"
     inkscape:export-xdpi="584.34998"
     inkscape:export-ydpi="584.34998"><path
       inkscape:connector-curvature="0"
       id="path3091"
       d="m 22.3,87.7 55.3,0 c 3.3,0 6,-2.7 6,-6 l 0,-55.9 c 0,-3.3 -2.7,-6 -6,-6 l -10.5,0 0,-5.5 c 0,-1.1 -0.9,-2 -2,-2 -1.1,0 -2,0.9 -2,2 l 0,5.5 -26.2,0 0,-5.5 c 0,-1.1 -0.9,-2 -2,-2 -1.1,0 -2,0.9 -2,2 l 0,5.5 -10.6,0 c -3.3,0 -6,2.7 -6,6 l 0,55.8 c 0,3.4 2.7,6.1 6,6.1 z m 55.4,-4 -55.4,0 c -1.1,0 -2,-0.9 -2,-2 l 0,-35.8 59.3,0 0,35.7 c 0.1,1.2 -0.8,2.1 -1.9,2.1 z m -55.4,-59.9 10.6,0 0,7.5 c 0,1.1 0.9,2 2,2 1.1,0 2,-0.9 2,-2 l 0,-7.5 26.2,0 0,7.5 c 0,1.1 0.9,2 2,2 1.1,0 2,-0.9 2,-2 l 0,-7.5 10.6,0 c 1.1,0 2,0.9 2,2 l 0,16.1 -59.4,0 0,-16.1 c 0,-1.1 0.9,-2 2,-2 z"
       style="fill:#ffffff;fill-opacity:1;stroke:none" /></g><g
     style="fill:#ffffff;fill-opacity:1;stroke:none"
     id="g3093"
     transform="matrix(0.10038843,0,0,0.10038843,172.09574,44.440849)"
     inkscape:export-filename="/home/kaore/Downloads/network-white.png"
     inkscape:export-xdpi="584.34998"
     inkscape:export-ydpi="584.34998"><path
       style="fill:#ffffff;fill-opacity:1;stroke:none"
       d="m 22.3,87.7 55.3,0 c 3.3,0 6,-2.7 6,-6 l 0,-55.9 c 0,-3.3 -2.7,-6 -6,-6 l -10.5,0 0,-5.5 c 0,-1.1 -0.9,-2 -2,-2 -1.1,0 -2,0.9 -2,2 l 0,5.5 -26.2,0 0,-5.5 c 0,-1.1 -0.9,-2 -2,-2 -1.1,0 -2,0.9 -2,2 l 0,5.5 -10.6,0 c -3.3,0 -6,2.7 -6,6 l 0,55.8 c 0,3.4 2.7,6.1 6,6.1 z m 55.4,-4 -55.4,0 c -1.1,0 -2,-0.9 -2,-2 l 0,-35.8 59.3,0 0,35.7 c 0.1,1.2 -0.8,2.1 -1.9,2.1 z m -55.4,-59.9 10.6,0 0,7.5 c 0,1.1 0.9,2 2,2 1.1,0 2,-0.9 2,-2 l 0,-7.5 26.2,0 0,7.5 c 0,1.1 0.9,2 2,2 1.1,0 2,-0.9 2,-2 l 0,-7.5 10.6,0 c 1.1,0 2,0.9 2,2 l 0,16.1 -59.4,0 0,-16.1 c 0,-1.1 0.9,-2 2,-2 z"
       id="path3095"
       inkscape:connector-curvature="0" /></g><g
     transform="matrix(0.10038843,0,0,0.10038843,172.09574,24.990769)"
     id="g3097"
     style="fill:#ffffff;fill-opacity:1;stroke:none"
     inkscape:export-filename="/home/kaore/Downloads/network-white.png"
     inkscape:export-xdpi="584.34998"
     inkscape:export-ydpi="584.34998"><path
       inkscape:connector-curvature="0"
       id="path3099"
       d="m 22.3,87.7 55.3,0 c 3.3,0 6,-2.7 6,-6 l 0,-55.9 c 0,-3.3 -2.7,-6 -6,-6 l -10.5,0 0,-5.5 c 0,-1.1 -0.9,-2 -2,-2 -1.1,0 -2,0.9 -2,2 l 0,5.5 -26.2,0 0,-5.5 c 0,-1.1 -0.9,-2 -2,-2 -1.1,0 -2,0.9 -2,2 l 0,5.5 -10.6,0 c -3.3,0 -6,2.7 -6,6 l 0,55.8 c 0,3.4 2.7,6.1 6,6.1 z m 55.4,-4 -55.4,0 c -1.1,0 -2,-0.9 -2,-2 l 0,-35.8 59.3,0 0,35.7 c 0.1,1.2 -0.8,2.1 -1.9,2.1 z m -55.4,-59.9 10.6,0 0,7.5 c 0,1.1 0.9,2 2,2 1.1,0 2,-0.9 2,-2 l 0,-7.5 26.2,0 0,7.5 c 0,1.1 0.9,2 2,2 1.1,0 2,-0.9 2,-2 l 0,-7.5 10.6,0 c 1.1,0 2,0.9 2,2 l 0,16.1 -59.4,0 0,-16.1 c 0,-1.1 0.9,-2 2,-2 z"
       style="fill:#ffffff;fill-opacity:1;stroke:none" /></g><g
     transform="matrix(0.10038843,0,0,0.10038843,152.3963,56.061019)"
     id="g3101"
     style="fill:#ffffff;fill-opacity:1;stroke:none"
     inkscape:export-filename="/home/kaore/Downloads/network-white.png"
     inkscape:export-xdpi="584.34998"
     inkscape:export-ydpi="584.34998"><path
       inkscape:connector-curvature="0"
       id="path3103"
       d="m 22.3,87.7 55.3,0 c 3.3,0 6,-2.7 6,-6 l 0,-55.9 c 0,-3.3 -2.7,-6 -6,-6 l -10.5,0 0,-5.5 c 0,-1.1 -0.9,-2 -2,-2 -1.1,0 -2,0.9 -2,2 l 0,5.5 -26.2,0 0,-5.5 c 0,-1.1 -0.9,-2 -2,-2 -1.1,0 -2,0.9 -2,2 l 0,5.5 -10.6,0 c -3.3,0 -6,2.7 -6,6 l 0,55.8 c 0,3.4 2.7,6.1 6,6.1 z m 55.4,-4 -55.4,0 c -1.1,0 -2,-0.9 -2,-2 l 0,-35.8 59.3,0 0,35.7 c 0.1,1.2 -0.8,2.1 -1.9,2.1 z m -55.4,-59.9 10.6,0 0,7.5 c 0,1.1 0.9,2 2,2 1.1,0 2,-0.9 2,-2 l 0,-7.5 26.2,0 0,7.5 c 0,1.1 0.9,2 2,2 1.1,0 2,-0.9 2,-2 l 0,-7.5 10.6,0 c 1.1,0 2,0.9 2,2 l 0,16.1 -59.4,0 0,-16.1 c 0,-1.1 0.9,-2 2,-2 z"
       style="fill:#ffffff;fill-opacity:1;stroke:none" /></g><path
     transform="matrix(0.18831663,0,0,0.18831663,186.15868,59.111809)"
     d="m -235.85831,-52.151222 a 2.0598979,2.0598979 0 1 1 -4.1198,0 2.0598979,2.0598979 0 1 1 4.1198,0 z"
     sodipodi:ry="2.0598979"
     sodipodi:rx="2.0598979"
     sodipodi:cy="-52.151222"
     sodipodi:cx="-237.91821"
     id="path3105"
     style="fill:#ffffff;fill-opacity:1;stroke:none"
     sodipodi:type="arc"
     inkscape:export-filename="/home/kaore/Downloads/network-white.png"
     inkscape:export-xdpi="584.34998"
     inkscape:export-ydpi="584.34998" /><g
     transform="matrix(0.18831663,0,0,0.18831663,194.86909,54.086569)"
     id="g3107"
     style="fill:#ffffff"
     inkscape:export-filename="/home/kaore/Downloads/network-white.png"
     inkscape:export-xdpi="584.34998"
     inkscape:export-ydpi="584.34998"><path
       sodipodi:type="arc"
       style="fill:#ffffff;fill-opacity:1;stroke:none"
       id="path3109"
       sodipodi:cx="-237.91821"
       sodipodi:cy="-52.151222"
       sodipodi:rx="2.0598979"
       sodipodi:ry="2.0598979"
       d="m -235.85831,-52.151222 c 0,1.13765 -0.92225,2.059898 -2.0599,2.059898 -1.13765,0 -2.0599,-0.922248 -2.0599,-2.059898 0,-1.13765 0.92225,-2.059898 2.0599,-2.059898 1.13765,0 2.0599,0.922248 2.0599,2.059898 z"
       transform="translate(-2.5080929e-7,-0.37452681)" /><path
       transform="translate(-11.235807,6.2733256)"
       d="m -235.85831,-52.151222 c 0,1.13765 -0.92225,2.059898 -2.0599,2.059898 -1.13765,0 -2.0599,-0.922248 -2.0599,-2.059898 0,-1.13765 0.92225,-2.059898 2.0599,-2.059898 1.13765,0 2.0599,0.922248 2.0599,2.059898 z"
       sodipodi:ry="2.0598979"
       sodipodi:rx="2.0598979"
       sodipodi:cy="-52.151222"
       sodipodi:cx="-237.91821"
       id="path3111"
       style="fill:#ffffff;fill-opacity:1;stroke:none"
       sodipodi:type="arc" /><path
       sodipodi:type="arc"
       style="fill:#ffffff;fill-opacity:1;stroke:none"
       id="path3113"
       sodipodi:cx="-237.91821"
       sodipodi:cy="-52.151222"
       sodipodi:rx="2.0598979"
       sodipodi:ry="2.0598979"
       d="m -235.85831,-52.151222 c 0,1.13765 -0.92225,2.059898 -2.0599,2.059898 -1.13765,0 -2.0599,-0.922248 -2.0599,-2.059898 0,-1.13765 0.92225,-2.059898 2.0599,-2.059898 1.13765,0 2.0599,0.922248 2.0599,2.059898 z"
       transform="translate(-23.033404,13.108441)" /><path
       transform="translate(-34.269211,20.037189)"
       d="m -235.85831,-52.151222 c 0,1.13765 -0.92225,2.059898 -2.0599,2.059898 -1.13765,0 -2.0599,-0.922248 -2.0599,-2.059898 0,-1.13765 0.92225,-2.059898 2.0599,-2.059898 1.13765,0 2.0599,0.922248 2.0599,2.059898 z"
       sodipodi:ry="2.0598979"
       sodipodi:rx="2.0598979"
       sodipodi:cy="-52.151222"
       sodipodi:cx="-237.91821"
       id="path3115"
       style="fill:#ffffff;fill-opacity:1;stroke:none"
       sodipodi:type="arc" /><path
       transform="translate(-46.254072,26.685041)"
       d="m -235.85831,-52.151222 c 0,1.13765 -0.92225,2.059898 -2.0599,2.059898 -1.13765,0 -2.0599,-0.922248 -2.0599,-2.059898 0,-1.13765 0.92225,-2.059898 2.0599,-2.059898 1.13765,0 2.0599,0.922248 2.0599,2.059898 z"
       sodipodi:ry="2.0598979"
       sodipodi:rx="2.0598979"
       sodipodi:cy="-52.151222"
       sodipodi:cx="-237.91821"
       id="path3117"
       style="fill:#ffffff;fill-opacity:1;stroke:none"
       sodipodi:type="arc" /></g><g
     transform="matrix(0.09415832,-0.16308699,0.16308699,0.09415832,188.41194,14.259888)"
     id="g3120"
     style="fill:#ffffff"
     inkscape:export-filename="/home/kaore/Downloads/network-white.png"
     inkscape:export-xdpi="584.34998"
     inkscape:export-ydpi="584.34998"><path
       transform="translate(-2.5080929e-7,-0.37452681)"
       d="m -235.85831,-52.151222 c 0,1.13765 -0.92225,2.059898 -2.0599,2.059898 -1.13765,0 -2.0599,-0.922248 -2.0599,-2.059898 0,-1.13765 0.92225,-2.059898 2.0599,-2.059898 1.13765,0 2.0599,0.922248 2.0599,2.059898 z"
       sodipodi:ry="2.0598979"
       sodipodi:rx="2.0598979"
       sodipodi:cy="-52.151222"
       sodipodi:cx="-237.91821"
       id="path3122"
       style="fill:#ffffff;fill-opacity:1;stroke:none"
       sodipodi:type="arc" /><path
       sodipodi:type="arc"
       style="fill:#ffffff;fill-opacity:1;stroke:none"
       id="path3124"
       sodipodi:cx="-237.91821"
       sodipodi:cy="-52.151222"
       sodipodi:rx="2.0598979"
       sodipodi:ry="2.0598979"
       d="m -235.85831,-52.151222 c 0,1.13765 -0.92225,2.059898 -2.0599,2.059898 -1.13765,0 -2.0599,-0.922248 -2.0599,-2.059898 0,-1.13765 0.92225,-2.059898 2.0599,-2.059898 1.13765,0 2.0599,0.922248 2.0599,2.059898 z"
       transform="translate(-11.235807,6.2733256)" /><path
       transform="translate(-23.033404,13.108441)"
       d="m -235.85831,-52.151222 c 0,1.13765 -0.92225,2.059898 -2.0599,2.059898 -1.13765,0 -2.0599,-0.922248 -2.0599,-2.059898 0,-1.13765 0.92225,-2.059898 2.0599,-2.059898 1.13765,0 2.0599,0.922248 2.0599,2.059898 z"
       sodipodi:ry="2.0598979"
       sodipodi:rx="2.0598979"
       sodipodi:cy="-52.151222"
       sodipodi:cx="-237.91821"
       id="path3126"
       style="fill:#ffffff;fill-opacity:1;stroke:none"
       sodipodi:type="arc" /><path
       sodipodi:type="arc"
       style="fill:#ffffff;fill-opacity:1;stroke:none"
       id="path3128"
       sodipodi:cx="-237.91821"
       sodipodi:cy="-52.151222"
       sodipodi:rx="2.0598979"
       sodipodi:ry="2.0598979"
       d="m -235.85831,-52.151222 c 0,1.13765 -0.92225,2.059898 -2.0599,2.059898 -1.13765,0 -2.0599,-0.922248 -2.0599,-2.059898 0,-1.13765 0.92225,-2.059898 2.0599,-2.059898 1.13765,0 2.0599,0.922248 2.0599,2.059898 z"
       transform="translate(-34.269211,20.037189)" /><path
       sodipodi:type="arc"
       style="fill:#ffffff;fill-opacity:1;stroke:none"
       id="path3130"
       sodipodi:cx="-237.91821"
       sodipodi:cy="-52.151222"
       sodipodi:rx="2.0598979"
       sodipodi:ry="2.0598979"
       d="m -235.85831,-52.151222 c 0,1.13765 -0.92225,2.059898 -2.0599,2.059898 -1.13765,0 -2.0599,-0.922248 -2.0599,-2.059898 0,-1.13765 0.92225,-2.059898 2.0599,-2.059898 1.13765,0 2.0599,0.922248 2.0599,2.059898 z"
       transform="translate(-46.254072,26.685041)" /></g><g
     inkscape:transform-center-y="1.6574429"
     inkscape:transform-center-x="2.6448568"
     id="g3132"
     transform="matrix(-0.09415832,-0.16308699,0.16308699,-0.09415832,151.04231,0.55254838)"
     style="fill:#ffffff"
     inkscape:export-filename="/home/kaore/Downloads/network-white.png"
     inkscape:export-xdpi="584.34998"
     inkscape:export-ydpi="584.34998"><path
       sodipodi:type="arc"
       style="fill:#ffffff;fill-opacity:1;stroke:none"
       id="path3134"
       sodipodi:cx="-237.91821"
       sodipodi:cy="-52.151222"
       sodipodi:rx="2.0598979"
       sodipodi:ry="2.0598979"
       d="m -235.85831,-52.151222 c 0,1.13765 -0.92225,2.059898 -2.0599,2.059898 -1.13765,0 -2.0599,-0.922248 -2.0599,-2.059898 0,-1.13765 0.92225,-2.059898 2.0599,-2.059898 1.13765,0 2.0599,0.922248 2.0599,2.059898 z"
       transform="translate(-2.5080929e-7,-0.37452681)" /><path
       transform="translate(-11.235807,6.2733256)"
       d="m -235.85831,-52.151222 c 0,1.13765 -0.92225,2.059898 -2.0599,2.059898 -1.13765,0 -2.0599,-0.922248 -2.0599,-2.059898 0,-1.13765 0.92225,-2.059898 2.0599,-2.059898 1.13765,0 2.0599,0.922248 2.0599,2.059898 z"
       sodipodi:ry="2.0598979"
       sodipodi:rx="2.0598979"
       sodipodi:cy="-52.151222"
       sodipodi:cx="-237.91821"
       id="path3136"
       style="fill:#ffffff;fill-opacity:1;stroke:none"
       sodipodi:type="arc" /><path
       sodipodi:type="arc"
       style="fill:#ffffff;fill-opacity:1;stroke:none"
       id="path3138"
       sodipodi:cx="-237.91821"
       sodipodi:cy="-52.151222"
       sodipodi:rx="2.0598979"
       sodipodi:ry="2.0598979"
       d="m -235.85831,-52.151222 c 0,1.13765 -0.92225,2.059898 -2.0599,2.059898 -1.13765,0 -2.0599,-0.922248 -2.0599,-2.059898 0,-1.13765 0.92225,-2.059898 2.0599,-2.059898 1.13765,0 2.0599,0.922248 2.0599,2.059898 z"
       transform="translate(-23.033404,13.108441)" /><path
       transform="translate(-34.269211,20.037189)"
       d="m -235.85831,-52.151222 c 0,1.13765 -0.92225,2.059898 -2.0599,2.059898 -1.13765,0 -2.0599,-0.922248 -2.0599,-2.059898 0,-1.13765 0.92225,-2.059898 2.0599,-2.059898 1.13765,0 2.0599,0.922248 2.0599,2.059898 z"
       sodipodi:ry="2.0598979"
       sodipodi:rx="2.0598979"
       sodipodi:cy="-52.151222"
       sodipodi:cx="-237.91821"
       id="path3140"
       style="fill:#ffffff;fill-opacity:1;stroke:none"
       sodipodi:type="arc" /><path
       transform="translate(-46.254072,26.685041)"
       d="m -235.85831,-52.151222 c 0,1.13765 -0.92225,2.059898 -2.0599,2.059898 -1.13765,0 -2.0599,-0.922248 -2.0599,-2.059898 0,-1.13765 0.92225,-2.059898 2.0599,-2.059898 1.13765,0 2.0599,0.922248 2.0599,2.059898 z"
       sodipodi:ry="2.0598979"
       sodipodi:rx="2.0598979"
       sodipodi:cy="-52.151222"
       sodipodi:cx="-237.91821"
       id="path3142"
       style="fill:#ffffff;fill-opacity:1;stroke:none"
       sodipodi:type="arc" /></g><g
     transform="matrix(-0.18831663,0,0,-0.18831663,120.14542,25.363849)"
     id="g3144"
     inkscape:transform-center-x="-0.11295946"
     inkscape:transform-center-y="3.1192396"
     style="fill:#ffffff"
     inkscape:export-filename="/home/kaore/Downloads/network-white.png"
     inkscape:export-xdpi="584.34998"
     inkscape:export-ydpi="584.34998"><path
       transform="translate(-2.5080929e-7,-0.37452681)"
       d="m -235.85831,-52.151222 c 0,1.13765 -0.92225,2.059898 -2.0599,2.059898 -1.13765,0 -2.0599,-0.922248 -2.0599,-2.059898 0,-1.13765 0.92225,-2.059898 2.0599,-2.059898 1.13765,0 2.0599,0.922248 2.0599,2.059898 z"
       sodipodi:ry="2.0598979"
       sodipodi:rx="2.0598979"
       sodipodi:cy="-52.151222"
       sodipodi:cx="-237.91821"
       id="path3146"
       style="fill:#ffffff;fill-opacity:1;stroke:none"
       sodipodi:type="arc" /><path
       sodipodi:type="arc"
       style="fill:#ffffff;fill-opacity:1;stroke:none"
       id="path3148"
       sodipodi:cx="-237.91821"
       sodipodi:cy="-52.151222"
       sodipodi:rx="2.0598979"
       sodipodi:ry="2.0598979"
       d="m -235.85831,-52.151222 c 0,1.13765 -0.92225,2.059898 -2.0599,2.059898 -1.13765,0 -2.0599,-0.922248 -2.0599,-2.059898 0,-1.13765 0.92225,-2.059898 2.0599,-2.059898 1.13765,0 2.0599,0.922248 2.0599,2.059898 z"
       transform="translate(-11.235807,6.2733256)" /><path
       transform="translate(-23.033404,13.108441)"
       d="m -235.85831,-52.151222 c 0,1.13765 -0.92225,2.059898 -2.0599,2.059898 -1.13765,0 -2.0599,-0.922248 -2.0599,-2.059898 0,-1.13765 0.92225,-2.059898 2.0599,-2.059898 1.13765,0 2.0599,0.922248 2.0599,2.059898 z"
       sodipodi:ry="2.0598979"
       sodipodi:rx="2.0598979"
       sodipodi:cy="-52.151222"
       sodipodi:cx="-237.91821"
       id="path3150"
       style="fill:#ffffff;fill-opacity:1;stroke:none"
       sodipodi:type="arc" /><path
       sodipodi:type="arc"
       style="fill:#ffffff;fill-opacity:1;stroke:none"
       id="path3152"
       sodipodi:cx="-237.91821"
       sodipodi:cy="-52.151222"
       sodipodi:rx="2.0598979"
       sodipodi:ry="2.0598979"
       d="m -235.85831,-52.151222 c 0,1.13765 -0.92225,2.059898 -2.0599,2.059898 -1.13765,0 -2.0599,-0.922248 -2.0599,-2.059898 0,-1.13765 0.92225,-2.059898 2.0599,-2.059898 1.13765,0 2.0599,0.922248 2.0599,2.059898 z"
       transform="translate(-34.269211,20.037189)" /><path
       sodipodi:type="arc"
       style="fill:#ffffff;fill-opacity:1;stroke:none"
       id="path3154"
       sodipodi:cx="-237.91821"
       sodipodi:cy="-52.151222"
       sodipodi:rx="2.0598979"
       sodipodi:ry="2.0598979"
       d="m -235.85831,-52.151222 c 0,1.13765 -0.92225,2.059898 -2.0599,2.059898 -1.13765,0 -2.0599,-0.922248 -2.0599,-2.059898 0,-1.13765 0.92225,-2.059898 2.0599,-2.059898 1.13765,0 2.0599,0.922248 2.0599,2.059898 z"
       transform="translate(-46.254072,26.685041)" /></g><g
     inkscape:transform-center-y="1.4617973"
     inkscape:transform-center-x="-2.7356793"
     id="g3156"
     transform="matrix(-0.09415832,0.16308699,-0.16308699,-0.09415832,126.44576,67.200629)"
     style="fill:#ffffff"
     inkscape:export-filename="/home/kaore/Downloads/network-white.png"
     inkscape:export-xdpi="584.34998"
     inkscape:export-ydpi="584.34998"><path
       sodipodi:type="arc"
       style="fill:#ffffff;fill-opacity:1;stroke:none"
       id="path3158"
       sodipodi:cx="-237.91821"
       sodipodi:cy="-52.151222"
       sodipodi:rx="2.0598979"
       sodipodi:ry="2.0598979"
       d="m -235.85831,-52.151222 c 0,1.13765 -0.92225,2.059898 -2.0599,2.059898 -1.13765,0 -2.0599,-0.922248 -2.0599,-2.059898 0,-1.13765 0.92225,-2.059898 2.0599,-2.059898 1.13765,0 2.0599,0.922248 2.0599,2.059898 z"
       transform="translate(-2.5080929e-7,-0.37452681)" /><path
       transform="translate(-11.235807,6.2733256)"
       d="m -235.85831,-52.151222 c 0,1.13765 -0.92225,2.059898 -2.0599,2.059898 -1.13765,0 -2.0599,-0.922248 -2.0599,-2.059898 0,-1.13765 0.92225,-2.059898 2.0599,-2.059898 1.13765,0 2.0599,0.922248 2.0599,2.059898 z"
       sodipodi:ry="2.0598979"
       sodipodi:rx="2.0598979"
       sodipodi:cy="-52.151222"
       sodipodi:cx="-237.91821"
       id="path3160"
       style="fill:#ffffff;fill-opacity:1;stroke:none"
       sodipodi:type="arc" /><path
       sodipodi:type="arc"
       style="fill:#ffffff;fill-opacity:1;stroke:none"
       id="path3162"
       sodipodi:cx="-237.91821"
       sodipodi:cy="-52.151222"
       sodipodi:rx="2.0598979"
       sodipodi:ry="2.0598979"
       d="m -235.85831,-52.151222 c 0,1.13765 -0.92225,2.059898 -2.0599,2.059898 -1.13765,0 -2.0599,-0.922248 -2.0599,-2.059898 0,-1.13765 0.92225,-2.059898 2.0599,-2.059898 1.13765,0 2.0599,0.922248 2.0599,2.059898 z"
       transform="translate(-23.033404,13.108441)" /><path
       transform="translate(-34.269211,20.037189)"
       d="m -235.85831,-52.151222 c 0,1.13765 -0.92225,2.059898 -2.0599,2.059898 -1.13765,0 -2.0599,-0.922248 -2.0599,-2.059898 0,-1.13765 0.92225,-2.059898 2.0599,-2.059898 1.13765,0 2.0599,0.922248 2.0599,2.059898 z"
       sodipodi:ry="2.0598979"
       sodipodi:rx="2.0598979"
       sodipodi:cy="-52.151222"
       sodipodi:cx="-237.91821"
       id="path3164"
       style="fill:#ffffff;fill-opacity:1;stroke:none"
       sodipodi:type="arc" /><path
       transform="translate(-46.254072,26.685041)"
       d="m -235.85831,-52.151222 c 0,1.13765 -0.92225,2.059898 -2.0599,2.059898 -1.13765,0 -2.0599,-0.922248 -2.0599,-2.059898 0,-1.13765 0.92225,-2.059898 2.0599,-2.059898 1.13765,0 2.0599,0.922248 2.0599,2.059898 z"
       sodipodi:ry="2.0598979"
       sodipodi:rx="2.0598979"
       sodipodi:cy="-52.151222"
       sodipodi:cx="-237.91821"
       id="path3166"
       style="fill:#ffffff;fill-opacity:1;stroke:none"
       sodipodi:type="arc" /></g><g
     transform="matrix(-0.09415832,-0.16308699,0.16308699,-0.09415832,127.5912,-13.377051)"
     id="g3168"
     inkscape:transform-center-x="2.6448586"
     inkscape:transform-center-y="1.6574473"
     style="fill:#ffffff"
     inkscape:export-filename="/home/kaore/Downloads/network-white.png"
     inkscape:export-xdpi="584.34998"
     inkscape:export-ydpi="584.34998"><path
       transform="translate(-2.5080929e-7,-0.37452681)"
       d="m -235.85831,-52.151222 c 0,1.13765 -0.92225,2.059898 -2.0599,2.059898 -1.13765,0 -2.0599,-0.922248 -2.0599,-2.059898 0,-1.13765 0.92225,-2.059898 2.0599,-2.059898 1.13765,0 2.0599,0.922248 2.0599,2.059898 z"
       sodipodi:ry="2.0598979"
       sodipodi:rx="2.0598979"
       sodipodi:cy="-52.151222"
       sodipodi:cx="-237.91821"
       id="path3170"
       style="fill:#ffffff;fill-opacity:1;stroke:none"
       sodipodi:type="arc" /><path
       sodipodi:type="arc"
       style="fill:#ffffff;fill-opacity:1;stroke:none"
       id="path3172"
       sodipodi:cx="-237.91821"
       sodipodi:cy="-52.151222"
       sodipodi:rx="2.0598979"
       sodipodi:ry="2.0598979"
       d="m -235.85831,-52.151222 c 0,1.13765 -0.92225,2.059898 -2.0599,2.059898 -1.13765,0 -2.0599,-0.922248 -2.0599,-2.059898 0,-1.13765 0.92225,-2.059898 2.0599,-2.059898 1.13765,0 2.0599,0.922248 2.0599,2.059898 z"
       transform="translate(-11.235807,6.2733256)" /><path
       transform="translate(-23.033404,13.108441)"
       d="m -235.85831,-52.151222 c 0,1.13765 -0.92225,2.059898 -2.0599,2.059898 -1.13765,0 -2.0599,-0.922248 -2.0599,-2.059898 0,-1.13765 0.92225,-2.059898 2.0599,-2.059898 1.13765,0 2.0599,0.922248 2.0599,2.059898 z"
       sodipodi:ry="2.0598979"
       sodipodi:rx="2.0598979"
       sodipodi:cy="-52.151222"
       sodipodi:cx="-237.91821"
       id="path3174"
       style="fill:#ffffff;fill-opacity:1;stroke:none"
       sodipodi:type="arc" /><path
       sodipodi:type="arc"
       style="fill:#ffffff;fill-opacity:1;stroke:none"
       id="path3176"
       sodipodi:cx="-237.91821"
       sodipodi:cy="-52.151222"
       sodipodi:rx="2.0598979"
       sodipodi:ry="2.0598979"
       d="m -235.85831,-52.151222 c 0,1.13765 -0.92225,2.059898 -2.0599,2.059898 -1.13765,0 -2.0599,-0.922248 -2.0599,-2.059898 0,-1.13765 0.92225,-2.059898 2.0599,-2.059898 1.13765,0 2.0599,0.922248 2.0599,2.059898 z"
       transform="translate(-34.269211,20.037189)" /><path
       sodipodi:type="arc"
       style="fill:#ffffff;fill-opacity:1;stroke:none"
       id="path3178"
       sodipodi:cx="-237.91821"
       sodipodi:cy="-52.151222"
       sodipodi:rx="2.0598979"
       sodipodi:ry="2.0598979"
       d="m -235.85831,-52.151222 c 0,1.13765 -0.92225,2.059898 -2.0599,2.059898 -1.13765,0 -2.0599,-0.922248 -2.0599,-2.059898 0,-1.13765 0.92225,-2.059898 2.0599,-2.059898 1.13765,0 2.0599,0.922248 2.0599,2.059898 z"
       transform="translate(-46.254072,26.685041)" /></g></svg>