<?xml version="1.0" encoding="UTF-8" standalone="no"?>
<svg
   xmlns:dc="http://purl.org/dc/elements/1.1/"
   xmlns:cc="http://creativecommons.org/ns#"
   xmlns:rdf="http://www.w3.org/1999/02/22-rdf-syntax-ns#"
   xmlns:svg="http://www.w3.org/2000/svg"
   xmlns="http://www.w3.org/2000/svg"
   xmlns:sodipodi="http://sodipodi.sourceforge.net/DTD/sodipodi-0.dtd"
   xmlns:inkscape="http://www.inkscape.org/namespaces/inkscape"
   version="1.1"
   x="0px"
   y="0px"
   viewBox="0 0 100 125"
   style="enable-background:new 0 0 100 100;"
   xml:space="preserve"
   id="svg2"
   inkscape:version="0.48.4 r9939"
   sodipodi:docname="private.svg"
   width="100%"
   height="100%"
   inkscape:export-filename="/home/kaore/Downloads/network.jpg.png"
   inkscape:export-xdpi="584.34998"
   inkscape:export-ydpi="584.34998"><metadata
     id="metadata16"><rdf:RDF><cc:Work
         rdf:about=""><dc:format>image/svg+xml</dc:format><dc:type
           rdf:resource="http://purl.org/dc/dcmitype/StillImage" /><dc:title></dc:title></cc:Work></rdf:RDF></metadata><defs
     id="defs14"><marker
       inkscape:stockid="Arrow1Send"
       orient="auto"
       refY="0.0"
       refX="0.0"
       id="Arrow1Send"
       style="overflow:visible;"><path
         id="path4178"
         d="M 0.0,0.0 L 5.0,-5.0 L -12.5,0.0 L 5.0,5.0 L 0.0,0.0 z "
         style="fill-rule:evenodd;stroke:#000000;stroke-width:1.0pt;"
         transform="scale(0.2) rotate(180) translate(6,0)" /></marker><marker
       inkscape:stockid="DotL"
       orient="auto"
       refY="0.0"
       refX="0.0"
       id="DotL"
       style="overflow:visible"><path
         id="path4224"
         d="M -2.5,-1.0 C -2.5,1.7600000 -4.7400000,4.0 -7.5,4.0 C -10.260000,4.0 -12.5,1.7600000 -12.5,-1.0 C -12.5,-3.7600000 -10.260000,-6.0 -7.5,-6.0 C -4.7400000,-6.0 -2.5,-3.7600000 -2.5,-1.0 z "
         style="fill-rule:evenodd;stroke:#000000;stroke-width:1.0pt"
         transform="scale(0.8) translate(7.4, 1)" /></marker></defs><sodipodi:namedview
     pagecolor="#ffffff"
     bordercolor="#666666"
     borderopacity="1"
     objecttolerance="10"
     gridtolerance="10"
     guidetolerance="10"
     inkscape:pageopacity="0"
     inkscape:pageshadow="2"
     inkscape:window-width="1920"
     inkscape:window-height="1056"
     id="namedview12"
     showgrid="false"
     inkscape:zoom="21.360282"
     inkscape:cx="57.942987"
     inkscape:cy="74.715859"
     inkscape:window-x="0"
     inkscape:window-y="24"
     inkscape:window-maximized="1"
     inkscape:current-layer="svg2" /><g
     style="fill:#41acdd;fill-opacity:1;stroke:none"
     id="g3052"
     transform="matrix(0.10038843,0,0,0.10038843,43.715343,8.524041)"><path
       style="fill:#41acdd;fill-opacity:1;stroke:none"
       d="m 22.3,87.7 55.3,0 c 3.3,0 6,-2.7 6,-6 l 0,-55.9 c 0,-3.3 -2.7,-6 -6,-6 l -10.5,0 0,-5.5 c 0,-1.1 -0.9,-2 -2,-2 -1.1,0 -2,0.9 -2,2 l 0,5.5 -26.2,0 0,-5.5 c 0,-1.1 -0.9,-2 -2,-2 -1.1,0 -2,0.9 -2,2 l 0,5.5 -10.6,0 c -3.3,0 -6,2.7 -6,6 l 0,55.8 c 0,3.4 2.7,6.1 6,6.1 z m 55.4,-4 -55.4,0 c -1.1,0 -2,-0.9 -2,-2 l 0,-35.8 59.3,0 0,35.7 c 0.1,1.2 -0.8,2.1 -1.9,2.1 z m -55.4,-59.9 10.6,0 0,7.5 c 0,1.1 0.9,2 2,2 1.1,0 2,-0.9 2,-2 l 0,-7.5 26.2,0 0,7.5 c 0,1.1 0.9,2 2,2 1.1,0 2,-0.9 2,-2 l 0,-7.5 10.6,0 c 1.1,0 2,0.9 2,2 l 0,16.1 -59.4,0 0,-16.1 c 0,-1.1 0.9,-2 2,-2 z"
       id="path3054"
       inkscape:connector-curvature="0" /></g><g
     transform="matrix(-0.18831663,0,0,-0.18831663,-8.5302407,13.380604)"
     id="g3056"
     inkscape:transform-center-x="-0.11295946"
     inkscape:transform-center-y="3.1192396"><path
       transform="translate(-2.5080929e-7,-0.37452681)"
       d="m -235.85831,-52.151222 c 0,1.13765 -0.92225,2.059898 -2.0599,2.059898 -1.13765,0 -2.0599,-0.922248 -2.0599,-2.059898 0,-1.13765 0.92225,-2.059898 2.0599,-2.059898 1.13765,0 2.0599,0.922248 2.0599,2.059898 z"
       sodipodi:ry="2.0598979"
       sodipodi:rx="2.0598979"
       sodipodi:cy="-52.151222"
       sodipodi:cx="-237.91821"
       id="path3058"
       style="fill:#41acdd;fill-opacity:1;stroke:none"
       sodipodi:type="arc" /><path
       sodipodi:type="arc"
       style="fill:#41acdd;fill-opacity:1;stroke:none"
       id="path3060"
       sodipodi:cx="-237.91821"
       sodipodi:cy="-52.151222"
       sodipodi:rx="2.0598979"
       sodipodi:ry="2.0598979"
       d="m -235.85831,-52.151222 c 0,1.13765 -0.92225,2.059898 -2.0599,2.059898 -1.13765,0 -2.0599,-0.922248 -2.0599,-2.059898 0,-1.13765 0.92225,-2.059898 2.0599,-2.059898 1.13765,0 2.0599,0.922248 2.0599,2.059898 z"
       transform="translate(-11.235807,6.2733256)" /><path
       transform="translate(-23.033404,13.108441)"
       d="m -235.85831,-52.151222 c 0,1.13765 -0.92225,2.059898 -2.0599,2.059898 -1.13765,0 -2.0599,-0.922248 -2.0599,-2.059898 0,-1.13765 0.92225,-2.059898 2.0599,-2.059898 1.13765,0 2.0599,0.922248 2.0599,2.059898 z"
       sodipodi:ry="2.0598979"
       sodipodi:rx="2.0598979"
       sodipodi:cy="-52.151222"
       sodipodi:cx="-237.91821"
       id="path3062"
       style="fill:#41acdd;fill-opacity:1;stroke:none"
       sodipodi:type="arc" /><path
       sodipodi:type="arc"
       style="fill:#41acdd;fill-opacity:1;stroke:none"
       id="path3064"
       sodipodi:cx="-237.91821"
       sodipodi:cy="-52.151222"
       sodipodi:rx="2.0598979"
       sodipodi:ry="2.0598979"
       d="m -235.85831,-52.151222 c 0,1.13765 -0.92225,2.059898 -2.0599,2.059898 -1.13765,0 -2.0599,-0.922248 -2.0599,-2.059898 0,-1.13765 0.92225,-2.059898 2.0599,-2.059898 1.13765,0 2.0599,0.922248 2.0599,2.059898 z"
       transform="translate(-34.269211,20.037189)" /><path
       sodipodi:type="arc"
       style="fill:#41acdd;fill-opacity:1;stroke:none"
       id="path3066"
       sodipodi:cx="-237.91821"
       sodipodi:cy="-52.151222"
       sodipodi:rx="2.0598979"
       sodipodi:ry="2.0598979"
       d="m -235.85831,-52.151222 c 0,1.13765 -0.92225,2.059898 -2.0599,2.059898 -1.13765,0 -2.0599,-0.922248 -2.0599,-2.059898 0,-1.13765 0.92225,-2.059898 2.0599,-2.059898 1.13765,0 2.0599,0.922248 2.0599,2.059898 z"
       transform="translate(-46.254072,26.685041)" /></g><g
     inkscape:transform-center-y="2.9080049"
     inkscape:transform-center-x="-1.1339854"
     id="g3080"
     transform="matrix(-0.17780987,0.06202259,-0.06202259,-0.17780987,-17.778327,39.237484)"><path
       sodipodi:type="arc"
       style="fill:#41acdd;fill-opacity:1;stroke:none"
       id="path3082"
       sodipodi:cx="-237.91821"
       sodipodi:cy="-52.151222"
       sodipodi:rx="2.0598979"
       sodipodi:ry="2.0598979"
       d="m -235.85831,-52.151222 c 0,1.13765 -0.92225,2.059898 -2.0599,2.059898 -1.13765,0 -2.0599,-0.922248 -2.0599,-2.059898 0,-1.13765 0.92225,-2.059898 2.0599,-2.059898 1.13765,0 2.0599,0.922248 2.0599,2.059898 z"
       transform="translate(-2.5080929e-7,-0.37452681)" /><path
       transform="translate(-11.235807,6.2733256)"
       d="m -235.85831,-52.151222 c 0,1.13765 -0.92225,2.059898 -2.0599,2.059898 -1.13765,0 -2.0599,-0.922248 -2.0599,-2.059898 0,-1.13765 0.92225,-2.059898 2.0599,-2.059898 1.13765,0 2.0599,0.922248 2.0599,2.059898 z"
       sodipodi:ry="2.0598979"
       sodipodi:rx="2.0598979"
       sodipodi:cy="-52.151222"
       sodipodi:cx="-237.91821"
       id="path3084"
       style="fill:#41acdd;fill-opacity:1;stroke:none"
       sodipodi:type="arc" /><path
       sodipodi:type="arc"
       style="fill:#41acdd;fill-opacity:1;stroke:none"
       id="path3086"
       sodipodi:cx="-237.91821"
       sodipodi:cy="-52.151222"
       sodipodi:rx="2.0598979"
       sodipodi:ry="2.0598979"
       d="m -235.85831,-52.151222 c 0,1.13765 -0.92225,2.059898 -2.0599,2.059898 -1.13765,0 -2.0599,-0.922248 -2.0599,-2.059898 0,-1.13765 0.92225,-2.059898 2.0599,-2.059898 1.13765,0 2.0599,0.922248 2.0599,2.059898 z"
       transform="translate(-23.033404,13.108441)" /><path
       transform="translate(-34.269211,20.037189)"
       d="m -235.85831,-52.151222 c 0,1.13765 -0.92225,2.059898 -2.0599,2.059898 -1.13765,0 -2.0599,-0.922248 -2.0599,-2.059898 0,-1.13765 0.92225,-2.059898 2.0599,-2.059898 1.13765,0 2.0599,0.922248 2.0599,2.059898 z"
       sodipodi:ry="2.0598979"
       sodipodi:rx="2.0598979"
       sodipodi:cy="-52.151222"
       sodipodi:cx="-237.91821"
       id="path3088"
       style="fill:#41acdd;fill-opacity:1;stroke:none"
       sodipodi:type="arc" /><path
       transform="translate(-46.254072,26.685041)"
       d="m -235.85831,-52.151222 c 0,1.13765 -0.92225,2.059898 -2.0599,2.059898 -1.13765,0 -2.0599,-0.922248 -2.0599,-2.059898 0,-1.13765 0.92225,-2.059898 2.0599,-2.059898 1.13765,0 2.0599,0.922248 2.0599,2.059898 z"
       sodipodi:ry="2.0598979"
       sodipodi:rx="2.0598979"
       sodipodi:cy="-52.151222"
       sodipodi:cx="-237.91821"
       id="path3090"
       style="fill:#41acdd;fill-opacity:1;stroke:none"
       sodipodi:type="arc" /></g><g
     transform="matrix(0.10038843,0,0,0.10038843,22.807399,32.358284)"
     id="g3092"
     style="fill:#41acdd;fill-opacity:1;stroke:none"><path
       inkscape:connector-curvature="0"
       id="path3094"
       d="m 22.3,87.7 55.3,0 c 3.3,0 6,-2.7 6,-6 l 0,-55.9 c 0,-3.3 -2.7,-6 -6,-6 l -10.5,0 0,-5.5 c 0,-1.1 -0.9,-2 -2,-2 -1.1,0 -2,0.9 -2,2 l 0,5.5 -26.2,0 0,-5.5 c 0,-1.1 -0.9,-2 -2,-2 -1.1,0 -2,0.9 -2,2 l 0,5.5 -10.6,0 c -3.3,0 -6,2.7 -6,6 l 0,55.8 c 0,3.4 2.7,6.1 6,6.1 z m 55.4,-4 -55.4,0 c -1.1,0 -2,-0.9 -2,-2 l 0,-35.8 59.3,0 0,35.7 c 0.1,1.2 -0.8,2.1 -1.9,2.1 z m -55.4,-59.9 10.6,0 0,7.5 c 0,1.1 0.9,2 2,2 1.1,0 2,-0.9 2,-2 l 0,-7.5 26.2,0 0,7.5 c 0,1.1 0.9,2 2,2 1.1,0 2,-0.9 2,-2 l 0,-7.5 10.6,0 c 1.1,0 2,0.9 2,2 l 0,16.1 -59.4,0 0,-16.1 c 0,-1.1 0.9,-2 2,-2 z"
       style="fill:#41acdd;fill-opacity:1;stroke:none" /></g><g
     inkscape:transform-center-y="-0.22555181"
     inkscape:transform-center-x="-3.113125"
     id="g3100"
     transform="matrix(0.00680201,0.18819374,-0.18819374,0.00680201,49.453635,71.671104)"><path
       sodipodi:type="arc"
       style="fill:#41acdd;fill-opacity:1;stroke:none"
       id="path3102"
       sodipodi:cx="-237.91821"
       sodipodi:cy="-52.151222"
       sodipodi:rx="2.0598979"
       sodipodi:ry="2.0598979"
       d="m -235.85831,-52.151222 c 0,1.13765 -0.92225,2.059898 -2.0599,2.059898 -1.13765,0 -2.0599,-0.922248 -2.0599,-2.059898 0,-1.13765 0.92225,-2.059898 2.0599,-2.059898 1.13765,0 2.0599,0.922248 2.0599,2.059898 z"
       transform="translate(-2.5080929e-7,-0.37452681)" /><path
       transform="translate(-11.235807,6.2733256)"
       d="m -235.85831,-52.151222 c 0,1.13765 -0.92225,2.059898 -2.0599,2.059898 -1.13765,0 -2.0599,-0.922248 -2.0599,-2.059898 0,-1.13765 0.92225,-2.059898 2.0599,-2.059898 1.13765,0 2.0599,0.922248 2.0599,2.059898 z"
       sodipodi:ry="2.0598979"
       sodipodi:rx="2.0598979"
       sodipodi:cy="-52.151222"
       sodipodi:cx="-237.91821"
       id="path3104"
       style="fill:#41acdd;fill-opacity:1;stroke:none"
       sodipodi:type="arc" /><path
       sodipodi:type="arc"
       style="fill:#41acdd;fill-opacity:1;stroke:none"
       id="path3106"
       sodipodi:cx="-237.91821"
       sodipodi:cy="-52.151222"
       sodipodi:rx="2.0598979"
       sodipodi:ry="2.0598979"
       d="m -235.85831,-52.151222 c 0,1.13765 -0.92225,2.059898 -2.0599,2.059898 -1.13765,0 -2.0599,-0.922248 -2.0599,-2.059898 0,-1.13765 0.92225,-2.059898 2.0599,-2.059898 1.13765,0 2.0599,0.922248 2.0599,2.059898 z"
       transform="translate(-23.033404,13.108441)" /><path
       transform="translate(-34.269211,20.037189)"
       d="m -235.85831,-52.151222 c 0,1.13765 -0.92225,2.059898 -2.0599,2.059898 -1.13765,0 -2.0599,-0.922248 -2.0599,-2.059898 0,-1.13765 0.92225,-2.059898 2.0599,-2.059898 1.13765,0 2.0599,0.922248 2.0599,2.059898 z"
       sodipodi:ry="2.0598979"
       sodipodi:rx="2.0598979"
       sodipodi:cy="-52.151222"
       sodipodi:cx="-237.91821"
       id="path3108"
       style="fill:#41acdd;fill-opacity:1;stroke:none"
       sodipodi:type="arc" /><path
       transform="translate(-46.254072,26.685041)"
       d="m -235.85831,-52.151222 c 0,1.13765 -0.92225,2.059898 -2.0599,2.059898 -1.13765,0 -2.0599,-0.922248 -2.0599,-2.059898 0,-1.13765 0.92225,-2.059898 2.0599,-2.059898 1.13765,0 2.0599,0.922248 2.0599,2.059898 z"
       sodipodi:ry="2.0598979"
       sodipodi:rx="2.0598979"
       sodipodi:cy="-52.151222"
       sodipodi:cx="-237.91821"
       id="path3110"
       style="fill:#41acdd;fill-opacity:1;stroke:none"
       sodipodi:type="arc" /></g><rect
     y="28.675365"
     x="56.408897"
     height="6.2235169"
     width="6.0911016"
     id="rect3118"
     style="fill:#ffffff;fill-opacity:1;stroke:none" /><g
     style="fill:#41acdd;fill-opacity:1;stroke:none"
     id="g3112"
     transform="matrix(0.10038843,0,0,0.10038843,54.440978,26.407798)"><path
       style="fill:#41acdd;fill-opacity:1;stroke:none"
       d="m 22.3,87.7 55.3,0 c 3.3,0 6,-2.7 6,-6 l 0,-55.9 c 0,-3.3 -2.7,-6 -6,-6 l -10.5,0 0,-5.5 c 0,-1.1 -0.9,-2 -2,-2 -1.1,0 -2,0.9 -2,2 l 0,5.5 -26.2,0 0,-5.5 c 0,-1.1 -0.9,-2 -2,-2 -1.1,0 -2,0.9 -2,2 l 0,5.5 -10.6,0 c -3.3,0 -6,2.7 -6,6 l 0,55.8 c 0,3.4 2.7,6.1 6,6.1 z m 55.4,-4 -55.4,0 c -1.1,0 -2,-0.9 -2,-2 l 0,-35.8 59.3,0 0,35.7 c 0.1,1.2 -0.8,2.1 -1.9,2.1 z m -55.4,-59.9 10.6,0 0,7.5 c 0,1.1 0.9,2 2,2 1.1,0 2,-0.9 2,-2 l 0,-7.5 26.2,0 0,7.5 c 0,1.1 0.9,2 2,2 1.1,0 2,-0.9 2,-2 l 0,-7.5 10.6,0 c 1.1,0 2,0.9 2,2 l 0,16.1 -59.4,0 0,-16.1 c 0,-1.1 0.9,-2 2,-2 z"
       id="path3114"
       inkscape:connector-curvature="0" /></g><g
     transform="matrix(-0.17780987,0.06202259,-0.06202259,-0.17780987,-10.528592,39.237484)"
     id="g3119"
     inkscape:transform-center-x="-1.1339854"
     inkscape:transform-center-y="2.9080049"><g
       id="g3131"
       transform="matrix(0.25881905,-0.96592583,0.96592583,0.25881905,-159.26177,-293.05401)"><path
         sodipodi:type="arc"
         style="fill:#41acdd;fill-opacity:1;stroke:none"
         id="path3121"
         sodipodi:cx="-237.91821"
         sodipodi:cy="-52.151222"
         sodipodi:rx="2.0598979"
         sodipodi:ry="2.0598979"
         d="m -235.85831,-52.151222 c 0,1.13765 -0.92225,2.059898 -2.0599,2.059898 -1.13765,0 -2.0599,-0.922248 -2.0599,-2.059898 0,-1.13765 0.92225,-2.059898 2.0599,-2.059898 1.13765,0 2.0599,0.922248 2.0599,2.059898 z"
         transform="translate(-2.5080929e-7,-0.37452681)" /><path
         transform="translate(-11.235807,6.2733256)"
         d="m -235.85831,-52.151222 c 0,1.13765 -0.92225,2.059898 -2.0599,2.059898 -1.13765,0 -2.0599,-0.922248 -2.0599,-2.059898 0,-1.13765 0.92225,-2.059898 2.0599,-2.059898 1.13765,0 2.0599,0.922248 2.0599,2.059898 z"
         sodipodi:ry="2.0598979"
         sodipodi:rx="2.0598979"
         sodipodi:cy="-52.151222"
         sodipodi:cx="-237.91821"
         id="path3123"
         style="fill:#41acdd;fill-opacity:1;stroke:none"
         sodipodi:type="arc" /><path
         sodipodi:type="arc"
         style="fill:#41acdd;fill-opacity:1;stroke:none"
         id="path3125"
         sodipodi:cx="-237.91821"
         sodipodi:cy="-52.151222"
         sodipodi:rx="2.0598979"
         sodipodi:ry="2.0598979"
         d="m -235.85831,-52.151222 c 0,1.13765 -0.92225,2.059898 -2.0599,2.059898 -1.13765,0 -2.0599,-0.922248 -2.0599,-2.059898 0,-1.13765 0.92225,-2.059898 2.0599,-2.059898 1.13765,0 2.0599,0.922248 2.0599,2.059898 z"
         transform="translate(-23.033404,13.108441)" /><path
         transform="translate(-34.269211,20.037189)"
         d="m -235.85831,-52.151222 c 0,1.13765 -0.92225,2.059898 -2.0599,2.059898 -1.13765,0 -2.0599,-0.922248 -2.0599,-2.059898 0,-1.13765 0.92225,-2.059898 2.0599,-2.059898 1.13765,0 2.0599,0.922248 2.0599,2.059898 z"
         sodipodi:ry="2.0598979"
         sodipodi:rx="2.0598979"
         sodipodi:cy="-52.151222"
         sodipodi:cx="-237.91821"
         id="path3127"
         style="fill:#41acdd;fill-opacity:1;stroke:none"
         sodipodi:type="arc" /><path
         transform="translate(-46.254072,26.685041)"
         d="m -235.85831,-52.151222 c 0,1.13765 -0.92225,2.059898 -2.0599,2.059898 -1.13765,0 -2.0599,-0.922248 -2.0599,-2.059898 0,-1.13765 0.92225,-2.059898 2.0599,-2.059898 1.13765,0 2.0599,0.922248 2.0599,2.059898 z"
         sodipodi:ry="2.0598979"
         sodipodi:rx="2.0598979"
         sodipodi:cy="-52.151222"
         sodipodi:cx="-237.91821"
         id="path3129"
         style="fill:#41acdd;fill-opacity:1;stroke:none"
         sodipodi:type="arc" /></g></g><rect
     style="fill:#ffffff;fill-opacity:1;stroke:none"
     id="rect3116"
     width="6.0911016"
     height="6.2235169"
     x="31.647243"
     y="22.907841" /><g
     transform="matrix(0.10038843,0,0,0.10038843,29.54691,20.640273)"
     id="g3048"
     style="fill:#41acdd;fill-opacity:1;stroke:none"><path
       inkscape:connector-curvature="0"
       id="path3050"
       d="m 22.3,87.7 55.3,0 c 3.3,0 6,-2.7 6,-6 l 0,-55.9 c 0,-3.3 -2.7,-6 -6,-6 l -10.5,0 0,-5.5 c 0,-1.1 -0.9,-2 -2,-2 -1.1,0 -2,0.9 -2,2 l 0,5.5 -26.2,0 0,-5.5 c 0,-1.1 -0.9,-2 -2,-2 -1.1,0 -2,0.9 -2,2 l 0,5.5 -10.6,0 c -3.3,0 -6,2.7 -6,6 l 0,55.8 c 0,3.4 2.7,6.1 6,6.1 z m 55.4,-4 -55.4,0 c -1.1,0 -2,-0.9 -2,-2 l 0,-35.8 59.3,0 0,35.7 c 0.1,1.2 -0.8,2.1 -1.9,2.1 z m -55.4,-59.9 10.6,0 0,7.5 c 0,1.1 0.9,2 2,2 1.1,0 2,-0.9 2,-2 l 0,-7.5 26.2,0 0,7.5 c 0,1.1 0.9,2 2,2 1.1,0 2,-0.9 2,-2 l 0,-7.5 10.6,0 c 1.1,0 2,0.9 2,2 l 0,16.1 -59.4,0 0,-16.1 c 0,-1.1 0.9,-2 2,-2 z"
       style="fill:#41acdd;fill-opacity:1;stroke:none" /></g><rect
     y="34.626591"
     x="38.234901"
     height="6.2235169"
     width="6.0911016"
     id="rect3138"
     style="fill:#ffffff;fill-opacity:1;stroke:none" /><rect
     style="fill:none;fill-opacity:1;stroke:none"
     id="rect3140"
     width="22.775421"
     height="19.001587"
     x="53.23093"
     y="43.895657"
     inkscape:export-filename="/home/kaore/Dev/lib/bs-templates/svg/rect4315.png"
     inkscape:export-xdpi="987.90997"
     inkscape:export-ydpi="987.90997" /><g
     style="fill:#ffffff;fill-opacity:1;stroke:none"
     id="g3096"
     transform="matrix(0.13726801,0,0,0.13726801,57.892173,46.569649)"
     inkscape:export-filename="/home/kaore/Dev/lib/bs-templates/svg/rect4315.png"
     inkscape:export-xdpi="987.90997"
     inkscape:export-ydpi="987.90997"><path
       style="fill:#ffffff;fill-opacity:1;stroke:none"
       d="m 22.3,87.7 55.3,0 c 3.3,0 6,-2.7 6,-6 l 0,-55.9 c 0,-3.3 -2.7,-6 -6,-6 l -10.5,0 0,-5.5 c 0,-1.1 -0.9,-2 -2,-2 -1.1,0 -2,0.9 -2,2 l 0,5.5 -26.2,0 0,-5.5 c 0,-1.1 -0.9,-2 -2,-2 -1.1,0 -2,0.9 -2,2 l 0,5.5 -10.6,0 c -3.3,0 -6,2.7 -6,6 l 0,55.8 c 0,3.4 2.7,6.1 6,6.1 z m 55.4,-4 -55.4,0 c -1.1,0 -2,-0.9 -2,-2 l 0,-35.8 59.3,0 0,35.7 c 0.1,1.2 -0.8,2.1 -1.9,2.1 z m -55.4,-59.9 10.6,0 0,7.5 c 0,1.1 0.9,2 2,2 1.1,0 2,-0.9 2,-2 l 0,-7.5 26.2,0 0,7.5 c 0,1.1 0.9,2 2,2 1.1,0 2,-0.9 2,-2 l 0,-7.5 10.6,0 c 1.1,0 2,0.9 2,2 l 0,16.1 -59.4,0 0,-16.1 c 0,-1.1 0.9,-2 2,-2 z"
       id="path3098"
       inkscape:connector-curvature="0" /></g><rect
     style="fill:none;stroke:#ffffff;stroke-width:0.33245587;stroke-linejoin:round;stroke-miterlimit:4;stroke-dasharray:none"
     id="rect3533"
     width="2.4260051"
     height="1.7929209"
     x="63.539612"
     y="55.241211"
     inkscape:export-filename="/home/kaore/Dev/lib/bs-templates/svg/rect4315.png"
     inkscape:export-xdpi="987.90997"
     inkscape:export-ydpi="987.90997" /><path
     style="fill:none;stroke:#ffffff;stroke-width:0.26748019;stroke-linejoin:round;stroke-miterlimit:4;stroke-dasharray:none"
     d="m 64.734836,53.813739 c -0.490506,0 -0.886506,0.396001 -0.886506,0.886506 l 0,0.554067 1.773012,0 0,-0.554067 c 0,-0.490505 -0.396001,-0.886506 -0.886506,-0.886506 z"
     id="rect4315"
     inkscape:connector-curvature="0"
     inkscape:export-xdpi="987.90997"
     inkscape:export-ydpi="987.90997" /></svg>