<?xml version="1.0" encoding="UTF-8" standalone="no"?>
<svg
   viewBox="0 0 256 256"
   version="1.1"
   id="svg3"
   sodipodi:docname="oa-picto-white.svg"
   inkscape:version="1.3.2 (1:1.3.2+202311252150+091e20ef0f)"
   xmlns:inkscape="http://www.inkscape.org/namespaces/inkscape"
   xmlns:sodipodi="http://sodipodi.sourceforge.net/DTD/sodipodi-0.dtd"
   xmlns="http://www.w3.org/2000/svg"
   xmlns:svg="http://www.w3.org/2000/svg">
  <defs
     id="defs3" />
  <sodipodi:namedview
     id="namedview3"
     pagecolor="#ffffff"
     bordercolor="#666666"
     borderopacity="1.0"
     inkscape:showpageshadow="2"
     inkscape:pageopacity="0.0"
     inkscape:pagecheckerboard="0"
     inkscape:deskcolor="#d1d1d1"
     showgrid="false"
     inkscape:zoom="4.5"
     inkscape:cx="128.11111"
     inkscape:cy="128.11111"
     inkscape:window-width="1440"
     inkscape:window-height="2523"
     inkscape:window-x="2560"
     inkscape:window-y="0"
     inkscape:window-maximized="1"
     inkscape:current-layer="svg3" />
  <path
     d="M171.3 231.2c0 3.3-18.2 5.9-40.4 5.9S90 234.3 90 231s18.2-5.8 40.6-5.8 40.7 2.8 40.7 5.9"
     fill="#cdcdcc"
     id="path1"
     style="fill:#ffffff;opacity:0.5" />
  <path
     d="M129.2 21.2a73 73 0 0 0-61.9 112l.2.3 5.9 7.8 4.4 5.9 27.4 37.6 10.3 14.1c7.6 10.3 20.2 10.3 27.6 0l10.3-13.9 27.6-37.8 4.7-6.3 4.9-6.7.7-1q1.5-2.2 2.2-4.4 8.8-15.5 9-34.6c0-40.3-32.8-73-73.3-73m0 10.5a60.5 60.5 0 1 1 0 121 60.5 60.5 0 0 1 0-121"
     fill="#413a42"
     id="path2"
     style="fill:#ffffff" />
  <path
     d="m94.2 72.5 32.7 34.5 34.8-50.6"
     fill="none"
     stroke="#41acdd"
     stroke-width="14.3"
     stroke-linecap="round"
     stroke-miterlimit="10"
     id="path3"
     style="stroke:#1d77ce;stroke-opacity:1" />
</svg>
