<?xml version="1.0" encoding="UTF-8" standalone="no"?>
<svg
   viewBox="0 0 146.307 25.614"
   version="1.1"
   id="svg5"
   sodipodi:docname="oa.svg"
   inkscape:version="1.3.2 (1:1.3.2+202311252150+091e20ef0f)"
   xmlns:inkscape="http://www.inkscape.org/namespaces/inkscape"
   xmlns:sodipodi="http://sodipodi.sourceforge.net/DTD/sodipodi-0.dtd"
   xmlns="http://www.w3.org/2000/svg"
   xmlns:svg="http://www.w3.org/2000/svg">
  <defs
     id="defs5" />
  <sodipodi:namedview
     id="namedview5"
     pagecolor="#ffffff"
     bordercolor="#666666"
     borderopacity="1.0"
     inkscape:showpageshadow="2"
     inkscape:pageopacity="0.0"
     inkscape:pagecheckerboard="0"
     inkscape:deskcolor="#d1d1d1"
     showgrid="false"
     inkscape:zoom="9.2681822"
     inkscape:cx="58.749384"
     inkscape:cy="9.0093179"
     inkscape:window-width="1440"
     inkscape:window-height="2523"
     inkscape:window-x="2560"
     inkscape:window-y="0"
     inkscape:window-maximized="1"
     inkscape:current-layer="svg5" />
  <rect
     style="color:#000;display:inline;overflow:visible;visibility:visible;fill:none;fill-opacity:1;fill-rule:nonzero;stroke:none;stroke-width:2.38125;marker:none;enable-background:accumulate"
     id="rect1" />
  <path
     d="M25.734 13.396c0 2.16 1.53 3.915 3.757 3.915 2.228 0 3.758-1.755 3.758-3.915 0-2.137-1.53-3.915-3.758-3.915-2.227 0-3.757 1.778-3.757 3.915m-1.8.022c0-3.105 2.452-5.602 5.557-5.602 3.105 0 5.558 2.497 5.558 5.602a5.527 5.527 0 0 1-5.558 5.559 5.527 5.527 0 0 1-5.557-5.559m15.212-.135c0 2.07 1.215 4.028 3.465 4.028 2.317 0 3.533-1.867 3.533-4.005 0-2.115-1.328-3.825-3.556-3.825-2.092 0-3.442 1.822-3.442 3.802m.09-3.667h.045c.878-1.17 2.182-1.8 3.645-1.8 3.105 0 5.063 2.677 5.063 5.602 0 3.016-1.913 5.559-5.086 5.559-1.44 0-2.768-.63-3.622-1.778h-.045v7.425h-1.8V8.108h1.8zm18.588 2.632c-.248-1.53-1.531-2.767-3.106-2.767-1.553 0-2.993 1.238-3.218 2.767zm-6.414 1.53c.023 1.958 1.418 3.533 3.466 3.533 1.53 0 2.52-.922 3.217-2.182l1.53.877c-1.012 1.89-2.722 2.97-4.883 2.97-3.15 0-5.175-2.407-5.175-5.445 0-3.128 1.823-5.715 5.13-5.715 3.398 0 5.198 2.813 5.018 5.962zm12.579-4.387h.046c.742-1.013 1.71-1.575 3.015-1.575 2.925 0 3.6 2.115 3.6 4.59v6.278h-1.8v-5.963c0-1.71-.135-3.24-2.227-3.24-2.476 0-2.634 2.295-2.634 4.185v5.018h-1.8V8.108h1.8z"
     style="fill:#1d77ce;fill-opacity:1;fill-rule:nonzero;stroke:none;stroke-width:0.330729"
     id="path1" />
  <path
     d="M75.017 13.283c0 2.07 1.215 4.028 3.465 4.028 2.318 0 3.533-1.867 3.533-4.005 0-2.115-1.328-3.825-3.556-3.825-2.092 0-3.442 1.822-3.442 3.802m8.708 5.4h-1.8v-1.462h-.046c-.922 1.17-2.16 1.756-3.645 1.756-3.104 0-5.062-2.633-5.062-5.559 0-3.015 1.912-5.602 5.085-5.602 1.44 0 2.745.675 3.622 1.8h.046V8.108h1.8zm4.164-5.4c0 2.07 1.215 4.028 3.466 4.028 2.317 0 3.532-1.867 3.532-4.005 0-2.115-1.328-3.825-3.555-3.825-2.093 0-3.443 1.822-3.443 3.802m8.708 4.883c0 1.688 0 3.15-1.08 4.546-.99 1.26-2.52 1.867-4.095 1.867-2.948 0-5.13-1.867-5.198-4.86h1.8c.023 1.957 1.44 3.195 3.375 3.195 2.79 0 3.398-2.047 3.398-4.432v-1.26h-.045c-.855 1.102-2.25 1.755-3.668 1.755-3.082 0-5.04-2.588-5.04-5.536 0-2.97 1.98-5.625 5.108-5.625 1.463 0 2.745.652 3.6 1.8h.045V8.108h1.8zm10.824-5.918c-.247-1.53-1.53-2.767-3.105-2.767-1.552 0-2.992 1.238-3.217 2.767zm-6.413 1.53c.023 1.958 1.418 3.533 3.466 3.533 1.53 0 2.52-.922 3.218-2.182l1.53.877c-1.013 1.89-2.723 2.97-4.883 2.97-3.15 0-5.176-2.407-5.176-5.445 0-3.128 1.823-5.715 5.13-5.715 3.399 0 5.199 2.813 5.019 5.962zm12.58-4.387h.045c.743-1.013 1.71-1.575 3.015-1.575 2.925 0 3.6 2.115 3.6 4.59v6.278h-1.8v-5.963c0-1.71-.135-3.24-2.227-3.24-2.475 0-2.633 2.295-2.633 4.185v5.018h-1.8V8.108h1.8zm11.026 3.892c0 2.07 1.217 4.028 3.466 4.028 2.318 0 3.533-1.867 3.533-4.005 0-2.115-1.327-3.825-3.555-3.825-2.093 0-3.443 1.822-3.443 3.802m6.908 3.938h-.045c-.878 1.148-2.205 1.756-3.645 1.756-3.105 0-5.063-2.633-5.063-5.559 0-3.015 1.913-5.602 5.086-5.602 1.417 0 2.767.675 3.622 1.8h.045V.12h1.8v18.564h-1.8zm6.077-3.938c0 2.07 1.215 4.028 3.465 4.028 2.318 0 3.533-1.867 3.533-4.005 0-2.115-1.328-3.825-3.556-3.825-2.092 0-3.442 1.822-3.442 3.802m8.708 5.4h-1.8v-1.462h-.045c-.923 1.17-2.16 1.756-3.645 1.756-3.105 0-5.063-2.633-5.063-5.559 0-3.015 1.912-5.602 5.085-5.602 1.44 0 2.745.675 3.623 1.8h.045V8.108h1.8z"
     style="fill:#413a42;fill-opacity:1;fill-rule:nonzero;stroke:none;stroke-width:.330729"
     id="path2" />
  <path
     d="M16.024 24.906c0 .391-2.138.708-4.776.708-2.639 0-4.778-.317-4.778-.708 0-.39 2.139-.707 4.778-.707 2.638 0 4.777.316 4.777.707"
     style="fill:#cdcdcc;fill-opacity:1;fill-rule:nonzero;stroke:none;stroke-width:.330729"
     id="path3" />
  <path
     style="fill:#413a42;fill-opacity:1;fill-rule:nonzero;stroke:none;stroke-width:.264583"
     d="M11.073.12a8.633 8.633 0 0 0-8.632 8.632 8.58 8.58 0 0 0 1.05 4.134c.067.152.163.31.28.471l.017.025c.204.32.435.628.678.918l.513.703 3.258 4.448 1.207 1.654c.896 1.226 2.361 1.226 3.257 0l1.208-1.646 3.266-4.456.553-.761c.207-.25.393-.513.571-.785l.083-.1c.13-.177.22-.355.29-.52a8.576 8.576 0 0 0 1.033-4.085A8.633 8.633 0 0 0 11.073.12Zm0 1.248a7.136 7.136 0 1 1 0 14.271 7.136 7.136 0 0 1 0-14.27z"
     id="path4" />
  <path
     d="m6.927 6.188 3.88 4.076L14.9 4.26"
     style="fill:none;stroke:#1d77ce;stroke-width:1.69829;stroke-linecap:round;stroke-linejoin:miter;stroke-miterlimit:10;stroke-dasharray:none;stroke-opacity:1"
     id="path5" />
</svg>
