<svg viewBox="0 0 200 200" xmlns="http://www.w3.org/2000/svg" fill-rule="evenodd" clip-rule="evenodd" stroke-linejoin="round" stroke-miterlimit="1.414"><ellipse cx="60.163" cy="63.965" rx="52.05" ry="55.073" fill="#ebebeb" transform="matrix(1.92122 0 0 1.81577 -15.587 -16.147)"/><path d="M80.34 99.998c-2.786-4.02-4.345-8.837-4.345-13.714 0-1.175.111-2.357.274-3.532-2.306.798-4.663 1.227-7.13 1.227-7.227 0-12.799-4.552-13.93-4.552-6.797 0-6.642 14.571-6.642 18.909 0 5.948 5.04 8.52 10.396 8.52h7.175c3.591-4.286 8.63-6.695 14.202-6.858zm57.37 34.13c0-12.11-2.838-30.701-18.533-30.701-1.825 0-8.468 7.448-19.182 7.448-10.714 0-17.357-7.448-19.175-7.448-15.694 0-18.539 18.591-18.539 30.702 0 8.675 5.734 13.87 14.305 13.87h46.825c8.572 0 14.298-5.195 14.298-13.87zM82.851 65.714C82.851 58.162 76.696 52 69.137 52c-7.552 0-13.714 6.162-13.714 13.714 0 7.552 6.162 13.714 13.714 13.714 7.56 0 13.714-6.162 13.714-13.714zm37.714 20.571c0-11.357-9.214-20.571-20.57-20.571-11.358 0-20.572 9.214-20.572 20.571 0 11.357 9.214 20.572 20.571 20.572 11.357 0 20.571-9.215 20.571-20.572zm30.857 12.052c0-4.338.163-18.909-6.642-18.909-1.124 0-6.695 4.552-13.929 4.552-2.46 0-4.818-.429-7.123-1.227.163 1.175.266 2.357.266 3.532 0 4.877-1.552 9.695-4.337 13.714 5.571.163 10.61 2.572 14.194 6.858h7.182c5.357 0 10.39-2.572 10.39-8.52zm-6.857-32.623c0-7.552-6.155-13.714-13.714-13.714-7.552 0-13.714 6.162-13.714 13.714 0 7.552 6.162 13.714 13.714 13.714 7.56 0 13.714-6.162 13.714-13.714z" fill="#41acdd" fill-rule="nonzero"/></svg>