<svg viewBox="0 0 200 200" xmlns="http://www.w3.org/2000/svg" fill-rule="evenodd" clip-rule="evenodd" stroke-linejoin="round" stroke-miterlimit="1.414"><ellipse cx="60.163" cy="63.965" rx="52.05" ry="55.073" fill="#ebebeb" transform="matrix(1.92122 0 0 1.81577 -15.587 -16.147)"/><path d="M155.645 123.665c0-4.413-2.915-8.144-6.925-9.374V52.883a2.882 2.882 0 1 0-5.766 0v61.408a9.806 9.806 0 0 0-6.924 9.374c0 4.413 2.914 8.144 6.924 9.375v14.077a2.883 2.883 0 1 0 5.766 0v-14.078c4.01-1.23 6.925-4.961 6.925-9.374zm-44.772-31.554c0-4.413-2.914-8.144-6.924-9.375V52.883a2.883 2.883 0 1 0-5.767 0v29.854c-4.008 1.232-6.924 4.962-6.924 9.375 0 4.414 2.916 8.143 6.924 9.375v45.63a2.883 2.883 0 1 0 5.767 0v-45.631c4.008-1.231 6.924-4.961 6.924-9.375zM63.97 115.563c0-4.413-2.915-8.144-6.924-9.375V52.883a2.883 2.883 0 1 0-5.766 0v53.306c-4.009 1.232-6.925 4.961-6.925 9.374s2.916 8.144 6.925 9.374v22.179a2.883 2.883 0 1 0 5.766 0v-22.179c4.009-1.23 6.924-4.961 6.924-9.374z" fill="#41acdd"/></svg>