<svg viewBox="0 0 256 256" xmlns="http://www.w3.org/2000/svg" fill-rule="evenodd" clip-rule="evenodd" stroke-linejoin="round" stroke-miterlimit="1.414"><circle cx="127.999" cy="128" r="127.999" fill="#41acdd"/><path d="M53.767 88.856v-24h33v24h-33zm9-28.5v.013a.744.744 0 0 1-.741.741h-1.512a.75.75 0 0 1-.747-.747V53.61c0-.421.332-.754.753-.754h1.5c.422 0 .747.333.747.754v6.746zm18 0v.013a.744.744 0 0 1-.741.741h-1.512a.75.75 0 0 1-.747-.747V53.61c0-.421.332-.754.753-.754h1.5c.421 0 .747.333.747.754v6.746zm9-1.5c0-1.64-1.36-3-3-3h-3V53.61c0-2.062-1.685-3.754-3.747-3.754h-1.5a3.787 3.787 0 0 0-3.753 3.754v2.246h-9V53.61c0-2.062-1.685-3.754-3.747-3.754h-1.5a3.787 3.787 0 0 0-3.753 3.754v2.246h-3c-1.64 0-3 1.36-3 3v30c0 1.64 1.36 3 3 3h33c1.64 0 3-1.36 3-3v-30zm80.467 30v-24h33v24h-33zm9-28.5v.013a.744.744 0 0 1-.741.741h-1.512a.75.75 0 0 1-.747-.747V53.61c0-.421.332-.754.753-.754h1.5c.422 0 .747.333.747.754v6.746zm18 0v.013a.744.744 0 0 1-.741.741h-1.512a.75.75 0 0 1-.747-.747V53.61c0-.421.332-.754.753-.754h1.5c.421 0 .747.333.747.754v6.746zm9-1.5c0-1.64-1.36-3-3-3h-3V53.61c0-2.062-1.685-3.754-3.747-3.754h-1.5a3.787 3.787 0 0 0-3.753 3.754v2.246h-9V53.61c0-2.062-1.685-3.754-3.747-3.754h-1.5a3.787 3.787 0 0 0-3.753 3.754v2.246h-3c-1.64 0-3 1.36-3 3v30c0 1.64 1.36 3 3 3h33c1.64 0 3-1.36 3-3v-30zm-94.237 30v-24h33v24h-33zm9-28.5v.013a.744.744 0 0 1-.741.741h-1.512a.75.75 0 0 1-.747-.747V53.61c0-.421.332-.754.753-.754h1.5c.422 0 .747.333.747.754v6.746zm18 0v.013a.744.744 0 0 1-.741.741h-1.512a.75.75 0 0 1-.747-.747V53.61c0-.421.332-.754.753-.754h1.5c.421 0 .747.333.747.754v6.746zm9-1.5c0-1.64-1.36-3-3-3h-3V53.61c0-2.062-1.685-3.754-3.747-3.754h-1.5a3.787 3.787 0 0 0-3.753 3.754v2.246h-9V53.61c0-2.062-1.685-3.754-3.747-3.754h-1.5a3.787 3.787 0 0 0-3.753 3.754v2.246h-3c-1.64 0-3 1.36-3 3v30c0 1.64 1.36 3 3 3h33c1.64 0 3-1.36 3-3v-30zm-94.23 135.506v-24h33v24h-33zm9-28.5v.013a.744.744 0 0 1-.741.741h-1.512a.75.75 0 0 1-.747-.747v-6.753c0-.421.332-.754.753-.754h1.5c.422 0 .747.333.747.754v6.746zm18 0v.013a.744.744 0 0 1-.741.741h-1.512a.75.75 0 0 1-.747-.747v-6.753c0-.421.332-.754.753-.754h1.5c.421 0 .747.333.747.754v6.746zm9-1.5c0-1.64-1.36-3-3-3h-3v-2.246c0-2.062-1.685-3.754-3.747-3.754h-1.5a3.787 3.787 0 0 0-3.753 3.754v2.246h-9v-2.246c0-2.062-1.685-3.754-3.747-3.754h-1.5a3.787 3.787 0 0 0-3.753 3.754v2.246h-3c-1.64 0-3 1.36-3 3v30c0 1.64 1.36 3 3 3h33c1.64 0 3-1.36 3-3v-30zm80.467 30v-24h33v24h-33zm9-28.5v.013a.744.744 0 0 1-.741.741h-1.512a.75.75 0 0 1-.747-.747v-6.753c0-.421.332-.754.753-.754h1.5c.422 0 .747.333.747.754v6.746zm18 0v.013a.744.744 0 0 1-.741.741h-1.512a.75.75 0 0 1-.747-.747v-6.753c0-.421.332-.754.753-.754h1.5c.421 0 .747.333.747.754v6.746zm9-1.5c0-1.64-1.36-3-3-3h-3v-2.246c0-2.062-1.685-3.754-3.747-3.754h-1.5a3.787 3.787 0 0 0-3.753 3.754v2.246h-9v-2.246c0-2.062-1.685-3.754-3.747-3.754h-1.5a3.787 3.787 0 0 0-3.753 3.754v2.246h-3c-1.64 0-3 1.36-3 3v30c0 1.64 1.36 3 3 3h33c1.64 0 3-1.36 3-3v-30zm-94.237 30v-24h33v24h-33zm9-28.5v.013a.744.744 0 0 1-.741.741h-1.512a.75.75 0 0 1-.747-.747v-6.753c0-.421.332-.754.753-.754h1.5c.422 0 .747.333.747.754v6.746zm18 0v.013a.744.744 0 0 1-.741.741h-1.512a.75.75 0 0 1-.747-.747v-6.753c0-.421.332-.754.753-.754h1.5c.421 0 .747.333.747.754v6.746zm9-1.5c0-1.64-1.36-3-3-3h-3v-2.246c0-2.062-1.685-3.754-3.747-3.754h-1.5a3.787 3.787 0 0 0-3.753 3.754v2.246h-9v-2.246c0-2.062-1.685-3.754-3.747-3.754h-1.5a3.787 3.787 0 0 0-3.753 3.754v2.246h-3c-1.64 0-3 1.36-3 3v30c0 1.64 1.36 3 3 3h33c1.64 0 3-1.36 3-3v-30zm-94.73-22.753v-24h33v24h-33zm9-28.5v.013a.744.744 0 0 1-.741.741h-1.512a.75.75 0 0 1-.747-.747v-6.753c0-.421.332-.754.753-.754h1.5c.422 0 .747.333.747.754v6.746zm18 0v.013a.744.744 0 0 1-.741.741h-1.512a.75.75 0 0 1-.747-.747v-6.753c0-.421.332-.754.753-.754h1.5c.421 0 .747.333.747.754v6.746zm9-1.5c0-1.64-1.36-3-3-3h-3v-2.246c0-2.062-1.685-3.754-3.747-3.754h-1.5a3.787 3.787 0 0 0-3.753 3.754v2.246h-9v-2.246c0-2.062-1.685-3.754-3.747-3.754h-1.5a3.787 3.787 0 0 0-3.753 3.754v2.246h-3c-1.64 0-3 1.36-3 3v30c0 1.64 1.36 3 3 3h33c1.64 0 3-1.36 3-3v-30zm80.465 30v-24h33v24h-33zm9-28.5v.013a.744.744 0 0 1-.741.741h-1.512a.75.75 0 0 1-.747-.747v-6.753c0-.421.332-.754.753-.754h1.5c.422 0 .747.333.747.754v6.746zm18 0v.013a.744.744 0 0 1-.741.741h-1.512a.75.75 0 0 1-.747-.747v-6.753c0-.421.332-.754.753-.754h1.5c.421 0 .747.333.747.754v6.746zm9-1.5c0-1.64-1.36-3-3-3h-3v-2.246c0-2.062-1.685-3.754-3.747-3.754h-1.5a3.787 3.787 0 0 0-3.753 3.754v2.246h-9v-2.246c0-2.062-1.685-3.754-3.747-3.754h-1.5a3.787 3.787 0 0 0-3.753 3.754v2.246h-3c-1.64 0-3 1.36-3 3v30c0 1.64 1.36 3 3 3h33c1.64 0 3-1.36 3-3v-30zm-94.235 30v-24h33v24h-33zm9-28.5v.013a.744.744 0 0 1-.741.741h-1.512a.75.75 0 0 1-.747-.747v-6.753c0-.421.332-.754.753-.754h1.5c.422 0 .747.333.747.754v6.746zm18 0v.013a.744.744 0 0 1-.741.741h-1.512a.75.75 0 0 1-.747-.747v-6.753c0-.421.332-.754.753-.754h1.5c.421 0 .747.333.747.754v6.746zm9-1.5c0-1.64-1.36-3-3-3h-3v-2.246c0-2.062-1.685-3.754-3.747-3.754h-1.5a3.787 3.787 0 0 0-3.753 3.754v2.246h-9v-2.246c0-2.062-1.685-3.754-3.747-3.754h-1.5a3.787 3.787 0 0 0-3.753 3.754v2.246h-3c-1.64 0-3 1.36-3 3v30c0 1.64 1.36 3 3 3h33c1.64 0 3-1.36 3-3v-30z" fill="#fff" fill-rule="nonzero"/></svg>