<svg width="396" height="516" viewBox="0 0 396 516" fill="none" xmlns="http://www.w3.org/2000/svg">
<path fill-rule="evenodd" clip-rule="evenodd" d="M44 152C19.6995 152 0 171.699 0 196V472C0 496.301 19.6994 516 44 516H351.837C376.137 516 395.837 496.301 395.837 472V196C395.837 171.699 376.137 152 351.837 152H44ZM237.531 307.265C237.531 323.187 228.054 336.896 214.433 343.058V385.026C214.433 393.53 207.539 400.424 199.035 400.424C190.531 400.424 183.637 393.53 183.637 385.026V343.715C169.196 337.914 159 323.781 159 307.265C159 285.58 176.58 268 198.265 268C219.951 268 237.531 285.58 237.531 307.265Z" fill="black"/>
<path d="M66.5441 158.438L66.5441 162.938H71.0441H94.6813H99.1813V158.438C99.1813 154.224 99.0661 149.417 98.945 144.361C98.6847 133.492 98.397 121.478 99.1672 111.754C100.243 98.1689 105.233 84.9631 113.766 73.309C122.304 61.6489 134.135 51.8951 148.263 44.9691C162.391 38.0429 178.344 34.1789 194.702 33.7504C211.06 33.3218 227.268 36.3434 241.882 42.5228C256.496 48.7022 269.024 57.8299 278.399 69.0391C287.771 80.2432 293.706 93.1797 295.758 106.69C296.79 113.484 297.031 124.335 296.99 135.037C296.97 140.336 296.882 145.514 296.799 150.023C296.788 150.589 296.778 151.145 296.768 151.69C296.697 155.464 296.636 158.714 296.636 161V165.5H301.136H323.702H327.615L328.158 161.625C330.425 145.467 330.91 120.907 328.151 102.741C325.336 84.2099 317.215 66.6231 304.588 51.5261C291.965 36.4343 275.23 24.295 255.909 16.1254C236.588 7.95594 215.238 3.98939 193.739 4.5526C172.24 5.11581 151.207 10.1928 132.497 19.3648C113.787 28.5371 97.9391 41.5419 86.4117 57.2848C74.8797 73.0338 68.0356 91.0296 66.5581 109.681C65.6101 121.648 65.9183 131.967 66.2302 142.407C66.3867 147.645 66.5441 152.915 66.5441 158.438Z" fill="black" stroke="black" stroke-width="9"/>
</svg>
