<svg viewBox="0 0 200 200" xmlns="http://www.w3.org/2000/svg" fill-rule="evenodd" clip-rule="evenodd" stroke-linejoin="round" stroke-miterlimit="1.414"><ellipse cx="60.163" cy="63.965" rx="52.05" ry="55.073" fill="#ebebeb" transform="matrix(1.92122 0 0 1.81577 -15.587 -16.147)"/><path d="M124 106.856c-4.5 0-8.624 1.773-11.676 4.61l-19.285-9.642a21.58 21.58 0 0 0 .103-1.826c0-.59-.051-1.234-.103-1.817l19.285-9.643A17.146 17.146 0 0 0 124 93.14c9.488 0 17.143-7.662 17.143-17.143 0-9.48-7.655-17.142-17.143-17.142-9.48 0-17.142 7.662-17.142 17.142 0 .592.059 1.234.11 1.826l-19.285 9.642A17.136 17.136 0 0 0 76 82.856c-9.48 0-17.143 7.662-17.143 17.142 0 9.488 7.662 17.143 17.143 17.143 4.5 0 8.63-1.766 11.682-4.603l19.285 9.643c-.051.59-.11 1.234-.11 1.817 0 9.488 7.662 17.143 17.142 17.143a17.117 17.117 0 0 0 17.143-17.143c0-9.48-7.655-17.142-17.143-17.142z" fill="#41acdd" fill-rule="nonzero"/></svg>