<svg viewBox="0 0 322 322" xmlns="http://www.w3.org/2000/svg" fill-rule="evenodd" clip-rule="evenodd" stroke-linejoin="round" stroke-miterlimit="1.414"><path d="M157.25 112.822c-18.015 0-32.625 14.608-32.625 32.625 0 5.661 1.43 10.983 3.969 15.625.256.576.617 1.171 1.062 1.781l.063.093a33.37 33.37 0 0 0 2.562 3.469l1.938 2.656c3.39 4.633 8.922 12.18 12.312 16.813l4.563 6.25c3.387 4.634 8.926 4.634 12.312 0l4.563-6.219c3.39-4.631 8.954-12.213 12.344-16.843l2.093-2.875a33.247 33.247 0 0 0 2.157-2.969l.312-.375a9.244 9.244 0 0 0 1.094-1.969 32.411 32.411 0 0 0 3.906-15.437c0-18.017-14.61-32.625-32.625-32.625zm0 4.718c14.895 0 26.969 12.075 26.969 26.969 0 14.896-12.074 26.969-26.97 26.969-14.895 0-26.968-12.073-26.968-26.969 0-14.894 12.073-26.969 26.969-26.969z" fill="#413a42" fill-rule="nonzero"/><path d="M171.89 125.263l.193.016.191.029.19.04.188.05.182.063.18.073.175.084.169.094.164.105.157.114.149.122.143.133.133.14.125.148.115.155.107.163.096.169.086.173.075.179.065.182.053.187.042.19.03.191.019.193.006.193-.004.194-.016.194-.029.191-.04.19-.05.188-.062.182-.074.18-.084.175-.094.169-.105.164-17.296 25.373-.916.075-16.895-17.754-.129-.145-.121-.15-.11-.16-.101-.166-.091-.171-.082-.176-.069-.18-.058-.185-.048-.189-.036-.19-.025-.193-.013-.193v-.194l.01-.193.023-.193.034-.19.045-.189.056-.185.069-.183.078-.176.09-.172.098-.167.11-.16.119-.153.127-.147.136-.137.145-.129.152-.121.159-.11.166-.101.171-.092.176-.08.18-.07.185-.058.189-.048.19-.036.193-.025.193-.013h.194l.192.01.194.023.19.034.189.045.185.056.182.069.177.078.172.09.166.098.16.11.154.119.146.127.138.136 11.921 12.528 13.234-19.413.114-.157.122-.149.133-.142.14-.134.149-.125.155-.115.162-.106.169-.097.174-.086.178-.075.183-.065.186-.052.19-.043.191-.03.193-.019.194-.006.193.004z" fill="#41acdd"/><path d="M149.748 13.498c0-2.483-2.01-4.5-4.5-4.5a4.503 4.503 0 0 0-4.5 4.5c0 2.483 2.017 4.5 4.5 4.5 2.49 0 4.5-2.017 4.5-4.5zm24 9L164 12.752l-12 12-3.753-3.754-7.5 7.5v4.5h33v-10.5zM176 5.998a.77.77 0 0 1 .747.754v28.5a.764.764 0 0 1-.747.746h-37.5a.77.77 0 0 1-.753-.746v-28.5c0-.4.354-.754.753-.754h37.5zm3.747.754c0-2.062-1.685-3.754-3.747-3.754h-37.5a3.769 3.769 0 0 0-3.753 3.754v28.5c0 2.061 1.692 3.746 3.753 3.746h37.5a3.756 3.756 0 0 0 3.747-3.746v-28.5zM70.386 247.811a2.28 2.28 0 0 0 0-3.184 2.289 2.289 0 0 0-3.192 0l-5.342 5.342h-8.623l-5.343-5.342a2.289 2.289 0 0 0-3.192 0 2.28 2.28 0 0 0 0 3.184l6.843 6.85v19.308a2.627 2.627 0 1 0 5.253 0v-9h1.5v9a2.62 2.62 0 0 0 2.624 2.63 2.62 2.62 0 0 0 2.623-2.63V254.66l6.85-6.85zm-7.596-3.842a5.24 5.24 0 0 0-5.253-5.246 5.238 5.238 0 0 0-5.247 5.246 5.24 5.24 0 0 0 5.247 5.254 5.241 5.241 0 0 0 5.253-5.254zM65.027 60.475c0 3.303-2.69 6-6 6-3.303 0-6-2.697-6-6s2.697-6 6-6c3.31 0 6 2.697 6 6zm6 0c0-6.628-5.365-12-12-12-6.628 0-12 5.372-12 12 0 1.434.17 2.911.776 4.197l8.556 18.14c.466 1.035 1.545 1.663 2.668 1.663 1.13 0 2.209-.628 2.697-1.663l8.534-18.14c.606-1.286.769-2.763.769-4.197zM271.665 241.375l-9.562-9.562a5.047 5.047 0 0 0-.85-.657v11.061h11.07a5.751 5.751 0 0 0-.658-.842zm-11.158 3.842a2.252 2.252 0 0 1-2.253-2.246v-12.754h-18.747a2.258 2.258 0 0 0-2.253 2.254v37.5a2.252 2.252 0 0 0 2.253 2.246h31.5a2.245 2.245 0 0 0 2.247-2.246v-24.754h-12.747zm3.747 17.254a.735.735 0 0 1-.747.746h-16.5a.741.741 0 0 1-.753-.746v-1.5c0-.422.332-.754.753-.754h16.5c.422 0 .747.332.747.754v1.5zm0-6a.735.735 0 0 1-.747.746h-16.5a.741.741 0 0 1-.753-.746v-1.5c0-.421.332-.754.753-.754h16.5c.422 0 .747.333.747.754v1.5zm0-6a.735.735 0 0 1-.747.746h-16.5a.741.741 0 0 1-.753-.746v-1.5c0-.421.332-.754.753-.754h16.5c.422 0 .747.333.747.754v1.5zM247.754 57.153c0 1.663-1.33 3-3 3-1.663 0-3-1.337-3-3 0-1.662 1.337-3 3-3 1.67 0 3 1.338 3 3zm25.012 13.5c0-.798-.333-1.566-.872-2.128l-16.751-16.736c-1.197-1.197-3.473-2.136-5.136-2.136h-9.753c-1.64 0-3 1.36-3 3v9.754c0 1.662.938 3.938 2.135 5.106l16.759 16.78c.54.54 1.315.872 2.106.872.798 0 1.574-.332 2.135-.872l11.505-11.527c.54-.54.872-1.315.872-2.113zM15 160.252a.741.741 0 0 1-.753.746.735.735 0 0 1-.747-.746v-10.5c0-.421.326-.754.747-.754.42 0 .753.333.753.754v10.5zm15.747 8.246c0-3.842-2.904-7.5-6-7.5v-12c1.64 0 3-1.36 3-3s-1.36-3-3-3h-15c-1.64 0-3 1.36-3 3s1.36 3 3 3v12c-3.089 0-6 3.658-6 7.5 0 .82.68 1.5 1.5 1.5h9.473l1.78 11.372c.067.37.377.628.747.628h.03c.369 0 .679-.303.723-.68l1.197-11.32h10.05c.82 0 1.5-.68 1.5-1.5zM160.248 292.752a.741.741 0 0 0-.747-.754h-1.5a.747.747 0 0 0-.753.754v8.246H152a.747.747 0 0 0-.753.754v1.5c0 .42.332.746.753.746h7.5a.735.735 0 0 0 .747-.746v-10.5zm9.753 8.246c0 7.034-5.719 12.754-12.753 12.754-7.027 0-12.747-5.72-12.747-12.754 0-7.027 5.72-12.746 12.747-12.746 7.034 0 12.753 5.719 12.753 12.746zm5.247 0c0-9.938-8.062-18-18-18-9.931 0-18 8.062-18 18s8.069 18 18 18c9.938 0 18-8.062 18-18zM300.248 150.594l-13.404 13.404 7.404 7.411 13.41-13.411-7.41-7.404zm-4.944 22.943c-.28.281-.657.422-1.056.422-.4 0-.769-.14-1.05-.422l-8.49-8.482a1.485 1.485 0 0 1 0-2.106l14.49-14.49c.562-.562 1.545-.562 2.106 0l8.483 8.49a1.472 1.472 0 0 1 0 2.106l-14.483 14.482zm20.838-14.926c1.145-1.152 1.145-3.074 0-4.241l-2.956-2.934a4.504 4.504 0 0 1-6.37 0 4.513 4.513 0 0 1 0-6.376l-2.933-2.926c-1.175-1.175-3.096-1.175-4.241 0l-21.259 21.236c-1.175 1.167-1.175 3.089 0 4.241l2.934 2.949c1.75-1.752 4.61-1.752 6.37 0a4.513 4.513 0 0 1 0 6.376l2.955 2.956c1.145 1.145 3.066 1.145 4.241 0l21.259-21.28z" fill="#413a42" fill-rule="nonzero"/><path d="M175.968 206.502c0 1.478-8.082 2.676-18.055 2.676-9.974 0-18.056-1.198-18.056-2.676 0-1.478 8.082-2.674 18.056-2.674 9.972 0 18.055 1.196 18.055 2.674" fill="#cdcdcc" fill-rule="nonzero"/></svg>