<svg viewBox="0 0 368 188" xmlns="http://www.w3.org/2000/svg" fill-rule="evenodd" clip-rule="evenodd" stroke-linejoin="round" stroke-miterlimit="1.414"><path d="M367.579 136.65c0-24.254-16.899-44.516-39.598-49.854 3.489-5.339 5.464-11.602 5.464-18.412 0-18.79-15.3-34.133-34.133-34.133-8.533 0-16.268 3.068-22.11 8.28C266.944 17.606 242.521.119 213.978.119c-37.706 0-68.266 30.56-68.266 68.266 0 1.892.168 3.867.294 5.759-20.261 9.458-34.427 30.098-34.427 53.974 0 32.956 26.819 59.733 59.733 59.733h145.066c28.29 0 51.2-22.91 51.2-51.2z" fill="#ebebeb" fill-rule="nonzero"/><path d="M164.067 53.922c-.702.776-1.5 1.456-2.343 2.04-3.909 2.653-7.847 5.32-11.667 8.09-1.973 1.45-4.412 3.23-6.96 3.23h-.053c-2.556 0-4.987-1.78-6.96-3.23-3.82-2.792-7.759-5.437-11.645-8.09a13.008 13.008 0 0 1-2.372-2.04v18.614c0 2.061 1.692 3.746 3.753 3.746h34.5a3.756 3.756 0 0 0 3.747-3.746V53.922zm0-6.886c0-2.062-1.707-3.754-3.747-3.754h-34.5c-2.512 0-3.753 1.973-3.753 4.271 0 2.128 2.372 4.78 4.034 5.904 3.636 2.527 7.315 5.061 10.944 7.618 1.522 1.05 4.1 3.207 6 3.207h.051c1.892 0 4.47-2.158 6-3.207 3.628-2.557 7.308-5.091 10.966-7.618 2.061-1.434 4.005-3.798 4.005-6.421zM253.655 62.036a.764.764 0 0 1-.747.746h-37.5a.77.77 0 0 1-.753-.746v-19.5c0-.4.354-.754.753-.754h37.5a.77.77 0 0 1 .747.754v19.5zm3-19.5c0-2.062-1.685-3.754-3.747-3.754h-37.5a3.769 3.769 0 0 0-3.753 3.754v25.5c0 2.061 1.692 3.746 3.753 3.746h12.747c0 2.04-1.5 3.635-1.5 4.5 0 .82.68 1.5 1.5 1.5h12c.82 0 1.5-.68 1.5-1.5s-1.5-2.505-1.5-4.5h12.753a3.756 3.756 0 0 0 3.747-3.746v-25.5zM334.242 70.282c0 .82-.68 1.5-1.5 1.5s-1.5-.68-1.5-1.5.68-1.5 1.5-1.5 1.5.68 1.5 1.5zm6 0c0 .82-.68 1.5-1.5 1.5s-1.5-.68-1.5-1.5.68-1.5 1.5-1.5 1.5.68 1.5 1.5zm3-5.246a2.252 2.252 0 0 0-2.247-2.254h-10.877l-3.184 3.192a4.563 4.563 0 0 1-3.192 1.308c-1.19 0-2.32-.466-3.185-1.308l-3.163-3.192h-10.899a2.258 2.258 0 0 0-2.253 2.254v7.5a2.252 2.252 0 0 0 2.253 2.246h34.5a2.245 2.245 0 0 0 2.247-2.246v-7.5zm-7.611-13.338a1.527 1.527 0 0 0-1.39-.916h-6v-10.5c0-.82-.68-1.5-1.5-1.5h-6c-.82 0-1.5.68-1.5 1.5v10.5h-6c-.605 0-1.145.377-1.381.916-.23.562-.118 1.22.332 1.64l10.5 10.5c.281.304.68.444 1.05.444.377 0 .776-.14 1.056-.443l10.5-10.5c.444-.421.562-1.08.333-1.64zM334.22 119.503c-.629-.089-2.808-.28-5.343-.28-5.298 0-8.926 3.236-8.926 9.162v5.113h-5.978v6.938h5.978v17.786h7.168v-17.786h5.955l.909-6.938h-6.864v-4.434c0-1.987.539-3.369 3.42-3.369h3.68v-6.192zM223.655 155.222v-6h21v6h-21zm0-15v-15h15v3.754a2.252 2.252 0 0 0 2.253 2.246h3.747v9h-21zm27 1.5c0 .82-.68 1.5-1.5 1.5s-1.5-.68-1.5-1.5.68-1.5 1.5-1.5 1.5.68 1.5 1.5zm3 0c0-2.46-2.04-4.5-4.5-4.5h-1.5v-6c0-1.241-.702-2.948-1.59-3.842l-3.56-3.562c-.895-.894-2.602-1.596-3.85-1.596h-15.747a2.258 2.258 0 0 0-2.253 2.254v12.746h-1.5c-2.46 0-4.5 2.04-4.5 4.5v9.754a.77.77 0 0 0 .753.746h5.247v3.754a2.252 2.252 0 0 0 2.253 2.246h22.5a2.245 2.245 0 0 0 2.247-2.246v-3.754h5.253a.764.764 0 0 0 .747-.746v-9.754zM145.835 152.222a1.88 1.88 0 0 1-1.877 1.877 1.878 1.878 0 0 1-1.87-1.877c0-1.027.843-1.87 1.87-1.87 1.034 0 1.877.843 1.877 1.87zm4.876-3.746a.77.77 0 0 1-.753.746h-12a.764.764 0 0 1-.747-.746v-16.5a.77.77 0 0 1 .747-.754h12c.399 0 .753.355.753.754v16.5zm-4.5-19.877a.37.37 0 0 1-.376.377h-3.747a.37.37 0 0 1-.377-.377.37.37 0 0 1 .377-.377h3.747a.37.37 0 0 1 .376.377zm6.747-.377c0-1.64-1.36-3-3-3h-12c-1.64 0-3 1.36-3 3v24c0 1.64 1.36 3 3 3h12c1.64 0 3-1.36 3-3v-24z" fill="gray" fill-rule="nonzero"/><path d="M62.696 125.131l-5.724-5.741 15.684-15.702 5.741 5.741-15.701 15.702zm23.946-15.702c0-.91-.315-1.768-.963-2.415L75.071 96.406c-.647-.648-1.487-.963-2.415-.963-.91 0-1.768.315-2.398.963L1.359 165.304c-.648.648-.963 1.506-.963 2.416 0 .91.315 1.768.963 2.398l10.608 10.608c.648.648 1.505.963 2.416.963.91 0 1.768-.315 2.398-.963l68.898-68.88c.648-.649.963-1.506.963-2.417zM14.278 99.242l-1.61-5.252-1.611 5.252-5.252 1.61 5.252 1.61 1.61 5.252 1.61-5.251 5.252-1.61-5.251-1.611zm18.747 8.682l-3.22-10.503-3.204 10.503-10.503 3.22 10.503 3.204 3.203 10.503 3.221-10.503 10.503-3.203-10.503-3.221zm49.818 25.61l-1.61-5.252-1.61 5.251-5.252 1.61 5.252 1.611 1.61 5.252 1.61-5.252 5.252-1.61-5.252-1.61zM48.552 99.241l-1.61-5.252-1.594 5.252-5.251 1.61 5.251 1.61 1.593 5.252 1.61-5.251 5.252-1.61-5.251-1.611z" fill="#413a42" fill-rule="nonzero"/></svg>