<?xml version="1.0" encoding="UTF-8" standalone="no"?>
<svg
   xmlns:dc="http://purl.org/dc/elements/1.1/"
   xmlns:cc="http://creativecommons.org/ns#"
   xmlns:rdf="http://www.w3.org/1999/02/22-rdf-syntax-ns#"
   xmlns:svg="http://www.w3.org/2000/svg"
   xmlns="http://www.w3.org/2000/svg"
   xmlns:sodipodi="http://sodipodi.sourceforge.net/DTD/sodipodi-0.dtd"
   xmlns:inkscape="http://www.inkscape.org/namespaces/inkscape"
   version="1.1"
   x="0px"
   y="0px"
   viewBox="0 0 100 125"
   style="enable-background:new 0 0 100 100;"
   xml:space="preserve"
   id="svg2"
   inkscape:version="0.48.4 r9939"
   sodipodi:docname="noun_1051468_cc-2.svg"
   width="100%"
   height="100%"
   inkscape:export-filename="/home/kaore/Downloads/network.jpg.png"
   inkscape:export-xdpi="584.34998"
   inkscape:export-ydpi="584.34998"><metadata
     id="metadata16"><rdf:RDF><cc:Work
         rdf:about=""><dc:format>image/svg+xml</dc:format><dc:type
           rdf:resource="http://purl.org/dc/dcmitype/StillImage" /><dc:title></dc:title></cc:Work></rdf:RDF></metadata><defs
     id="defs14"><marker
       inkscape:stockid="Arrow1Send"
       orient="auto"
       refY="0.0"
       refX="0.0"
       id="Arrow1Send"
       style="overflow:visible;"><path
         id="path4178"
         d="M 0.0,0.0 L 5.0,-5.0 L -12.5,0.0 L 5.0,5.0 L 0.0,0.0 z "
         style="fill-rule:evenodd;stroke:#000000;stroke-width:1.0pt;"
         transform="scale(0.2) rotate(180) translate(6,0)" /></marker><marker
       inkscape:stockid="DotL"
       orient="auto"
       refY="0.0"
       refX="0.0"
       id="DotL"
       style="overflow:visible"><path
         id="path4224"
         d="M -2.5,-1.0 C -2.5,1.7600000 -4.7400000,4.0 -7.5,4.0 C -10.260000,4.0 -12.5,1.7600000 -12.5,-1.0 C -12.5,-3.7600000 -10.260000,-6.0 -7.5,-6.0 C -4.7400000,-6.0 -2.5,-3.7600000 -2.5,-1.0 z "
         style="fill-rule:evenodd;stroke:#000000;stroke-width:1.0pt"
         transform="scale(0.8) translate(7.4, 1)" /></marker></defs><sodipodi:namedview
     pagecolor="#ffffff"
     bordercolor="#666666"
     borderopacity="1"
     objecttolerance="10"
     gridtolerance="10"
     guidetolerance="10"
     inkscape:pageopacity="0"
     inkscape:pageshadow="2"
     inkscape:window-width="1920"
     inkscape:window-height="1056"
     id="namedview12"
     showgrid="false"
     inkscape:zoom="7.552"
     inkscape:cx="47.01356"
     inkscape:cy="75.517771"
     inkscape:window-x="0"
     inkscape:window-y="24"
     inkscape:window-maximized="1"
     inkscape:current-layer="svg2" /><g
     transform="matrix(0.10038843,0,0,0.10038843,44.90708,36.728489)"
     id="g3791"
     style="fill:#41acdd;fill-opacity:1;stroke:none"><path
       inkscape:connector-curvature="0"
       id="path3793"
       d="m 22.3,87.7 55.3,0 c 3.3,0 6,-2.7 6,-6 l 0,-55.9 c 0,-3.3 -2.7,-6 -6,-6 l -10.5,0 0,-5.5 c 0,-1.1 -0.9,-2 -2,-2 -1.1,0 -2,0.9 -2,2 l 0,5.5 -26.2,0 0,-5.5 c 0,-1.1 -0.9,-2 -2,-2 -1.1,0 -2,0.9 -2,2 l 0,5.5 -10.6,0 c -3.3,0 -6,2.7 -6,6 l 0,55.8 c 0,3.4 2.7,6.1 6,6.1 z m 55.4,-4 -55.4,0 c -1.1,0 -2,-0.9 -2,-2 l 0,-35.8 59.3,0 0,35.7 c 0.1,1.2 -0.8,2.1 -1.9,2.1 z m -55.4,-59.9 10.6,0 0,7.5 c 0,1.1 0.9,2 2,2 1.1,0 2,-0.9 2,-2 l 0,-7.5 26.2,0 0,7.5 c 0,1.1 0.9,2 2,2 1.1,0 2,-0.9 2,-2 l 0,-7.5 10.6,0 c 1.1,0 2,0.9 2,2 l 0,16.1 -59.4,0 0,-16.1 c 0,-1.1 0.9,-2 2,-2 z"
       style="fill:#41acdd;fill-opacity:1;stroke:none" /></g><g
     id="g4"
     transform="matrix(0.18831663,0,0,0.18831663,40.31063,52.551749)"
     style="fill:#41acdd;fill-opacity:1"
     inkscape:export-filename="C:\Users\Romain Lange\Dropbox\OA\Marketing\Illustrations\g4.png"
     inkscape:export-xdpi="133.72957"
     inkscape:export-ydpi="133.72957"><path
       d="m 22.3,87.7 55.3,0 c 3.3,0 6,-2.7 6,-6 l 0,-55.9 c 0,-3.3 -2.7,-6 -6,-6 l -10.5,0 0,-5.5 c 0,-1.1 -0.9,-2 -2,-2 -1.1,0 -2,0.9 -2,2 l 0,5.5 -26.2,0 0,-5.5 c 0,-1.1 -0.9,-2 -2,-2 -1.1,0 -2,0.9 -2,2 l 0,5.5 -10.6,0 c -3.3,0 -6,2.7 -6,6 l 0,55.8 c 0,3.4 2.7,6.1 6,6.1 z m 55.4,-4 -55.4,0 c -1.1,0 -2,-0.9 -2,-2 l 0,-35.8 59.3,0 0,35.7 c 0.1,1.2 -0.8,2.1 -1.9,2.1 z m -55.4,-59.9 10.6,0 0,7.5 c 0,1.1 0.9,2 2,2 1.1,0 2,-0.9 2,-2 l 0,-7.5 26.2,0 0,7.5 c 0,1.1 0.9,2 2,2 1.1,0 2,-0.9 2,-2 l 0,-7.5 10.6,0 c 1.1,0 2,0.9 2,2 l 0,16.1 -59.4,0 0,-16.1 c 0,-1.1 0.9,-2 2,-2 z"
       id="path6"
       inkscape:connector-curvature="0"
       style="fill:#41acdd;fill-opacity:1" /></g><g
     transform="matrix(0.10038843,0,0,0.10038843,25.15777,47.750189)"
     id="g4144"
     style="fill:#41acdd;fill-opacity:1;stroke:none"><path
       inkscape:connector-curvature="0"
       id="path4146"
       d="m 22.3,87.7 55.3,0 c 3.3,0 6,-2.7 6,-6 l 0,-55.9 c 0,-3.3 -2.7,-6 -6,-6 l -10.5,0 0,-5.5 c 0,-1.1 -0.9,-2 -2,-2 -1.1,0 -2,0.9 -2,2 l 0,5.5 -26.2,0 0,-5.5 c 0,-1.1 -0.9,-2 -2,-2 -1.1,0 -2,0.9 -2,2 l 0,5.5 -10.6,0 c -3.3,0 -6,2.7 -6,6 l 0,55.8 c 0,3.4 2.7,6.1 6,6.1 z m 55.4,-4 -55.4,0 c -1.1,0 -2,-0.9 -2,-2 l 0,-35.8 59.3,0 0,35.7 c 0.1,1.2 -0.8,2.1 -1.9,2.1 z m -55.4,-59.9 10.6,0 0,7.5 c 0,1.1 0.9,2 2,2 1.1,0 2,-0.9 2,-2 l 0,-7.5 26.2,0 0,7.5 c 0,1.1 0.9,2 2,2 1.1,0 2,-0.9 2,-2 l 0,-7.5 10.6,0 c 1.1,0 2,0.9 2,2 l 0,16.1 -59.4,0 0,-16.1 c 0,-1.1 0.9,-2 2,-2 z"
       style="fill:#41acdd;fill-opacity:1;stroke:none" /></g><g
     style="fill:#41acdd;fill-opacity:1;stroke:none"
     id="g3779"
     transform="matrix(0.10038843,0,0,0.10038843,25.15777,67.150399)"><path
       style="fill:#41acdd;fill-opacity:1;stroke:none"
       d="m 22.3,87.7 55.3,0 c 3.3,0 6,-2.7 6,-6 l 0,-55.9 c 0,-3.3 -2.7,-6 -6,-6 l -10.5,0 0,-5.5 c 0,-1.1 -0.9,-2 -2,-2 -1.1,0 -2,0.9 -2,2 l 0,5.5 -26.2,0 0,-5.5 c 0,-1.1 -0.9,-2 -2,-2 -1.1,0 -2,0.9 -2,2 l 0,5.5 -10.6,0 c -3.3,0 -6,2.7 -6,6 l 0,55.8 c 0,3.4 2.7,6.1 6,6.1 z m 55.4,-4 -55.4,0 c -1.1,0 -2,-0.9 -2,-2 l 0,-35.8 59.3,0 0,35.7 c 0.1,1.2 -0.8,2.1 -1.9,2.1 z m -55.4,-59.9 10.6,0 0,7.5 c 0,1.1 0.9,2 2,2 1.1,0 2,-0.9 2,-2 l 0,-7.5 26.2,0 0,7.5 c 0,1.1 0.9,2 2,2 1.1,0 2,-0.9 2,-2 l 0,-7.5 10.6,0 c 1.1,0 2,0.9 2,2 l 0,16.1 -59.4,0 0,-16.1 c 0,-1.1 0.9,-2 2,-2 z"
       id="path3781"
       inkscape:connector-curvature="0" /></g><g
     transform="matrix(0.10038843,0,0,0.10038843,64.60652,67.150399)"
     id="g3783"
     style="fill:#41acdd;fill-opacity:1;stroke:none"><path
       inkscape:connector-curvature="0"
       id="path3785"
       d="m 22.3,87.7 55.3,0 c 3.3,0 6,-2.7 6,-6 l 0,-55.9 c 0,-3.3 -2.7,-6 -6,-6 l -10.5,0 0,-5.5 c 0,-1.1 -0.9,-2 -2,-2 -1.1,0 -2,0.9 -2,2 l 0,5.5 -26.2,0 0,-5.5 c 0,-1.1 -0.9,-2 -2,-2 -1.1,0 -2,0.9 -2,2 l 0,5.5 -10.6,0 c -3.3,0 -6,2.7 -6,6 l 0,55.8 c 0,3.4 2.7,6.1 6,6.1 z m 55.4,-4 -55.4,0 c -1.1,0 -2,-0.9 -2,-2 l 0,-35.8 59.3,0 0,35.7 c 0.1,1.2 -0.8,2.1 -1.9,2.1 z m -55.4,-59.9 10.6,0 0,7.5 c 0,1.1 0.9,2 2,2 1.1,0 2,-0.9 2,-2 l 0,-7.5 26.2,0 0,7.5 c 0,1.1 0.9,2 2,2 1.1,0 2,-0.9 2,-2 l 0,-7.5 10.6,0 c 1.1,0 2,0.9 2,2 l 0,16.1 -59.4,0 0,-16.1 c 0,-1.1 0.9,-2 2,-2 z"
       style="fill:#41acdd;fill-opacity:1;stroke:none" /></g><g
     style="fill:#41acdd;fill-opacity:1;stroke:none"
     id="g3787"
     transform="matrix(0.10038843,0,0,0.10038843,64.60652,47.700319)"><path
       style="fill:#41acdd;fill-opacity:1;stroke:none"
       d="m 22.3,87.7 55.3,0 c 3.3,0 6,-2.7 6,-6 l 0,-55.9 c 0,-3.3 -2.7,-6 -6,-6 l -10.5,0 0,-5.5 c 0,-1.1 -0.9,-2 -2,-2 -1.1,0 -2,0.9 -2,2 l 0,5.5 -26.2,0 0,-5.5 c 0,-1.1 -0.9,-2 -2,-2 -1.1,0 -2,0.9 -2,2 l 0,5.5 -10.6,0 c -3.3,0 -6,2.7 -6,6 l 0,55.8 c 0,3.4 2.7,6.1 6,6.1 z m 55.4,-4 -55.4,0 c -1.1,0 -2,-0.9 -2,-2 l 0,-35.8 59.3,0 0,35.7 c 0.1,1.2 -0.8,2.1 -1.9,2.1 z m -55.4,-59.9 10.6,0 0,7.5 c 0,1.1 0.9,2 2,2 1.1,0 2,-0.9 2,-2 l 0,-7.5 26.2,0 0,7.5 c 0,1.1 0.9,2 2,2 1.1,0 2,-0.9 2,-2 l 0,-7.5 10.6,0 c 1.1,0 2,0.9 2,2 l 0,16.1 -59.4,0 0,-16.1 c 0,-1.1 0.9,-2 2,-2 z"
       id="path3789"
       inkscape:connector-curvature="0" /></g><g
     style="fill:#41acdd;fill-opacity:1;stroke:none"
     id="g3795"
     transform="matrix(0.10038843,0,0,0.10038843,44.90708,78.770569)"><path
       style="fill:#41acdd;fill-opacity:1;stroke:none"
       d="m 22.3,87.7 55.3,0 c 3.3,0 6,-2.7 6,-6 l 0,-55.9 c 0,-3.3 -2.7,-6 -6,-6 l -10.5,0 0,-5.5 c 0,-1.1 -0.9,-2 -2,-2 -1.1,0 -2,0.9 -2,2 l 0,5.5 -26.2,0 0,-5.5 c 0,-1.1 -0.9,-2 -2,-2 -1.1,0 -2,0.9 -2,2 l 0,5.5 -10.6,0 c -3.3,0 -6,2.7 -6,6 l 0,55.8 c 0,3.4 2.7,6.1 6,6.1 z m 55.4,-4 -55.4,0 c -1.1,0 -2,-0.9 -2,-2 l 0,-35.8 59.3,0 0,35.7 c 0.1,1.2 -0.8,2.1 -1.9,2.1 z m -55.4,-59.9 10.6,0 0,7.5 c 0,1.1 0.9,2 2,2 1.1,0 2,-0.9 2,-2 l 0,-7.5 26.2,0 0,7.5 c 0,1.1 0.9,2 2,2 1.1,0 2,-0.9 2,-2 l 0,-7.5 10.6,0 c 1.1,0 2,0.9 2,2 l 0,16.1 -59.4,0 0,-16.1 c 0,-1.1 0.9,-2 2,-2 z"
       id="path3797"
       inkscape:connector-curvature="0" /></g><path
     sodipodi:type="arc"
     style="fill:#41acdd;fill-opacity:1;stroke:none"
     id="path5351"
     sodipodi:cx="-237.91821"
     sodipodi:cy="-52.151222"
     sodipodi:rx="2.0598979"
     sodipodi:ry="2.0598979"
     d="m -235.85831,-52.151222 a 2.0598979,2.0598979 0 1 1 -4.1198,0 2.0598979,2.0598979 0 1 1 4.1198,0 z"
     transform="matrix(0.18831663,0,0,0.18831663,78.66946,81.821359)" /><g
     id="g5355"
     transform="matrix(0.18831663,0,0,0.18831663,87.37987,76.796119)"><path
       transform="translate(-2.5080929e-7,-0.37452681)"
       d="m -235.85831,-52.151222 c 0,1.13765 -0.92225,2.059898 -2.0599,2.059898 -1.13765,0 -2.0599,-0.922248 -2.0599,-2.059898 0,-1.13765 0.92225,-2.059898 2.0599,-2.059898 1.13765,0 2.0599,0.922248 2.0599,2.059898 z"
       sodipodi:ry="2.0598979"
       sodipodi:rx="2.0598979"
       sodipodi:cy="-52.151222"
       sodipodi:cx="-237.91821"
       id="path5341"
       style="fill:#41acdd;fill-opacity:1;stroke:none"
       sodipodi:type="arc" /><path
       sodipodi:type="arc"
       style="fill:#41acdd;fill-opacity:1;stroke:none"
       id="path5345"
       sodipodi:cx="-237.91821"
       sodipodi:cy="-52.151222"
       sodipodi:rx="2.0598979"
       sodipodi:ry="2.0598979"
       d="m -235.85831,-52.151222 c 0,1.13765 -0.92225,2.059898 -2.0599,2.059898 -1.13765,0 -2.0599,-0.922248 -2.0599,-2.059898 0,-1.13765 0.92225,-2.059898 2.0599,-2.059898 1.13765,0 2.0599,0.922248 2.0599,2.059898 z"
       transform="translate(-11.235807,6.2733256)" /><path
       transform="translate(-23.033404,13.108441)"
       d="m -235.85831,-52.151222 c 0,1.13765 -0.92225,2.059898 -2.0599,2.059898 -1.13765,0 -2.0599,-0.922248 -2.0599,-2.059898 0,-1.13765 0.92225,-2.059898 2.0599,-2.059898 1.13765,0 2.0599,0.922248 2.0599,2.059898 z"
       sodipodi:ry="2.0598979"
       sodipodi:rx="2.0598979"
       sodipodi:cy="-52.151222"
       sodipodi:cx="-237.91821"
       id="path5347"
       style="fill:#41acdd;fill-opacity:1;stroke:none"
       sodipodi:type="arc" /><path
       sodipodi:type="arc"
       style="fill:#41acdd;fill-opacity:1;stroke:none"
       id="path5349"
       sodipodi:cx="-237.91821"
       sodipodi:cy="-52.151222"
       sodipodi:rx="2.0598979"
       sodipodi:ry="2.0598979"
       d="m -235.85831,-52.151222 c 0,1.13765 -0.92225,2.059898 -2.0599,2.059898 -1.13765,0 -2.0599,-0.922248 -2.0599,-2.059898 0,-1.13765 0.92225,-2.059898 2.0599,-2.059898 1.13765,0 2.0599,0.922248 2.0599,2.059898 z"
       transform="translate(-34.269211,20.037189)" /><path
       sodipodi:type="arc"
       style="fill:#41acdd;fill-opacity:1;stroke:none"
       id="path5353"
       sodipodi:cx="-237.91821"
       sodipodi:cy="-52.151222"
       sodipodi:rx="2.0598979"
       sodipodi:ry="2.0598979"
       d="m -235.85831,-52.151222 c 0,1.13765 -0.92225,2.059898 -2.0599,2.059898 -1.13765,0 -2.0599,-0.922248 -2.0599,-2.059898 0,-1.13765 0.92225,-2.059898 2.0599,-2.059898 1.13765,0 2.0599,0.922248 2.0599,2.059898 z"
       transform="translate(-46.254072,26.685041)" /></g><g
     id="g5362"
     transform="matrix(0.09415832,-0.16308699,0.16308699,0.09415832,80.92272,36.969439)"><path
       sodipodi:type="arc"
       style="fill:#41acdd;fill-opacity:1;stroke:none"
       id="path5364"
       sodipodi:cx="-237.91821"
       sodipodi:cy="-52.151222"
       sodipodi:rx="2.0598979"
       sodipodi:ry="2.0598979"
       d="m -235.85831,-52.151222 c 0,1.13765 -0.92225,2.059898 -2.0599,2.059898 -1.13765,0 -2.0599,-0.922248 -2.0599,-2.059898 0,-1.13765 0.92225,-2.059898 2.0599,-2.059898 1.13765,0 2.0599,0.922248 2.0599,2.059898 z"
       transform="translate(-2.5080929e-7,-0.37452681)" /><path
       transform="translate(-11.235807,6.2733256)"
       d="m -235.85831,-52.151222 c 0,1.13765 -0.92225,2.059898 -2.0599,2.059898 -1.13765,0 -2.0599,-0.922248 -2.0599,-2.059898 0,-1.13765 0.92225,-2.059898 2.0599,-2.059898 1.13765,0 2.0599,0.922248 2.0599,2.059898 z"
       sodipodi:ry="2.0598979"
       sodipodi:rx="2.0598979"
       sodipodi:cy="-52.151222"
       sodipodi:cx="-237.91821"
       id="path5366"
       style="fill:#41acdd;fill-opacity:1;stroke:none"
       sodipodi:type="arc" /><path
       sodipodi:type="arc"
       style="fill:#41acdd;fill-opacity:1;stroke:none"
       id="path5368"
       sodipodi:cx="-237.91821"
       sodipodi:cy="-52.151222"
       sodipodi:rx="2.0598979"
       sodipodi:ry="2.0598979"
       d="m -235.85831,-52.151222 c 0,1.13765 -0.92225,2.059898 -2.0599,2.059898 -1.13765,0 -2.0599,-0.922248 -2.0599,-2.059898 0,-1.13765 0.92225,-2.059898 2.0599,-2.059898 1.13765,0 2.0599,0.922248 2.0599,2.059898 z"
       transform="translate(-23.033404,13.108441)" /><path
       transform="translate(-34.269211,20.037189)"
       d="m -235.85831,-52.151222 c 0,1.13765 -0.92225,2.059898 -2.0599,2.059898 -1.13765,0 -2.0599,-0.922248 -2.0599,-2.059898 0,-1.13765 0.92225,-2.059898 2.0599,-2.059898 1.13765,0 2.0599,0.922248 2.0599,2.059898 z"
       sodipodi:ry="2.0598979"
       sodipodi:rx="2.0598979"
       sodipodi:cy="-52.151222"
       sodipodi:cx="-237.91821"
       id="path5370"
       style="fill:#41acdd;fill-opacity:1;stroke:none"
       sodipodi:type="arc" /><path
       transform="translate(-46.254072,26.685041)"
       d="m -235.85831,-52.151222 c 0,1.13765 -0.92225,2.059898 -2.0599,2.059898 -1.13765,0 -2.0599,-0.922248 -2.0599,-2.059898 0,-1.13765 0.92225,-2.059898 2.0599,-2.059898 1.13765,0 2.0599,0.922248 2.0599,2.059898 z"
       sodipodi:ry="2.0598979"
       sodipodi:rx="2.0598979"
       sodipodi:cy="-52.151222"
       sodipodi:cx="-237.91821"
       id="path5372"
       style="fill:#41acdd;fill-opacity:1;stroke:none"
       sodipodi:type="arc" /></g><g
     transform="matrix(-0.09415832,-0.16308699,0.16308699,-0.09415832,43.55309,23.262099)"
     id="g5374"
     inkscape:transform-center-x="2.6448568"
     inkscape:transform-center-y="1.6574429"><path
       transform="translate(-2.5080929e-7,-0.37452681)"
       d="m -235.85831,-52.151222 c 0,1.13765 -0.92225,2.059898 -2.0599,2.059898 -1.13765,0 -2.0599,-0.922248 -2.0599,-2.059898 0,-1.13765 0.92225,-2.059898 2.0599,-2.059898 1.13765,0 2.0599,0.922248 2.0599,2.059898 z"
       sodipodi:ry="2.0598979"
       sodipodi:rx="2.0598979"
       sodipodi:cy="-52.151222"
       sodipodi:cx="-237.91821"
       id="path5376"
       style="fill:#41acdd;fill-opacity:1;stroke:none"
       sodipodi:type="arc" /><path
       sodipodi:type="arc"
       style="fill:#41acdd;fill-opacity:1;stroke:none"
       id="path5378"
       sodipodi:cx="-237.91821"
       sodipodi:cy="-52.151222"
       sodipodi:rx="2.0598979"
       sodipodi:ry="2.0598979"
       d="m -235.85831,-52.151222 c 0,1.13765 -0.92225,2.059898 -2.0599,2.059898 -1.13765,0 -2.0599,-0.922248 -2.0599,-2.059898 0,-1.13765 0.92225,-2.059898 2.0599,-2.059898 1.13765,0 2.0599,0.922248 2.0599,2.059898 z"
       transform="translate(-11.235807,6.2733256)" /><path
       transform="translate(-23.033404,13.108441)"
       d="m -235.85831,-52.151222 c 0,1.13765 -0.92225,2.059898 -2.0599,2.059898 -1.13765,0 -2.0599,-0.922248 -2.0599,-2.059898 0,-1.13765 0.92225,-2.059898 2.0599,-2.059898 1.13765,0 2.0599,0.922248 2.0599,2.059898 z"
       sodipodi:ry="2.0598979"
       sodipodi:rx="2.0598979"
       sodipodi:cy="-52.151222"
       sodipodi:cx="-237.91821"
       id="path5380"
       style="fill:#41acdd;fill-opacity:1;stroke:none"
       sodipodi:type="arc" /><path
       sodipodi:type="arc"
       style="fill:#41acdd;fill-opacity:1;stroke:none"
       id="path5382"
       sodipodi:cx="-237.91821"
       sodipodi:cy="-52.151222"
       sodipodi:rx="2.0598979"
       sodipodi:ry="2.0598979"
       d="m -235.85831,-52.151222 c 0,1.13765 -0.92225,2.059898 -2.0599,2.059898 -1.13765,0 -2.0599,-0.922248 -2.0599,-2.059898 0,-1.13765 0.92225,-2.059898 2.0599,-2.059898 1.13765,0 2.0599,0.922248 2.0599,2.059898 z"
       transform="translate(-34.269211,20.037189)" /><path
       sodipodi:type="arc"
       style="fill:#41acdd;fill-opacity:1;stroke:none"
       id="path5384"
       sodipodi:cx="-237.91821"
       sodipodi:cy="-52.151222"
       sodipodi:rx="2.0598979"
       sodipodi:ry="2.0598979"
       d="m -235.85831,-52.151222 c 0,1.13765 -0.92225,2.059898 -2.0599,2.059898 -1.13765,0 -2.0599,-0.922248 -2.0599,-2.059898 0,-1.13765 0.92225,-2.059898 2.0599,-2.059898 1.13765,0 2.0599,0.922248 2.0599,2.059898 z"
       transform="translate(-46.254072,26.685041)" /></g><g
     inkscape:transform-center-y="3.1192396"
     inkscape:transform-center-x="-0.11295946"
     id="g5386"
     transform="matrix(-0.18831663,0,0,-0.18831663,12.6562,48.073399)"><path
       sodipodi:type="arc"
       style="fill:#41acdd;fill-opacity:1;stroke:none"
       id="path5388"
       sodipodi:cx="-237.91821"
       sodipodi:cy="-52.151222"
       sodipodi:rx="2.0598979"
       sodipodi:ry="2.0598979"
       d="m -235.85831,-52.151222 c 0,1.13765 -0.92225,2.059898 -2.0599,2.059898 -1.13765,0 -2.0599,-0.922248 -2.0599,-2.059898 0,-1.13765 0.92225,-2.059898 2.0599,-2.059898 1.13765,0 2.0599,0.922248 2.0599,2.059898 z"
       transform="translate(-2.5080929e-7,-0.37452681)" /><path
       transform="translate(-11.235807,6.2733256)"
       d="m -235.85831,-52.151222 c 0,1.13765 -0.92225,2.059898 -2.0599,2.059898 -1.13765,0 -2.0599,-0.922248 -2.0599,-2.059898 0,-1.13765 0.92225,-2.059898 2.0599,-2.059898 1.13765,0 2.0599,0.922248 2.0599,2.059898 z"
       sodipodi:ry="2.0598979"
       sodipodi:rx="2.0598979"
       sodipodi:cy="-52.151222"
       sodipodi:cx="-237.91821"
       id="path5390"
       style="fill:#41acdd;fill-opacity:1;stroke:none"
       sodipodi:type="arc" /><path
       sodipodi:type="arc"
       style="fill:#41acdd;fill-opacity:1;stroke:none"
       id="path5392"
       sodipodi:cx="-237.91821"
       sodipodi:cy="-52.151222"
       sodipodi:rx="2.0598979"
       sodipodi:ry="2.0598979"
       d="m -235.85831,-52.151222 c 0,1.13765 -0.92225,2.059898 -2.0599,2.059898 -1.13765,0 -2.0599,-0.922248 -2.0599,-2.059898 0,-1.13765 0.92225,-2.059898 2.0599,-2.059898 1.13765,0 2.0599,0.922248 2.0599,2.059898 z"
       transform="translate(-23.033404,13.108441)" /><path
       transform="translate(-34.269211,20.037189)"
       d="m -235.85831,-52.151222 c 0,1.13765 -0.92225,2.059898 -2.0599,2.059898 -1.13765,0 -2.0599,-0.922248 -2.0599,-2.059898 0,-1.13765 0.92225,-2.059898 2.0599,-2.059898 1.13765,0 2.0599,0.922248 2.0599,2.059898 z"
       sodipodi:ry="2.0598979"
       sodipodi:rx="2.0598979"
       sodipodi:cy="-52.151222"
       sodipodi:cx="-237.91821"
       id="path5394"
       style="fill:#41acdd;fill-opacity:1;stroke:none"
       sodipodi:type="arc" /><path
       transform="translate(-46.254072,26.685041)"
       d="m -235.85831,-52.151222 c 0,1.13765 -0.92225,2.059898 -2.0599,2.059898 -1.13765,0 -2.0599,-0.922248 -2.0599,-2.059898 0,-1.13765 0.92225,-2.059898 2.0599,-2.059898 1.13765,0 2.0599,0.922248 2.0599,2.059898 z"
       sodipodi:ry="2.0598979"
       sodipodi:rx="2.0598979"
       sodipodi:cy="-52.151222"
       sodipodi:cx="-237.91821"
       id="path5396"
       style="fill:#41acdd;fill-opacity:1;stroke:none"
       sodipodi:type="arc" /></g><g
     transform="matrix(-0.09415832,0.16308699,-0.16308699,-0.09415832,18.95654,89.910179)"
     id="g5398"
     inkscape:transform-center-x="-2.7356793"
     inkscape:transform-center-y="1.4617973"><path
       transform="translate(-2.5080929e-7,-0.37452681)"
       d="m -235.85831,-52.151222 c 0,1.13765 -0.92225,2.059898 -2.0599,2.059898 -1.13765,0 -2.0599,-0.922248 -2.0599,-2.059898 0,-1.13765 0.92225,-2.059898 2.0599,-2.059898 1.13765,0 2.0599,0.922248 2.0599,2.059898 z"
       sodipodi:ry="2.0598979"
       sodipodi:rx="2.0598979"
       sodipodi:cy="-52.151222"
       sodipodi:cx="-237.91821"
       id="path5400"
       style="fill:#41acdd;fill-opacity:1;stroke:none"
       sodipodi:type="arc" /><path
       sodipodi:type="arc"
       style="fill:#41acdd;fill-opacity:1;stroke:none"
       id="path5402"
       sodipodi:cx="-237.91821"
       sodipodi:cy="-52.151222"
       sodipodi:rx="2.0598979"
       sodipodi:ry="2.0598979"
       d="m -235.85831,-52.151222 c 0,1.13765 -0.92225,2.059898 -2.0599,2.059898 -1.13765,0 -2.0599,-0.922248 -2.0599,-2.059898 0,-1.13765 0.92225,-2.059898 2.0599,-2.059898 1.13765,0 2.0599,0.922248 2.0599,2.059898 z"
       transform="translate(-11.235807,6.2733256)" /><path
       transform="translate(-23.033404,13.108441)"
       d="m -235.85831,-52.151222 c 0,1.13765 -0.92225,2.059898 -2.0599,2.059898 -1.13765,0 -2.0599,-0.922248 -2.0599,-2.059898 0,-1.13765 0.92225,-2.059898 2.0599,-2.059898 1.13765,0 2.0599,0.922248 2.0599,2.059898 z"
       sodipodi:ry="2.0598979"
       sodipodi:rx="2.0598979"
       sodipodi:cy="-52.151222"
       sodipodi:cx="-237.91821"
       id="path5404"
       style="fill:#41acdd;fill-opacity:1;stroke:none"
       sodipodi:type="arc" /><path
       sodipodi:type="arc"
       style="fill:#41acdd;fill-opacity:1;stroke:none"
       id="path5406"
       sodipodi:cx="-237.91821"
       sodipodi:cy="-52.151222"
       sodipodi:rx="2.0598979"
       sodipodi:ry="2.0598979"
       d="m -235.85831,-52.151222 c 0,1.13765 -0.92225,2.059898 -2.0599,2.059898 -1.13765,0 -2.0599,-0.922248 -2.0599,-2.059898 0,-1.13765 0.92225,-2.059898 2.0599,-2.059898 1.13765,0 2.0599,0.922248 2.0599,2.059898 z"
       transform="translate(-34.269211,20.037189)" /><path
       sodipodi:type="arc"
       style="fill:#41acdd;fill-opacity:1;stroke:none"
       id="path5408"
       sodipodi:cx="-237.91821"
       sodipodi:cy="-52.151222"
       sodipodi:rx="2.0598979"
       sodipodi:ry="2.0598979"
       d="m -235.85831,-52.151222 c 0,1.13765 -0.92225,2.059898 -2.0599,2.059898 -1.13765,0 -2.0599,-0.922248 -2.0599,-2.059898 0,-1.13765 0.92225,-2.059898 2.0599,-2.059898 1.13765,0 2.0599,0.922248 2.0599,2.059898 z"
       transform="translate(-46.254072,26.685041)" /></g><g
     inkscape:transform-center-y="1.6574473"
     inkscape:transform-center-x="2.6448586"
     id="g5410"
     transform="matrix(-0.09415832,-0.16308699,0.16308699,-0.09415832,20.10198,9.3324994)"><path
       sodipodi:type="arc"
       style="fill:#41acdd;fill-opacity:1;stroke:none"
       id="path5412"
       sodipodi:cx="-237.91821"
       sodipodi:cy="-52.151222"
       sodipodi:rx="2.0598979"
       sodipodi:ry="2.0598979"
       d="m -235.85831,-52.151222 c 0,1.13765 -0.92225,2.059898 -2.0599,2.059898 -1.13765,0 -2.0599,-0.922248 -2.0599,-2.059898 0,-1.13765 0.92225,-2.059898 2.0599,-2.059898 1.13765,0 2.0599,0.922248 2.0599,2.059898 z"
       transform="translate(-2.5080929e-7,-0.37452681)" /><path
       transform="translate(-11.235807,6.2733256)"
       d="m -235.85831,-52.151222 c 0,1.13765 -0.92225,2.059898 -2.0599,2.059898 -1.13765,0 -2.0599,-0.922248 -2.0599,-2.059898 0,-1.13765 0.92225,-2.059898 2.0599,-2.059898 1.13765,0 2.0599,0.922248 2.0599,2.059898 z"
       sodipodi:ry="2.0598979"
       sodipodi:rx="2.0598979"
       sodipodi:cy="-52.151222"
       sodipodi:cx="-237.91821"
       id="path5414"
       style="fill:#41acdd;fill-opacity:1;stroke:none"
       sodipodi:type="arc" /><path
       sodipodi:type="arc"
       style="fill:#41acdd;fill-opacity:1;stroke:none"
       id="path5416"
       sodipodi:cx="-237.91821"
       sodipodi:cy="-52.151222"
       sodipodi:rx="2.0598979"
       sodipodi:ry="2.0598979"
       d="m -235.85831,-52.151222 c 0,1.13765 -0.92225,2.059898 -2.0599,2.059898 -1.13765,0 -2.0599,-0.922248 -2.0599,-2.059898 0,-1.13765 0.92225,-2.059898 2.0599,-2.059898 1.13765,0 2.0599,0.922248 2.0599,2.059898 z"
       transform="translate(-23.033404,13.108441)" /><path
       transform="translate(-34.269211,20.037189)"
       d="m -235.85831,-52.151222 c 0,1.13765 -0.92225,2.059898 -2.0599,2.059898 -1.13765,0 -2.0599,-0.922248 -2.0599,-2.059898 0,-1.13765 0.92225,-2.059898 2.0599,-2.059898 1.13765,0 2.0599,0.922248 2.0599,2.059898 z"
       sodipodi:ry="2.0598979"
       sodipodi:rx="2.0598979"
       sodipodi:cy="-52.151222"
       sodipodi:cx="-237.91821"
       id="path5418"
       style="fill:#41acdd;fill-opacity:1;stroke:none"
       sodipodi:type="arc" /><path
       transform="translate(-46.254072,26.685041)"
       d="m -235.85831,-52.151222 c 0,1.13765 -0.92225,2.059898 -2.0599,2.059898 -1.13765,0 -2.0599,-0.922248 -2.0599,-2.059898 0,-1.13765 0.92225,-2.059898 2.0599,-2.059898 1.13765,0 2.0599,0.922248 2.0599,2.059898 z"
       sodipodi:ry="2.0598979"
       sodipodi:rx="2.0598979"
       sodipodi:cy="-52.151222"
       sodipodi:cx="-237.91821"
       id="path5420"
       style="fill:#41acdd;fill-opacity:1;stroke:none"
       sodipodi:type="arc" /></g></svg>