<svg viewBox="0 0 311 289" xmlns="http://www.w3.org/2000/svg" fill-rule="evenodd" clip-rule="evenodd" stroke-linejoin="round" stroke-miterlimit="1.414"><path d="M174.218 93.836c0 1.478-8.082 2.676-18.055 2.676-9.974 0-18.056-1.198-18.056-2.676 0-1.477 8.082-2.674 18.056-2.674 9.972 0 18.055 1.197 18.055 2.674" fill="#cdcdcc" fill-rule="nonzero"/><path d="M155.5.156c-18.015 0-32.625 14.608-32.625 32.625 0 5.661 1.43 10.983 3.969 15.625.256.576.617 1.171 1.062 1.781l.063.093a33.37 33.37 0 0 0 2.562 3.469l1.938 2.656c3.39 4.633 8.922 12.18 12.312 16.813l4.563 6.25c3.387 4.634 8.926 4.634 12.312 0l4.563-6.219c3.39-4.631 8.954-12.213 12.344-16.843l2.093-2.875a33.247 33.247 0 0 0 2.157-2.969l.312-.375a9.244 9.244 0 0 0 1.094-1.969 32.411 32.411 0 0 0 3.906-15.437c0-18.017-14.61-32.625-32.625-32.625zm0 4.718c14.895 0 26.969 12.075 26.969 26.969 0 14.896-12.074 26.969-26.97 26.969-14.895 0-26.968-12.073-26.968-26.969 0-14.894 12.073-26.969 26.969-26.969z" fill="#413a42" fill-rule="nonzero"/><path d="M170.14 12.597l.193.016.191.029.19.04.188.05.182.062.18.074.175.084.169.094.164.105.157.113.149.123.143.132.133.14.125.15.115.154.107.163.096.169.086.173.075.179.065.182.053.187.042.19.03.191.019.192.006.194-.004.194-.016.194-.029.191-.04.19-.05.188-.062.182-.074.18-.084.175-.094.169-.105.163-17.296 25.374-.916.075-16.895-17.753-.129-.145-.121-.152-.11-.158-.101-.167-.091-.171-.082-.176-.069-.18-.058-.185-.048-.188-.036-.191-.025-.193-.013-.193v-.194l.01-.193.023-.193.034-.19.045-.189.056-.185.069-.183.078-.176.09-.172.098-.167.11-.16.119-.153.127-.146.136-.138.145-.129.152-.121.159-.11.166-.101.171-.091.176-.082.18-.068.185-.06.188-.047.191-.036.193-.025.193-.012.194-.002.192.012.194.022.19.034.189.045.185.056.182.069.177.079.172.088.166.099.16.11.154.119.146.127.138.137 11.921 12.527 13.234-19.412.114-.158.122-.149.133-.142.14-.134.149-.125.155-.115.162-.106.169-.096.174-.087.178-.075.183-.065.186-.052.19-.043.191-.03.193-.018.194-.007.193.004z" fill="#41acdd"/><path d="M142.401 256.845c-1.862-2.682-2.896-5.896-2.896-9.14 0-.79.074-1.574.177-2.357a14.37 14.37 0 0 1-4.751.82c-4.818 0-8.534-3.037-9.28-3.037-4.538 0-4.434 9.717-4.434 12.606 0 3.968 3.362 5.682 6.93 5.682h4.789c2.394-2.86 5.749-4.47 9.465-4.574zm38.247 22.752c0-8.077-1.892-20.468-12.355-20.468-1.22 0-5.645 4.965-12.79 4.965-7.139 0-11.572-4.965-12.784-4.965-10.463 0-12.355 12.391-12.355 20.468 0 5.785 3.82 9.25 9.532 9.25h31.22c5.711 0 9.532-3.465 9.532-9.25zm-36.57-45.606c0-5.04-4.108-9.148-9.147-9.148-5.032 0-9.14 4.108-9.14 9.148 0 5.032 4.108 9.14 9.14 9.14 5.04 0 9.148-4.108 9.148-9.14zm25.139 13.714c0-7.574-6.14-13.714-13.715-13.714-7.566 0-13.714 6.14-13.714 13.714 0 7.566 6.148 13.714 13.714 13.714 7.574 0 13.715-6.148 13.715-13.714zm20.57 8.032c0-2.89.112-12.606-4.425-12.606-.747 0-4.463 3.037-9.288 3.037-1.64 0-3.215-.288-4.744-.82.103.783.177 1.566.177 2.357 0 3.244-1.034 6.458-2.896 9.14 3.716.104 7.071 1.715 9.465 4.574h4.788c3.57 0 6.924-1.714 6.924-5.682zm-4.566-21.746c0-5.04-4.108-9.148-9.147-9.148-5.032 0-9.14 4.108-9.14 9.148 0 5.032 4.108 9.14 9.14 9.14 5.039 0 9.147-4.108 9.147-9.14z" fill="gray" fill-rule="nonzero"/><path d="M21.271 206.68c-1.862-2.682-2.896-5.896-2.896-9.14 0-.79.074-1.574.177-2.357a14.37 14.37 0 0 1-4.751.82c-4.818 0-8.534-3.037-9.28-3.037-4.538 0-4.434 9.717-4.434 12.606 0 3.968 3.362 5.682 6.93 5.682h4.789c2.394-2.86 5.749-4.47 9.465-4.574zm38.247 22.752c0-8.077-1.892-20.468-12.355-20.468-1.22 0-5.645 4.965-12.79 4.965-7.139 0-11.572-4.965-12.784-4.965-10.463 0-12.355 12.391-12.355 20.468 0 5.785 3.82 9.25 9.532 9.25h31.22c5.711 0 9.532-3.465 9.532-9.25zm-36.57-45.606c0-5.04-4.108-9.148-9.147-9.148-5.032 0-9.14 4.108-9.14 9.148 0 5.032 4.108 9.14 9.14 9.14 5.04 0 9.148-4.108 9.148-9.14zm25.139 13.714c0-7.574-6.14-13.714-13.715-13.714-7.566 0-13.714 6.14-13.714 13.714 0 7.566 6.148 13.714 13.714 13.714 7.574 0 13.715-6.148 13.715-13.714zm20.57 8.032c0-2.89.112-12.606-4.425-12.606-.747 0-4.463 3.037-9.288 3.037-1.64 0-3.215-.288-4.744-.82.103.783.177 1.566.177 2.357 0 3.244-1.034 6.458-2.896 9.14 3.716.104 7.071 1.715 9.465 4.574h4.788c3.57 0 6.924-1.714 6.924-5.682zm-4.566-21.746c0-5.04-4.108-9.148-9.147-9.148-5.032 0-9.14 4.108-9.14 9.148 0 5.032 4.108 9.14 9.14 9.14 5.039 0 9.147-4.108 9.147-9.14z" fill="#413a42" fill-rule="nonzero"/><path d="M263.522 206.68c-1.862-2.682-2.896-5.896-2.896-9.14 0-.79.074-1.574.177-2.357a14.37 14.37 0 0 1-4.751.82c-4.818 0-8.534-3.037-9.28-3.037-4.538 0-4.434 9.717-4.434 12.606 0 3.968 3.362 5.682 6.93 5.682h4.789c2.394-2.86 5.749-4.47 9.465-4.574zm38.247 22.752c0-8.077-1.892-20.468-12.355-20.468-1.22 0-5.645 4.965-12.79 4.965-7.139 0-11.572-4.965-12.784-4.965-10.463 0-12.355 12.391-12.355 20.468 0 5.785 3.82 9.25 9.532 9.25h31.22c5.711 0 9.532-3.465 9.532-9.25zm-36.57-45.606c0-5.04-4.108-9.148-9.147-9.148-5.032 0-9.14 4.108-9.14 9.148 0 5.032 4.108 9.14 9.14 9.14 5.04 0 9.148-4.108 9.148-9.14zm25.139 13.714c0-7.574-6.14-13.714-13.715-13.714-7.566 0-13.714 6.14-13.714 13.714 0 7.566 6.148 13.714 13.714 13.714 7.574 0 13.715-6.148 13.715-13.714zm20.57 8.032c0-2.89.112-12.606-4.425-12.606-.747 0-4.463 3.037-9.288 3.037-1.64 0-3.215-.288-4.744-.82.103.783.177 1.566.177 2.357 0 3.244-1.034 6.458-2.896 9.14 3.716.104 7.071 1.715 9.465 4.574h4.788c3.57 0 6.924-1.714 6.924-5.682zm-4.566-21.746c0-5.04-4.108-9.148-9.147-9.148-5.032 0-9.14 4.108-9.14 9.148 0 5.032 4.108 9.14 9.14 9.14 5.039 0 9.147-4.108 9.147-9.14z" fill="#cdcdcc" fill-rule="nonzero"/><path d="M150.894 157.406l-9.213-.005 13.828-16.781 13.811 16.795-9.213-.005-.023 46.339c-3.093 2.452-6.164 2.376-9.213-.005l.023-46.338z" fill="gray"/><path d="M221.782 117.99l7.274-5.655-21.215-4.773-.607 21.737 7.274-5.655 28.44 36.585c3.947.04 6.325-1.904 7.273-5.654l-28.44-36.585z" fill="#cdcdcc"/><path d="M89.57 117.996l-7.274-5.655 21.215-4.773.607 21.737-7.274-5.655-28.44 36.585c-3.947.04-6.325-1.904-7.274-5.654l28.44-36.585z" fill="#413a42"/></svg>