<?xml version="1.0" encoding="UTF-8" standalone="no"?>
<!-- Created with Inkscape (http://www.inkscape.org/) -->

<svg
   width="20.642736mm"
   height="23.508173mm"
   viewBox="0 0 20.642736 23.508172"
   version="1.1"
   id="svg690"
   inkscape:version="1.2 (1:1.2.1+202207142221+cd75a1ee6d)"
   sodipodi:docname="agenda.svg"
   xml:space="preserve"
   xmlns:inkscape="http://www.inkscape.org/namespaces/inkscape"
   xmlns:sodipodi="http://sodipodi.sourceforge.net/DTD/sodipodi-0.dtd"
   xmlns="http://www.w3.org/2000/svg"
   xmlns:svg="http://www.w3.org/2000/svg"><sodipodi:namedview
     id="namedview692"
     pagecolor="#ffffff"
     bordercolor="#666666"
     borderopacity="1.0"
     inkscape:showpageshadow="2"
     inkscape:pageopacity="0.0"
     inkscape:pagecheckerboard="0"
     inkscape:deskcolor="#d1d1d1"
     inkscape:document-units="mm"
     showgrid="false"
     inkscape:zoom="6.1814899"
     inkscape:cx="-6.7944784"
     inkscape:cy="23.214468"
     inkscape:window-width="1920"
     inkscape:window-height="1136"
     inkscape:window-x="0"
     inkscape:window-y="27"
     inkscape:window-maximized="1"
     inkscape:current-layer="layer1" /><defs
     id="defs687" /><g
     inkscape:label="Calque 1"
     inkscape:groupmode="layer"
     id="layer1"
     transform="translate(-46.99993,-10.710629)"><path
       id="path16816"
       style="fill:#41acdd;fill-opacity:1;stroke-width:0.118944"
       sodipodi:type="inkscape:offset"
       inkscape:radius="0.32695574"
       inkscape:original="M 52.685547 11.037109 L 52.507812 11.185547 L 52.330078 11.333984 L 52.330078 12.615234 L 52.330078 13.896484 L 50.873047 13.943359 L 49.416016 13.988281 L 48.744141 14.287109 C 48.4698 14.409353 48.081308 14.754152 47.664062 15.296875 L 47.392578 16.003906 L 47.359375 23.599609 L 47.326172 31.197266 L 47.513672 31.845703 L 47.703125 32.496094 L 48.222656 33.015625 L 48.742188 33.535156 L 49.316406 33.712891 L 49.892578 33.892578 L 57.564453 33.869141 L 65.236328 33.845703 L 65.710938 33.587891 C 66.333784 33.251804 66.771597 32.78102 67.070312 32.121094 L 67.3125 31.583984 L 67.314453 23.986328 L 67.316406 16.388672 L 67.220703 15.857422 L 67.027344 15.408203 L 66.488281 14.759766 L 65.830078 14.210938 L 65.339844 14.066406 L 64.849609 13.921875 L 63.585938 13.921875 L 62.320312 13.921875 L 62.320312 12.628906 L 62.320312 11.333984 L 62.142578 11.185547 L 61.962891 11.037109 L 61.785156 11.185547 L 61.607422 11.333984 L 61.607422 12.628906 L 61.607422 13.921875 L 57.324219 13.921875 L 53.042969 13.921875 L 53.042969 12.628906 L 53.042969 11.333984 L 52.865234 11.185547 L 52.685547 11.037109 z M 49.728516 14.634766 L 51.029297 14.634766 L 52.330078 14.634766 L 52.330078 15.572266 L 52.330078 16.509766 L 52.507812 16.658203 L 52.685547 16.804688 L 52.865234 16.658203 L 53.042969 16.509766 L 53.042969 15.572266 L 53.042969 14.634766 L 57.324219 14.634766 L 61.607422 14.634766 L 61.607422 15.572266 L 61.607422 16.509766 L 61.785156 16.658203 L 61.962891 16.804688 L 62.142578 16.658203 L 62.320312 16.509766 L 62.320312 15.572266 L 62.320312 14.634766 L 63.650391 14.634766 L 64.980469 14.634766 L 65.496094 14.884766 L 65.992188 15.216797 L 66.306641 15.638672 L 66.603516 16.208984 L 66.603516 17.53125 L 66.603516 18.917969 L 57.324219 18.917969 L 48.046875 18.917969 L 48.046875 17.603516 L 48.046875 16.291016 L 48.273438 15.849609 C 48.546617 15.316905 48.941441 14.93265 49.392578 14.761719 L 49.728516 14.634766 z M 48.046875 19.630859 L 57.324219 19.630859 L 66.603516 19.630859 L 66.603516 25.582031 L 66.603516 31.533203 L 66.439453 31.916016 C 66.241408 32.378885 65.711527 32.892292 65.255859 33.064453 L 64.921875 33.191406 L 57.347656 33.1875 L 49.771484 33.185547 L 49.296875 32.966797 C 48.730957 32.706928 48.476921 32.441388 48.230469 31.851562 L 48.046875 31.414062 L 48.046875 25.523438 L 48.046875 19.630859 z "
       d="m 52.894531,10.785156 a 0.32698843,0.32698843 0 0 0 -0.417969,0.002 l -0.177734,0.148438 -0.177734,0.148437 a 0.32698843,0.32698843 0 0 0 -0.117188,0.25 v 1.28125 0.964844 l -1.140625,0.03711 -1.457031,0.04492 a 0.32698843,0.32698843 0 0 0 -0.123047,0.02734 l -0.671875,0.298828 c -0.378301,0.168568 -0.770798,0.541955 -1.207031,1.109375 a 0.32698843,0.32698843 0 0 0 -0.04492,0.08203 l -0.271484,0.707031 a 0.32698843,0.32698843 0 0 0 -0.02148,0.115234 l -0.0332,7.595703 L 47,31.195312 a 0.32698843,0.32698843 0 0 0 0.01172,0.09375 l 0.1875,0.648438 0.189453,0.650391 a 0.32698843,0.32698843 0 0 0 0.08398,0.138671 l 0.519532,0.519532 0.519531,0.519531 a 0.32698843,0.32698843 0 0 0 0.134765,0.08203 l 0.572266,0.177735 0.576172,0.179687 a 0.32698843,0.32698843 0 0 0 0.09961,0.01367 l 7.671875,-0.02344 7.671875,-0.02344 a 0.32698843,0.32698843 0 0 0 0.154297,-0.03906 L 65.865234,33.875 c 0.678791,-0.366275 1.179789,-0.903096 1.503907,-1.619141 l 0.242187,-0.537109 a 0.32698843,0.32698843 0 0 0 0.02734,-0.134766 l 0.002,-7.597656 0.002,-7.597656 a 0.32698843,0.32698843 0 0 0 -0.0039,-0.05859 l -0.0957,-0.53125 a 0.32698843,0.32698843 0 0 0 -0.02148,-0.07031 l -0.193359,-0.449219 a 0.32698843,0.32698843 0 0 0 -0.04883,-0.08008 l -0.539063,-0.648438 a 0.32698843,0.32698843 0 0 0 -0.04297,-0.04297 l -0.658204,-0.548828 a 0.32698843,0.32698843 0 0 0 -0.117187,-0.0625 l -0.490234,-0.144531 -0.490235,-0.144531 a 0.32698843,0.32698843 0 0 0 -0.0918,-0.01172 h -1.263671 -0.939454 v -0.966797 -1.294922 a 0.32698843,0.32698843 0 0 0 -0.117187,-0.25 l -0.177735,-0.148437 a 0.32698843,0.32698843 0 0 0 0,-0.002 l -0.179687,-0.148438 a 0.32698843,0.32698843 0 0 0 -0.417969,0.002 l -0.177734,0.148438 -0.177734,0.148437 a 0.32698843,0.32698843 0 0 0 -0.117188,0.25 v 1.294922 0.966797 h -3.957031 -3.955078 v -0.966797 -1.294922 a 0.32698843,0.32698843 0 0 0 -0.117188,-0.25 l -0.177734,-0.148437 a 0.32698843,0.32698843 0 0 0 0,-0.002 z m -3.101562,4.175782 h 1.236328 0.974609 v 0.611328 0.9375 a 0.32698843,0.32698843 0 0 0 0.117188,0.25 l 0.177734,0.148437 a 0.32698843,0.32698843 0 0 0 0.002,0.002 l 0.177735,0.146485 a 0.32698843,0.32698843 0 0 0 0.414062,0.002 l 0.179688,-0.146485 a 0.32698843,0.32698843 0 0 0 0.002,-0.0039 l 0.177734,-0.148437 a 0.32698843,0.32698843 0 0 0 0.117188,-0.25 v -0.9375 -0.611328 h 3.955078 3.957031 v 0.611328 0.9375 a 0.32698843,0.32698843 0 0 0 0.117188,0.25 l 0.177734,0.148437 a 0.32698843,0.32698843 0 0 0 0.002,0.002 l 0.177734,0.146485 a 0.32698843,0.32698843 0 0 0 0.414063,0.002 l 0.179687,-0.146485 a 0.32698843,0.32698843 0 0 0 0.002,-0.0039 l 0.177735,-0.148437 a 0.32698843,0.32698843 0 0 0 0.117187,-0.25 v -0.9375 -0.611328 h 1.003907 1.255859 l 0.427734,0.208984 0.429688,0.287109 0.265625,0.355469 0.248047,0.476562 v 1.242188 1.060547 h -8.953125 -8.951172 v -0.988281 -1.234375 l 0.191406,-0.371094 c 0.243941,-0.47569 0.584936,-0.793885 0.943359,-0.929688 z m -1.419922,4.996093 h 8.951172 8.953125 v 5.625 5.884766 l -0.138672,0.320312 c -0.149473,0.349346 -0.665025,0.844881 -0.998047,0.970703 a 0.32698843,0.32698843 0 0 0 0,0.002 l -0.279297,0.105468 -7.513672,-0.0039 -7.503906,-0.002 -0.410156,-0.189453 c -0.52288,-0.240106 -0.673248,-0.397023 -0.902344,-0.945313 l -0.158203,-0.376953 v -5.824218 z" /><path
       id="path1061"
       style="fill:#41acdd;fill-opacity:1;stroke-width:0.780295;stroke-dasharray:none"
       sodipodi:type="inkscape:offset"
       inkscape:radius="-0.023465671"
       inkscape:original="M 48.884766 22.091797 C 47.987339 22.159675 47.110603 22.77548 46.912109 23.902344 L 46.84375 24.294922 C 46.836484 24.336845 46.837065 24.380666 46.847656 24.421875 L 46.951172 24.828125 C 47.151066 25.616537 47.709272 26.212008 48.462891 26.423828 C 49.887019 26.824113 51.273438 25.776192 51.273438 24.296875 C 51.273438 22.989054 50.29162 22.190616 49.269531 22.097656 C 49.143103 22.086158 49.014178 22.082008 48.884766 22.091797 z M 58.132812 22.091797 C 57.23571 22.159708 56.360553 22.775759 56.162109 23.902344 L 56.09375 24.294922 C 56.086484 24.336845 56.087065 24.380666 56.097656 24.421875 L 56.201172 24.828125 C 56.400939 25.616046 56.957147 26.211963 57.710938 26.423828 C 59.135128 26.824129 60.523437 25.776474 60.523438 24.296875 C 60.523438 22.988733 59.539612 22.190612 58.517578 22.097656 C 58.39115 22.086158 58.262194 22.082003 58.132812 22.091797 z M 48.820312 23.046875 L 49.148438 23.066406 C 49.831718 23.109915 50.265085 23.543283 50.308594 24.226562 L 50.330078 24.556641 L 50.195312 24.832031 C 50.04804 25.13227 49.79621 25.359882 49.498047 25.466797 C 48.716821 25.746051 47.834701 25.112367 47.84375 24.273438 C 47.848801 23.80487 48.108076 23.395055 48.542969 23.181641 L 48.820312 23.046875 z M 58.066406 23.046875 L 58.398438 23.066406 C 58.847189 23.094981 59.157692 23.280407 59.382812 23.644531 C 59.514271 23.857177 59.54014 23.93683 59.558594 24.226562 L 59.580078 24.556641 L 59.443359 24.832031 C 59.295675 25.133112 59.044793 25.360025 58.746094 25.466797 C 57.964868 25.746051 57.082756 25.112369 57.091797 24.273438 C 57.09685 23.804692 57.357313 23.392835 57.792969 23.179688 L 58.066406 23.046875 z M 53.681641 24.78125 C 52.686555 24.786946 51.687644 25.330535 51.203125 26.378906 L 51.021484 26.769531 C 51.003511 26.807838 50.99295 26.85027 50.992188 26.892578 A 0.18529937 0.18529937 0 0 0 50.992188 26.896484 L 50.992188 27.603516 L 50.992188 28.310547 A 0.18529937 0.18529937 0 0 0 50.992188 28.316406 C 50.99372 28.360167 51.005552 28.404327 51.025391 28.443359 L 51.025391 28.445312 C 51.026045 28.44658 51.026671 28.44796 51.027344 28.449219 L 51.207031 28.8125 C 51.576879 29.565862 52.310005 30.132175 53.132812 30.304688 C 54.355118 30.560962 55.613131 29.93868 56.169922 28.810547 C 56.169922 28.810547 56.171875 28.808594 56.171875 28.808594 A 0.18529937 0.18529937 0 0 0 56.173828 28.808594 L 56.382812 28.380859 A 0.18529937 0.18529937 0 0 0 56.382812 28.378906 C 56.402681 28.338058 56.414021 28.293471 56.414062 28.248047 L 56.414062 27.572266 L 56.414062 26.896484 C 56.414021 26.85106 56.402681 26.806473 56.382812 26.765625 L 56.384766 26.765625 L 56.185547 26.349609 C 55.686222 25.307043 54.676632 24.775554 53.681641 24.78125 z M 53.169922 25.787109 L 53.703125 25.787109 L 54.240234 25.787109 L 54.496094 25.921875 C 54.865762 26.116687 55.268022 26.569926 55.408203 26.941406 A 0.18529937 0.18529937 0 0 0 55.408203 26.943359 L 55.53125 27.265625 L 55.505859 27.660156 C 55.46262 28.359514 55.047968 28.966103 54.429688 29.240234 C 53.893479 29.477977 53.048502 29.372947 52.619141 29.027344 C 52.068353 28.584004 51.839505 27.974888 51.894531 27.392578 C 51.949557 26.810269 52.2902 26.255849 52.914062 25.923828 L 53.169922 25.787109 z M 50.199219 26.683594 L 48.849609 26.703125 L 47.501953 26.722656 A 0.18529937 0.18529937 0 0 0 47.494141 26.722656 C 47.452094 26.7249 47.410551 26.736722 47.373047 26.755859 L 47.371094 26.755859 C 47.369818 26.756521 47.368453 26.757133 47.367188 26.757812 L 47.056641 26.912109 C 46.359206 27.255366 45.905196 27.894728 45.751953 28.71875 L 45.681641 29.099609 A 0.18529937 0.18529937 0 0 0 45.681641 29.101562 C 45.670969 29.162985 45.678071 29.227014 45.705078 29.283203 L 45.792969 29.466797 L 45.792969 29.46875 A 0.18529937 0.18529937 0 0 0 45.792969 29.470703 C 45.86522 29.621393 45.984834 29.748563 46.130859 29.837891 L 46.085938 29.726562 A 0.18529937 0.18529937 0 0 0 46.173828 29.871094 A 0.18529937 0.18529937 0 0 0 46.179688 29.878906 C 46.273985 29.926601 46.366112 29.935998 46.46875 29.947266 C 46.577204 29.959171 46.713653 29.968048 46.894531 29.974609 C 47.256622 29.987747 47.792615 29.993787 48.574219 29.994141 L 50.669922 29.994141 C 50.757968 29.993806 50.846189 29.952559 50.902344 29.884766 L 50.904297 29.882812 L 50.974609 29.796875 A 0.18529937 0.18529937 0 0 0 50.986328 29.783203 L 51.064453 29.685547 C 51.149252 29.578012 51.148183 29.409924 51.060547 29.304688 L 50.982422 29.210938 L 50.904297 29.117188 C 50.84859 29.048634 50.760193 29.006758 50.671875 29.005859 L 50.669922 29.005859 L 48.544922 28.988281 L 46.722656 28.974609 L 46.722656 28.925781 C 46.731021 28.469063 47.050058 27.985976 47.503906 27.775391 L 47.701172 27.685547 L 49 27.683594 L 50.365234 27.681641 C 50.486717 27.682609 50.604459 27.601528 50.648438 27.488281 L 50.689453 27.382812 A 0.18529937 0.18529937 0 0 0 50.691406 27.373047 C 50.769419 27.157139 50.656783 26.946967 50.503906 26.833984 A 0.18529937 0.18529937 0 0 0 50.503906 26.832031 L 50.382812 26.744141 L 50.380859 26.742188 C 50.329148 26.703903 50.265517 26.683437 50.201172 26.683594 A 0.18529937 0.18529937 0 0 0 50.199219 26.683594 z M 59.613281 26.683594 L 58.355469 26.703125 L 57.099609 26.722656 A 0.18529937 0.18529937 0 0 0 57.097656 26.722656 C 56.99581 26.724591 56.897955 26.781698 56.845703 26.869141 L 56.789062 26.958984 C 56.717143 27.076036 56.680619 27.245001 56.740234 27.400391 A 0.18529937 0.18529937 0 0 0 56.742188 27.400391 L 56.775391 27.486328 C 56.818565 27.600061 56.934927 27.681841 57.056641 27.681641 L 58.417969 27.681641 L 59.708984 27.681641 L 59.978516 27.814453 C 60.403471 28.026216 60.725721 28.579651 60.708984 28.974609 L 58.863281 28.988281 L 56.734375 29.005859 C 56.646949 29.006749 56.559675 29.047907 56.503906 29.115234 L 56.425781 29.208984 L 56.345703 29.304688 C 56.256952 29.411817 56.256952 29.584277 56.345703 29.691406 L 56.427734 29.789062 A 0.18529937 0.18529937 0 0 0 56.427734 29.791016 L 56.509766 29.888672 C 56.56592 29.956465 56.654142 29.997712 56.742188 29.998047 A 0.18529937 0.18529937 0 0 0 56.744141 29.998047 L 58.923828 29.980469 L 61.103516 29.962891 C 61.189973 29.962316 61.274103 29.921362 61.330078 29.855469 L 61.492188 29.667969 L 61.65625 29.478516 C 61.709456 29.416406 61.735143 29.331332 61.726562 29.25 L 61.685547 28.861328 C 61.58614 27.893084 60.937397 27.055757 60.046875 26.796875 A 0.18529937 0.18529937 0 0 0 60.042969 26.796875 L 59.707031 26.699219 C 59.679275 26.690018 59.650323 26.684448 59.621094 26.683594 A 0.18529937 0.18529937 0 0 0 59.613281 26.683594 z M 53.427734 30.558594 L 51.740234 30.583984 A 0.18529937 0.18529937 0 0 0 51.738281 30.583984 C 51.703695 30.584861 51.668982 30.592975 51.636719 30.605469 L 51.636719 30.603516 L 51.208984 30.767578 C 49.96855 31.241251 49.131937 32.19431 48.871094 33.445312 C 48.797529 33.798133 48.779202 34.097375 48.863281 34.363281 C 48.949424 34.635706 49.158417 34.840474 49.423828 34.939453 C 49.423932 34.939492 49.44168 34.944883 49.443359 34.945312 C 49.445039 34.945743 49.445872 34.946925 49.447266 34.947266 C 49.450053 34.947947 49.453703 34.948439 49.457031 34.949219 C 49.463187 34.950662 49.467334 34.950736 49.480469 34.953125 C 49.490368 34.954875 49.500036 34.95636 49.505859 34.957031 C 49.521425 34.958823 49.533064 34.960403 49.541016 34.960938 C 49.562055 34.96235 49.589199 34.963634 49.623047 34.964844 C 49.68922 34.967207 49.776637 34.968788 49.888672 34.970703 C 50.113369 34.974544 50.431557 34.978129 50.818359 34.980469 C 51.591515 34.985144 52.643039 34.987578 53.789062 34.984375 L 57.951172 34.972656 C 58.036859 34.973336 58.122771 34.935151 58.179688 34.871094 L 58.367188 34.660156 A 0.18529937 0.18529937 0 0 0 58.371094 34.652344 C 58.693995 34.283201 58.673436 33.735389 58.513672 33.203125 C 58.352444 32.665991 58.026837 32.102052 57.574219 31.648438 C 57.113446 31.18665 56.68113 30.880184 56.0625 30.722656 C 55.445686 30.56559 54.666055 30.540415 53.427734 30.558594 z M 53.666016 31.535156 C 54.112213 31.532765 54.558841 31.537909 54.919922 31.548828 C 55.099793 31.554267 55.261403 31.56153 55.386719 31.570312 C 55.512035 31.579096 55.613936 31.5921 55.621094 31.59375 C 56.209396 31.729377 57.034015 32.330272 57.318359 32.816406 C 57.448696 33.039246 57.560037 33.366042 57.609375 33.636719 C 57.633658 33.769945 57.642175 33.890142 57.638672 33.96875 C 57.624436 33.969895 57.621756 33.971575 57.605469 33.972656 C 57.462328 33.982163 57.236803 33.991982 56.916016 33.998047 C 56.273533 34.010192 55.24644 34.013672 53.699219 34.013672 L 49.775391 34.013672 C 49.774763 34.008363 49.773761 34.005807 49.773438 34 C 49.769984 33.938292 49.774998 33.841108 49.791016 33.732422 C 49.822921 33.51594 49.898956 33.246103 49.992188 33.046875 C 50.299657 32.389827 50.999417 31.81457 51.748047 31.615234 C 51.738025 31.617903 51.839948 31.600694 51.960938 31.589844 C 52.081927 31.578993 52.241574 31.567862 52.417969 31.560547 C 52.772971 31.545824 53.219335 31.537551 53.666016 31.535156 z "
       d="m 49.078125,22.109375 c -0.06356,-0.0012 -0.127533,0.001 -0.191406,0.0059 -0.88793,0.06716 -1.754473,0.67434 -1.951172,1.791016 l -0.06836,0.392578 c -0.0068,0.039 -0.0057,0.07966 0.0039,0.117188 l 0.103515,0.40625 c 0.198028,0.781052 0.748645,1.368588 1.494141,1.578125 1.410038,0.396324 2.78125,-0.63886 2.78125,-2.103516 0,-1.296077 -0.971053,-2.083796 -1.982422,-2.175781 -0.06275,-0.0057 -0.125892,-0.01048 -0.189453,-0.01172 z m 9.248047,0 c -0.06356,-0.0012 -0.12755,0.001 -0.191406,0.0059 -0.887597,0.06719 -1.752566,0.6746 -1.949219,1.791016 l -0.06836,0.392578 c -0.0068,0.039 -0.0057,0.07966 0.0039,0.117188 l 0.103515,0.40625 c 0.19791,0.780595 0.746536,1.368547 1.492188,1.578125 1.410098,0.39634 2.783202,-0.638596 2.783203,-2.103516 0,-1.296377 -0.973055,-2.0838 -1.984375,-2.175781 -0.06275,-0.0057 -0.125888,-0.01048 -0.189453,-0.01172 z m -9.503906,0.914063 0.328125,0.01953 c 0.346257,0.02205 0.630353,0.144024 0.833984,0.347656 0.203631,0.203632 0.325608,0.487728 0.347656,0.833984 l 0.02148,0.330079 a 0.02346802,0.02346802 0 0 1 0,0.0059 0.02346802,0.02346802 0 0 1 -0.002,0.0059 l -0.134765,0.275391 c -0.149865,0.305525 -0.406766,0.537415 -0.710938,0.646484 -0.797093,0.284926 -1.694774,-0.359341 -1.685547,-1.214843 0.0051,-0.477076 0.270644,-0.896259 0.712891,-1.113282 l 0.277344,-0.134765 a 0.02346802,0.02346802 0 0 1 0.01172,-0.002 z m 9.246093,0 0.332032,0.01953 c 0.454491,0.02894 0.773631,0.220541 1.001953,0.589843 0.132113,0.213705 0.161162,0.300949 0.179687,0.591797 l 0.02148,0.330079 a 0.02346802,0.02346802 0 0 1 0,0.0059 0.02346802,0.02346802 0 0 1 -0.002,0.0059 l -0.136718,0.275391 c -0.150259,0.306329 -0.406238,0.537567 -0.710938,0.646484 -0.797093,0.284926 -1.694766,-0.359339 -1.685547,-1.214843 0.0051,-0.477289 0.271786,-0.898466 0.714844,-1.115235 l 0.273438,-0.132812 a 0.02346802,0.02346802 0 0 1 0.01172,-0.002 z m -4.386718,1.78125 c -0.986631,0.0056 -1.976369,0.543958 -2.457032,1.583984 l -0.18164,0.390625 c -0.01664,0.03548 -0.02665,0.07459 -0.02734,0.113281 -1.2e-5,0.0011 -1.2e-5,0.0028 0,0.0039 v 0.707032 0.707031 c -2.7e-5,0.0017 -2.7e-5,0.0042 0,0.0059 0.0014,0.04009 0.01294,0.08117 0.03125,0.117188 0.001,0.002 0.0018,0.0036 0.002,0.0039 a 0.02346802,0.02346802 0 0 1 0,0.002 l 0.179688,0.363281 c 0.366492,0.746527 1.09275,1.307545 1.908203,1.478516 1.211674,0.254045 2.45962,-0.361844 3.011719,-1.480469 a 0.02346802,0.02346802 0 0 1 0.0039,-0.002 l 0.002,-0.0039 0.002,-0.002 0.205078,-0.419922 a 0.02346802,0.02346802 0 0 1 0,-0.0039 c 0.01847,-0.03797 0.02926,-0.07956 0.0293,-0.121094 v -0.675781 -0.675782 c -3.7e-5,-0.04153 -0.01083,-0.08313 -0.0293,-0.121093 a 0.02346802,0.02346802 0 0 1 0,-0.0039 L 56.164062,26.359375 C 55.668718,25.32512 54.668185,24.79904 53.681641,24.804688 Z m -0.511719,0.958984 h 0.533203 0.537109 a 0.02346802,0.02346802 0 0 1 0.01172,0.002 l 0.255859,0.134766 c 0.376737,0.198537 0.778685,0.653748 0.921876,1.033203 a 0.02346802,0.02346802 0 0 1 0,0.002 0.02346802,0.02346802 0 0 1 0.002,0 0.02346802,0.02346802 0 0 1 0,0.002 0.02346802,0.02346802 0 0 1 0,0.002 v 0.002 c 0,0 0,0.002 0,0.002 l 0.121093,0.314453 a 0.02346802,0.02346802 0 0 1 0.002,0.002 0.02346802,0.02346802 0 0 1 0,0.002 0.02346802,0.02346802 0 0 1 0,0.002 0.02346802,0.02346802 0 0 1 0,0.0039 l -0.02539,0.394531 c -0.04376,0.707747 -0.463392,1.321856 -1.089844,1.59961 -0.27345,0.121241 -0.621653,0.153433 -0.957031,0.113281 -0.335378,-0.04015 -0.659273,-0.15329 -0.878906,-0.330078 -0.556493,-0.447932 -0.788166,-1.064395 -0.732422,-1.654297 0.05575,-0.58995 0.400951,-1.152835 1.03125,-1.488281 l 0.255859,-0.136719 a 0.02346802,0.02346802 0 0 1 0.01172,-0.002 z m -2.970703,0.943359 -1.34961,0.01953 -1.347656,0.01953 c -0.0017,-3.6e-5 -0.0042,-1.8e-5 -0.0059,0 h -0.002 c -0.03786,0.0023 -0.07715,0.01381 -0.111329,0.03125 a 0.02346802,0.02346802 0 0 1 -0.0059,0.002 l -0.310547,0.154297 c -0.690697,0.33994 -1.138897,0.971086 -1.291015,1.789062 l -0.07031,0.376953 c 0,0 0,0.002 0,0.002 v 0.002 a 0.02346802,0.02346802 0 0 1 0,0.002 c -0.0099,0.05698 -0.0032,0.116605 0.02148,0.167969 l 0.08789,0.183593 a 0.02346802,0.02346802 0 0 1 0,0.0039 c 3.84e-4,8.01e-4 0.0016,0.0012 0.002,0.002 a 0.02346802,0.02346802 0 0 1 0,0.0039 c 0.05937,0.12137 0.152091,0.22486 0.263672,0.306641 l -0.01563,-0.03906 0.04492,-0.0098 c 0.0037,0.051 0.03259,0.100204 0.07617,0.126953 a 0.02346802,0.02346802 0 0 1 0.0078,0.0059 c 3.3e-4,4.64e-4 -3.34e-4,0.0015 0,0.002 0.08852,0.04374 0.176137,0.05334 0.277344,0.06445 0.10759,0.01181 0.243289,0.02079 0.423828,0.02734 0.361513,0.01312 0.8982,0.01918 1.679688,0.01953 h 2.095703 c 0.08078,-3.07e-4 0.163408,-0.03947 0.214844,-0.101562 a 0.02346802,0.02346802 0 0 1 0.002,0 v -0.002 l 0.07031,-0.08594 c 0.0036,-0.0038 0.0085,-0.0076 0.01172,-0.01172 a 0.02346802,0.02346802 0 0 1 0,-0.002 l 0.07813,-0.0957 v -0.002 c 0.0763,-0.09821 0.07556,-0.254185 -0.0039,-0.34961 l -0.07813,-0.09375 -0.07813,-0.09375 c -0.051,-0.06275 -0.133783,-0.10269 -0.214844,-0.103515 h -0.002 l -2.125,-0.01758 -1.822266,-0.01367 a 0.02346802,0.02346802 0 0 1 -0.02344,-0.02344 v -0.04883 c 0.0086,-0.467337 0.332453,-0.95729 0.794922,-1.171875 l 0.197265,-0.08984 a 0.02346802,0.02346802 0 0 1 0.0098,-0.002 L 49,27.660156 l 1.365234,-0.002 c 0.110922,8.84e-4 0.221488,-0.07414 0.261719,-0.177734 l 0.03906,-0.103516 c 6.44e-4,-0.0028 0.0015,-0.005 0.002,-0.0078 a 0.02346802,0.02346802 0 0 1 0.002,-0.0039 c 0.07391,-0.204541 -0.03357,-0.403728 -0.179688,-0.511718 a 0.02346802,0.02346802 0 0 1 0,-0.002 l -0.002,-0.002 -0.11914,-0.08594 a 0.02346802,0.02346802 0 0 1 -0.002,-0.002 c -0.04753,-0.03519 -0.106685,-0.05483 -0.166016,-0.05469 0,0 -0.002,0 -0.002,0 z m 9.414062,0 -1.257812,0.01953 -1.25586,0.01953 c 0,0 -0.002,0 -0.002,0 -0.09336,0.0018 -0.184479,0.05453 -0.232422,0.134765 l -0.05664,0.08984 c -0.06822,0.111032 -0.102328,0.273318 -0.04687,0.419922 2.28e-4,6.04e-4 -2.32e-4,0.0013 0,0.002 a 0.02346802,0.02346802 0 0 1 0.002,0 l 0.0332,0.08594 c 0.03953,0.104143 0.148587,0.17987 0.259766,0.179687 h 1.361328 1.291015 a 0.02346802,0.02346802 0 0 1 0.0098,0.002 l 0.269531,0.132813 c 0.217662,0.108465 0.407503,0.304155 0.541016,0.521484 0.133512,0.217329 0.211783,0.457802 0.203125,0.662109 a 0.02346802,0.02346802 0 0 1 -0.02344,0.02148 l -1.845703,0.01367 -2.128906,0.01758 c -0.08022,8.17e-4 -0.161797,0.03988 -0.212891,0.101562 l -0.07813,0.09375 -0.08008,0.0957 c -0.08086,0.0976 -0.08086,0.257868 0,0.355469 l 0.08203,0.09766 a 0.02346802,0.02346802 0 0 1 0.002,0.0039 0.02346802,0.02346802 0 0 1 0.002,0.0039 l 0.07813,0.0918 c 0.05143,0.06209 0.134066,0.101255 0.214844,0.101562 0,0 0.002,0 0.002,0 l 2.179687,-0.01758 2.179688,-0.01758 c 0.07915,-5.26e-4 0.157414,-0.0389 0.208984,-0.09961 l 0.162109,-0.1875 0.164063,-0.189453 c 0.04875,-0.0569 0.07234,-0.136163 0.06445,-0.210938 l -0.04102,-0.388672 c -0.09842,-0.95864 -0.739632,-1.786414 -1.61914,-2.042969 a 0.02346802,0.02346802 0 0 1 -0.0059,0 l -0.335937,-0.09766 a 0.02346802,0.02346802 0 0 1 -0.002,-0.002 c -0.02582,-0.0086 -0.05142,-0.01289 -0.07813,-0.01367 -0.0023,-4.8e-5 -0.0055,-4.8e-5 -0.0078,0 z m -5.33789,3.871094 c -0.256583,-0.0023 -0.538192,-6.37e-4 -0.847657,0.0039 l -1.6875,0.02539 c 0,0 -0.002,0 -0.002,0 -0.03132,7.94e-4 -0.06358,0.0078 -0.09375,0.01953 a 0.02346802,0.02346802 0 0 1 -0.0039,0 l -0.423828,0.162109 c -1.233919,0.471186 -2.062983,1.416638 -2.322266,2.660157 -0.07318,0.350988 -0.09202,0.646104 -0.0098,0.90625 0.08387,0.265245 0.287613,0.465814 0.546875,0.5625 1.04e-4,3.9e-5 0.0159,0.0035 0.01758,0.0039 2.58e-4,6.6e-5 0.0022,0.0013 0.0039,0.002 3.09e-4,7.6e-5 0.0026,0.0017 0.0039,0.002 6.5e-4,3.88e-4 0.0018,-1.29e-4 0.002,0 0.0015,2.82e-4 0.002,-4.42e-4 0.0039,0 0.004,9.5e-4 0.0076,0.0014 0.02148,0.0039 0.0096,0.0017 0.01859,0.0033 0.02344,0.0039 0.0158,0.0018 0.02876,0.0035 0.03516,0.0039 0.02064,0.0014 0.04637,0.0027 0.08008,0.0039 0.06581,0.0023 0.153602,0.0039 0.265625,0.0059 0.224568,0.0038 0.542953,0.0074 0.929687,0.0098 0.773077,0.0047 1.824754,0.0071 2.970703,0.0039 l 4.16211,-0.01172 c 0.07859,6.23e-4 0.158733,-0.035 0.210937,-0.09375 l 0.183594,-0.207031 0.0039,-0.0039 c 2.56e-4,-5.28e-4 -2.5e-4,-0.0014 0,-0.002 a 0.02346802,0.02346802 0 0 1 0.0039,-0.0059 c 0.315001,-0.360113 0.295367,-0.899186 0.136718,-1.427735 -0.160027,-0.533133 -0.483869,-1.094208 -0.933593,-1.544922 -0.459256,-0.460267 -0.88589,-0.761591 -1.5,-0.917968 -0.45961,-0.117036 -1.011502,-0.161159 -1.78125,-0.167969 z m -0.609375,0.933594 c 0.446461,-0.0024 0.892463,0.0027 1.253906,0.01367 0.180077,0.0054 0.34293,0.01267 0.46875,0.02148 0.06302,0.0044 0.119816,0.0091 0.162109,0.01367 0.04229,0.0046 0.07259,0.0089 0.07617,0.0098 0.299205,0.06898 0.653585,0.25507 0.970703,0.484376 0.317118,0.229305 0.595199,0.502036 0.740235,0.75 0.132444,0.226443 0.245064,0.554598 0.294921,0.828124 0.02456,0.134724 0.03292,0.25653 0.0293,0.337891 a 0.02346802,0.02346802 0 0 1 -0.02148,0.02148 c -0.01264,0.001 -0.01548,0.0027 -0.0332,0.0039 -0.143701,0.0095 -0.370349,0.01932 -0.691406,0.02539 -0.642871,0.01215 -1.669541,0.01563 -3.216797,0.01563 h -3.923828 a 0.02346802,0.02346802 0 0 1 -0.02344,-0.02148 c -3.89e-4,-0.0033 -0.0015,-0.0056 -0.002,-0.01367 -0.0036,-0.06435 0.0014,-0.163454 0.01758,-0.273437 0.03228,-0.21902 0.108521,-0.489247 0.203125,-0.691407 0.311034,-0.664665 1.015521,-1.244023 1.771485,-1.445312 a 0.02346802,0.02346802 0 0 1 0.0039,0.002 c -2.4e-5,-2.94e-4 9e-6,-0.002 0,-0.002 0.0015,-1.68e-4 0.0048,-0.0013 0.0098,-0.002 0.01,-0.0014 0.0271,-0.0032 0.04687,-0.0059 0.03956,-0.0054 0.09524,-0.01211 0.15625,-0.01758 0.121397,-0.01089 0.282191,-0.02197 0.458985,-0.0293 0.355452,-0.01474 0.80116,-0.02299 1.248047,-0.02539 z m -1.902344,0.117187 c -0.02013,0.02372 -0.0036,0.0038 0,0 z"
       transform="matrix(0.80711149,0,0,0.80711149,14.084343,3.2986504)" /></g></svg>
