<?xml version="1.0" encoding="UTF-8" standalone="no"?>
<!-- Created with Inkscape (http://www.inkscape.org/) -->

<svg
   width="32.958641mm"
   height="33.693367mm"
   viewBox="0 0 32.95864 33.693366"
   version="1.1"
   id="svg690"
   inkscape:version="1.2 (1:1.2.1+202207142221+cd75a1ee6d)"
   sodipodi:docname="network.svg"
   xml:space="preserve"
   xmlns:inkscape="http://www.inkscape.org/namespaces/inkscape"
   xmlns:sodipodi="http://sodipodi.sourceforge.net/DTD/sodipodi-0.dtd"
   xmlns="http://www.w3.org/2000/svg"
   xmlns:svg="http://www.w3.org/2000/svg"><sodipodi:namedview
     id="namedview692"
     pagecolor="#ffffff"
     bordercolor="#666666"
     borderopacity="1.0"
     inkscape:showpageshadow="2"
     inkscape:pageopacity="0.0"
     inkscape:pagecheckerboard="0"
     inkscape:deskcolor="#d1d1d1"
     inkscape:document-units="mm"
     showgrid="false"
     inkscape:zoom="0.77359576"
     inkscape:cx="45.243268"
     inkscape:cy="-129.91281"
     inkscape:window-width="1920"
     inkscape:window-height="1136"
     inkscape:window-x="0"
     inkscape:window-y="27"
     inkscape:window-maximized="1"
     inkscape:current-layer="layer1" /><defs
     id="defs687" /><g
     inkscape:label="Calque 1"
     inkscape:groupmode="layer"
     id="layer1"
     transform="translate(-54.571658,-25.752504)"><path
       style="fill:none;stroke:#41acdd;stroke-width:1.33281;stroke-linecap:square;stroke-dasharray:none;stroke-opacity:1"
       id="path1748"
       sodipodi:type="arc"
       sodipodi:cx="71.33625"
       sodipodi:cy="42.727066"
       sodipodi:rx="8.7413664"
       sodipodi:ry="8.7413664"
       sodipodi:start="0"
       sodipodi:end="6.2579653"
       sodipodi:open="true"
       sodipodi:arc-type="arc"
       d="m 80.077617,42.727066 a 8.7413664,8.7413664 0 0 1 -8.686253,8.741193 8.7413664,8.7413664 0 0 1 -8.795785,-8.630967 8.7413664,8.7413664 0 0 1 8.575338,-8.850029 8.7413664,8.7413664 0 0 1 8.90392,8.519369" /><path
       id="path1858"
       style="fill:#ffffff;fill-opacity:1;stroke-width:1.3055;stroke-dasharray:none"
       d="m 74.22982,43.205792 c -0.888038,-0.01766 -1.594212,0.911427 -1.439453,1.763672 -0.877006,-0.09638 -1.9046,0.01207 -2.84375,-0.02539 0.114299,-0.94521 -0.708469,-2.006621 -1.708984,-1.693359 -0.748422,0.17566 -1.182559,1.00099 -1.095704,1.730468 -1.733243,-0.20461 -3.300449,1.644829 -2.980468,3.328125 0.02878,2.929663 -0.117056,5.870175 0.03711,8.792969 0.268198,0.430599 0.17889,0.965416 0.29248,1.21674 0.934256,0.693893 2.047493,1.277735 3.249702,1.091963 2.933762,-0.03532 5.86914,0.03895 8.801568,-0.08019 1.442264,-0.520144 2.343472,-2.116292 2.060825,-3.619922 -0.0206,-2.827451 0.0653,-5.664389 -0.05765,-8.485817 -0.287337,-1.315258 -1.592642,-2.373173 -2.958255,-2.284886 0.05369,-0.816546 -0.460248,-1.72366 -1.357422,-1.734375 z"
       sodipodi:nodetypes="sccccccccccccss" /><path
       id="path22268"
       style="fill:#41acdd;stroke-width:1.43104"
       sodipodi:type="inkscape:offset"
       inkscape:radius="0.20499697"
       inkscape:original="M 38.371094 91.486328 A 0.09291639 0.09291639 0 0 0 38.251953 91.488281 L 38.158203 91.566406 L 38.060547 91.646484 A 0.09291639 0.09291639 0 0 0 38.025391 91.71875 L 38.025391 92.412109 L 38.025391 93.017578 L 37.326172 93.039062 L 36.537109 93.064453 A 0.09291639 0.09291639 0 0 0 36.498047 93.076172 L 36.271484 93.193359 C 35.941586 93.365946 35.674464 93.627565 35.501953 93.947266 L 35.363281 94.205078 A 0.09291639 0.09291639 0 0 0 35.351562 94.25 L 35.332031 98.367188 L 35.314453 102.48438 A 0.09291639 0.09291639 0 0 0 35.318359 102.50977 L 35.419922 102.86133 L 35.523438 103.21289 A 0.09291639 0.09291639 0 0 0 35.546875 103.25391 L 35.828125 103.53516 L 36.109375 103.81641 A 0.09291639 0.09291639 0 0 0 36.148438 103.83789 L 36.458984 103.93555 A 0.09291639 0.09291639 0 0 0 36.486328 103.94141 L 36.474609 103.94141 L 36.771484 104.0332 A 0.09291639 0.09291639 0 0 0 36.798828 104.03906 L 40.957031 104.02539 L 45.115234 104.01172 A 0.09291639 0.09291639 0 0 0 45.160156 104 L 45.417969 103.86133 C 45.771462 103.67059 46.024266 103.39699 46.193359 103.02344 L 46.324219 102.73242 A 0.09291639 0.09291639 0 0 0 46.333984 102.69336 L 46.335938 98.576172 L 46.335938 94.457031 A 0.09291639 0.09291639 0 0 0 46.332031 94.431641 L 46.253906 94.166016 L 46.175781 93.900391 A 0.09291639 0.09291639 0 0 0 46.152344 93.859375 L 45.828125 93.535156 L 45.503906 93.210938 A 0.09291639 0.09291639 0 0 0 45.462891 93.1875 L 45.197266 93.109375 L 44.931641 93.03125 A 0.09291639 0.09291639 0 0 0 44.90625 93.027344 L 44.220703 93.027344 L 43.628906 93.027344 L 43.628906 92.419922 L 43.628906 91.71875 A 0.09291639 0.09291639 0 0 0 43.595703 91.648438 L 43.5 91.568359 A 0.09291639 0.09291639 0 0 0 43.498047 91.566406 L 43.400391 91.486328 A 0.09291639 0.09291639 0 0 0 43.283203 91.486328 L 43.185547 91.566406 A 0.09291639 0.09291639 0 0 0 43.183594 91.568359 L 43.087891 91.648438 A 0.09291639 0.09291639 0 0 0 43.054688 91.71875 L 43.054688 92.419922 L 43.054688 93.027344 L 40.828125 93.027344 L 38.601562 93.027344 L 38.601562 92.419922 L 38.601562 91.71875 A 0.09291639 0.09291639 0 0 0 38.566406 91.646484 L 38.46875 91.566406 L 38.371094 91.486328 z M 36.728516 93.601562 L 37.416016 93.601562 L 38.025391 93.601562 L 38.025391 94.015625 L 38.025391 94.523438 A 0.09291639 0.09291639 0 0 0 38.060547 94.595703 L 38.158203 94.675781 L 38.251953 94.753906 A 0.09291639 0.09291639 0 0 0 38.371094 94.755859 L 38.46875 94.675781 A 0.09291639 0.09291639 0 0 0 38.470703 94.673828 L 38.566406 94.59375 A 0.09291639 0.09291639 0 0 0 38.599609 94.523438 L 38.599609 94.015625 L 38.599609 93.601562 L 40.828125 93.601562 L 43.054688 93.601562 L 43.054688 94.015625 L 43.054688 94.523438 A 0.09291639 0.09291639 0 0 0 43.087891 94.59375 L 43.183594 94.673828 A 0.09291639 0.09291639 0 0 0 43.185547 94.675781 L 43.283203 94.755859 A 0.09291639 0.09291639 0 0 0 43.402344 94.753906 L 43.496094 94.675781 L 43.59375 94.595703 A 0.09291639 0.09291639 0 0 0 43.628906 94.523438 L 43.628906 94.015625 L 43.628906 93.601562 L 44.255859 93.601562 L 44.955078 93.601562 L 45.214844 93.726562 L 45.46875 93.849609 L 45.615234 94.097656 L 45.761719 94.349609 L 45.761719 95.076172 L 45.761719 95.734375 L 40.828125 95.734375 L 35.892578 95.734375 L 35.892578 95.117188 L 35.892578 94.427734 L 36.003906 94.208984 C 36.143494 93.936585 36.344338 93.744732 36.5625 93.662109 L 36.5625 93.664062 L 36.728516 93.601562 z M 35.892578 96.308594 L 40.828125 96.308594 L 45.761719 96.308594 L 45.761719 99.441406 L 45.761719 102.64648 L 45.681641 102.83594 C 45.588011 103.05476 45.305665 103.32814 45.09375 103.4082 L 44.927734 103.4707 L 40.839844 103.46875 L 36.753906 103.4668 L 36.515625 103.35938 C 36.221285 103.22422 36.113033 103.11065 35.984375 102.80273 L 35.892578 102.58203 L 35.892578 99.408203 L 35.892578 96.308594 z "
       d="m 38.308594,91.263672 c -0.06898,0.0011 -0.139097,0.02513 -0.191406,0.07031 l -0.08984,0.07422 -0.09375,0.07813 c -0.06957,0.05521 -0.112787,0.14165 -0.113282,0.230469 a 0.20501747,0.20501747 0 0 0 0,0.002 v 0.693359 0.40625 l -0.5,0.01563 -0.789062,0.02539 a 0.20501747,0.20501747 0 0 0 -0.0078,0 c -0.04384,0.0031 -0.08671,0.01751 -0.125,0.03906 l -0.220704,0.113281 a 0.20501747,0.20501747 0 0 0 -0.002,0 c -0.365021,0.190961 -0.661202,0.481491 -0.853515,0.83789 l -0.138672,0.257813 c -0.02379,0.04342 -0.03698,0.09307 -0.03711,0.142578 l -0.01953,4.117188 -0.01758,4.117192 a 0.20501747,0.20501747 0 0 0 0,0.002 c 3.85e-4,0.0275 0.0038,0.0556 0.01172,0.082 l 0.101562,0.34961 a 0.20501747,0.20501747 0 0 0 0,0.002 l 0.103516,0.35156 v -0.006 c 0.01322,0.0493 0.03845,0.0964 0.07422,0.13282 a 0.20501747,0.20501747 0 0 0 0.002,0 l 0.28125,0.28125 0.28125,0.28125 a 0.20501747,0.20501747 0 0 0 0.0059,0.006 c 0.03537,0.0326 0.07851,0.056 0.125,0.0684 l 0.291016,0.0918 c 0.0081,0.003 0.01703,0.004 0.02539,0.006 a 0.20501747,0.20501747 0 0 0 0.002,0.004 l 0.285157,0.0879 c 0.02806,0.0106 0.05794,0.0177 0.08789,0.0195 a 0.20501747,0.20501747 0 0 0 0.01172,0 l 4.158203,-0.0137 4.158203,-0.0137 c 0.04951,-1.4e-4 0.09916,-0.0133 0.142578,-0.0371 l 0.257813,-0.13867 c 0.389645,-0.21025 0.679994,-0.52438 0.865234,-0.9336 l 0.126953,-0.2832 c 0.01939,-0.0388 0.0301,-0.0816 0.03125,-0.125 a 0.20501747,0.20501747 0 0 0 0,-0.006 l 0.002,-4.117188 v -4.119141 a 0.20501747,0.20501747 0 0 0 0,-0.002 c -3.86e-4,-0.02754 -0.0038,-0.05565 -0.01172,-0.08203 l -0.07813,-0.265625 -0.07813,-0.265625 v 0.0059 c -0.01323,-0.0493 -0.03846,-0.09638 -0.07422,-0.132812 a 0.20501747,0.20501747 0 0 0 -0.002,0 l -0.324219,-0.324219 -0.324218,-0.324219 a 0.20501747,0.20501747 0 0 0 0,-0.002 c -0.03643,-0.03576 -0.08351,-0.06099 -0.132813,-0.07422 h 0.0059 l -0.265625,-0.07813 -0.265625,-0.07813 c -0.02638,-0.0079 -0.05449,-0.01133 -0.08203,-0.01172 a 0.20501747,0.20501747 0 0 0 -0.002,0 H 44.220703 43.833984 V 92.419922 91.71875 a 0.20501747,0.20501747 0 0 0 0,-0.002 c -8.11e-4,-0.08574 -0.04173,-0.169511 -0.107422,-0.224609 l -0.08008,-0.06641 -0.01563,-0.01367 a 0.20501747,0.20501747 0 0 0 -0.002,-0.0039 l -0.09766,-0.08008 a 0.20501747,0.20501747 0 0 0 -0.002,0 c -0.105176,-0.08546 -0.269824,-0.08546 -0.375,0 a 0.20501747,0.20501747 0 0 0 -0.002,0 l -0.09766,0.08008 a 0.20501747,0.20501747 0 0 0 -0.01172,0.01172 c -0.0021,0.0021 -0.0038,0.0037 -0.0059,0.0059 l -0.08008,0.06641 c -0.06569,0.0551 -0.10661,0.138871 -0.107422,0.224609 a 0.20501747,0.20501747 0 0 0 0,0.002 v 0.701172 0.402344 H 40.828125 38.806641 V 92.419922 91.71875 a 0.20501747,0.20501747 0 0 0 0,-0.002 c -4.95e-4,-0.08882 -0.04371,-0.175256 -0.113282,-0.230469 l -0.09375,-0.07813 -0.09766,-0.08008 a 0.20501747,0.20501747 0 0 0 -0.002,-0.002 c -0.05376,-0.04345 -0.122425,-0.06363 -0.191406,-0.0625 z m -1.544922,2.542969 h 0.652344 0.404296 v 0.208984 0.507813 a 0.20501747,0.20501747 0 0 0 0,0.002 c 4.96e-4,0.08882 0.04371,0.175257 0.113282,0.230468 l 0.09375,0.07813 0.08984,0.07422 c 0.104618,0.09037 0.275288,0.09471 0.382812,0.0078 a 0.20501747,0.20501747 0 0 0 0.002,-0.002 l 0.09766,-0.08008 a 0.20501747,0.20501747 0 0 0 0.002,-0.0039 l 0.0098,-0.0078 c 0.0021,-0.0021 0.0038,-0.0037 0.0059,-0.0059 L 38.697266,94.75 c 0.06569,-0.0551 0.10661,-0.138871 0.107422,-0.224609 a 0.20501747,0.20501747 0 0 0 0,-0.002 v -0.507813 -0.208984 h 2.023437 2.021484 v 0.208984 0.507813 a 0.20501747,0.20501747 0 0 0 0,0.002 c 8.12e-4,0.08574 0.04173,0.16951 0.107422,0.224609 l 0.08398,0.07031 c 6.99e-4,6.93e-4 0.0012,0.0013 0.002,0.002 a 0.20501747,0.20501747 0 0 0 0.01172,0.01172 l 0.09766,0.08008 a 0.20501747,0.20501747 0 0 0 0.002,0.002 c 0.107524,0.08689 0.278194,0.08256 0.382812,-0.0078 l 0.08984,-0.07422 0.09375,-0.07813 c 0.06957,-0.05521 0.112786,-0.141651 0.113281,-0.230468 a 0.20501747,0.20501747 0 0 0 0,-0.002 v -0.507813 -0.208984 h 0.421875 0.652344 l 0.216797,0.105468 0.199219,0.0957 0.113281,0.19336 0.119141,0.203125 v 0.671875 0.453125 h -4.728516 -4.730469 v -0.412109 -0.640626 l 0.08984,-0.173828 h -0.002 c 0.120435,-0.235022 0.289085,-0.386526 0.447265,-0.447265 a 0.20501747,0.20501747 0 0 0 0.002,0 z m -0.666016,2.707031 h 4.730469 4.728516 v 2.927734 3.164064 l -0.06445,0.15039 h 0.002 c -0.02964,0.0693 -0.110995,0.18006 -0.205079,0.27148 -0.09408,0.0914 -0.205627,0.16605 -0.267578,0.18946 l -0.130859,0.0488 -4.050781,-0.002 -4.041016,-0.002 -0.197266,-0.0879 -0.002,-0.002 c -0.268952,-0.12369 -0.306486,-0.16176 -0.425781,-0.44727 l -0.07617,-0.18359 v -3.132817 z"
       transform="matrix(1.1215605,0,0,1.1215605,25.576609,-58.331399)" /><path
       id="path2070"
       style="fill:#ffffff;fill-opacity:1;stroke-width:1.3055;stroke-dasharray:none"
       d="m 64.681822,26.127984 c -0.888038,-0.01766 -1.594212,0.911427 -1.439453,1.763672 -0.877006,-0.09638 -1.9046,0.01207 -2.84375,-0.02539 0.114299,-0.94521 -0.708469,-2.006621 -1.708984,-1.693359 -0.748422,0.17566 -1.182559,1.00099 -1.095704,1.730468 -1.733243,-0.20461 -3.300449,1.644829 -2.980468,3.328125 0.02878,2.929663 -0.117056,5.870175 0.03711,8.792969 0.268198,0.430599 0.17889,0.965416 0.29248,1.21674 0.934256,0.693893 2.047493,1.277735 3.249702,1.091963 2.933762,-0.03532 5.86914,0.03895 8.801568,-0.08019 1.442264,-0.520144 2.343472,-2.116292 2.060825,-3.619922 -0.0206,-2.827451 0.0653,-5.664389 -0.05765,-8.485817 -0.287337,-1.315258 -1.592642,-2.373173 -2.958255,-2.284886 0.05369,-0.816546 -0.460248,-1.72366 -1.357422,-1.734375 z"
       sodipodi:nodetypes="sccccccccccccss" /><path
       id="path2072"
       style="fill:#41acdd;stroke-width:1.43104"
       sodipodi:type="inkscape:offset"
       inkscape:radius="0.20499697"
       inkscape:original="M 38.371094 91.486328 A 0.09291639 0.09291639 0 0 0 38.251953 91.488281 L 38.158203 91.566406 L 38.060547 91.646484 A 0.09291639 0.09291639 0 0 0 38.025391 91.71875 L 38.025391 92.412109 L 38.025391 93.017578 L 37.326172 93.039062 L 36.537109 93.064453 A 0.09291639 0.09291639 0 0 0 36.498047 93.076172 L 36.271484 93.193359 C 35.941586 93.365946 35.674464 93.627565 35.501953 93.947266 L 35.363281 94.205078 A 0.09291639 0.09291639 0 0 0 35.351562 94.25 L 35.332031 98.367188 L 35.314453 102.48438 A 0.09291639 0.09291639 0 0 0 35.318359 102.50977 L 35.419922 102.86133 L 35.523438 103.21289 A 0.09291639 0.09291639 0 0 0 35.546875 103.25391 L 35.828125 103.53516 L 36.109375 103.81641 A 0.09291639 0.09291639 0 0 0 36.148438 103.83789 L 36.458984 103.93555 A 0.09291639 0.09291639 0 0 0 36.486328 103.94141 L 36.474609 103.94141 L 36.771484 104.0332 A 0.09291639 0.09291639 0 0 0 36.798828 104.03906 L 40.957031 104.02539 L 45.115234 104.01172 A 0.09291639 0.09291639 0 0 0 45.160156 104 L 45.417969 103.86133 C 45.771462 103.67059 46.024266 103.39699 46.193359 103.02344 L 46.324219 102.73242 A 0.09291639 0.09291639 0 0 0 46.333984 102.69336 L 46.335938 98.576172 L 46.335938 94.457031 A 0.09291639 0.09291639 0 0 0 46.332031 94.431641 L 46.253906 94.166016 L 46.175781 93.900391 A 0.09291639 0.09291639 0 0 0 46.152344 93.859375 L 45.828125 93.535156 L 45.503906 93.210938 A 0.09291639 0.09291639 0 0 0 45.462891 93.1875 L 45.197266 93.109375 L 44.931641 93.03125 A 0.09291639 0.09291639 0 0 0 44.90625 93.027344 L 44.220703 93.027344 L 43.628906 93.027344 L 43.628906 92.419922 L 43.628906 91.71875 A 0.09291639 0.09291639 0 0 0 43.595703 91.648438 L 43.5 91.568359 A 0.09291639 0.09291639 0 0 0 43.498047 91.566406 L 43.400391 91.486328 A 0.09291639 0.09291639 0 0 0 43.283203 91.486328 L 43.185547 91.566406 A 0.09291639 0.09291639 0 0 0 43.183594 91.568359 L 43.087891 91.648438 A 0.09291639 0.09291639 0 0 0 43.054688 91.71875 L 43.054688 92.419922 L 43.054688 93.027344 L 40.828125 93.027344 L 38.601562 93.027344 L 38.601562 92.419922 L 38.601562 91.71875 A 0.09291639 0.09291639 0 0 0 38.566406 91.646484 L 38.46875 91.566406 L 38.371094 91.486328 z M 36.728516 93.601562 L 37.416016 93.601562 L 38.025391 93.601562 L 38.025391 94.015625 L 38.025391 94.523438 A 0.09291639 0.09291639 0 0 0 38.060547 94.595703 L 38.158203 94.675781 L 38.251953 94.753906 A 0.09291639 0.09291639 0 0 0 38.371094 94.755859 L 38.46875 94.675781 A 0.09291639 0.09291639 0 0 0 38.470703 94.673828 L 38.566406 94.59375 A 0.09291639 0.09291639 0 0 0 38.599609 94.523438 L 38.599609 94.015625 L 38.599609 93.601562 L 40.828125 93.601562 L 43.054688 93.601562 L 43.054688 94.015625 L 43.054688 94.523438 A 0.09291639 0.09291639 0 0 0 43.087891 94.59375 L 43.183594 94.673828 A 0.09291639 0.09291639 0 0 0 43.185547 94.675781 L 43.283203 94.755859 A 0.09291639 0.09291639 0 0 0 43.402344 94.753906 L 43.496094 94.675781 L 43.59375 94.595703 A 0.09291639 0.09291639 0 0 0 43.628906 94.523438 L 43.628906 94.015625 L 43.628906 93.601562 L 44.255859 93.601562 L 44.955078 93.601562 L 45.214844 93.726562 L 45.46875 93.849609 L 45.615234 94.097656 L 45.761719 94.349609 L 45.761719 95.076172 L 45.761719 95.734375 L 40.828125 95.734375 L 35.892578 95.734375 L 35.892578 95.117188 L 35.892578 94.427734 L 36.003906 94.208984 C 36.143494 93.936585 36.344338 93.744732 36.5625 93.662109 L 36.5625 93.664062 L 36.728516 93.601562 z M 35.892578 96.308594 L 40.828125 96.308594 L 45.761719 96.308594 L 45.761719 99.441406 L 45.761719 102.64648 L 45.681641 102.83594 C 45.588011 103.05476 45.305665 103.32814 45.09375 103.4082 L 44.927734 103.4707 L 40.839844 103.46875 L 36.753906 103.4668 L 36.515625 103.35938 C 36.221285 103.22422 36.113033 103.11065 35.984375 102.80273 L 35.892578 102.58203 L 35.892578 99.408203 L 35.892578 96.308594 z "
       d="m 38.308594,91.263672 c -0.06898,0.0011 -0.139097,0.02513 -0.191406,0.07031 l -0.08984,0.07422 -0.09375,0.07813 c -0.06957,0.05521 -0.112787,0.14165 -0.113282,0.230469 a 0.20501747,0.20501747 0 0 0 0,0.002 v 0.693359 0.40625 l -0.5,0.01563 -0.789062,0.02539 a 0.20501747,0.20501747 0 0 0 -0.0078,0 c -0.04384,0.0031 -0.08671,0.01751 -0.125,0.03906 l -0.220704,0.113281 a 0.20501747,0.20501747 0 0 0 -0.002,0 c -0.365021,0.190961 -0.661202,0.481491 -0.853515,0.83789 l -0.138672,0.257813 c -0.02379,0.04342 -0.03698,0.09307 -0.03711,0.142578 l -0.01953,4.117188 -0.01758,4.117192 a 0.20501747,0.20501747 0 0 0 0,0.002 c 3.85e-4,0.0275 0.0038,0.0556 0.01172,0.082 l 0.101562,0.34961 a 0.20501747,0.20501747 0 0 0 0,0.002 l 0.103516,0.35156 v -0.006 c 0.01322,0.0493 0.03845,0.0964 0.07422,0.13282 a 0.20501747,0.20501747 0 0 0 0.002,0 l 0.28125,0.28125 0.28125,0.28125 a 0.20501747,0.20501747 0 0 0 0.0059,0.006 c 0.03537,0.0326 0.07851,0.056 0.125,0.0684 l 0.291016,0.0918 c 0.0081,0.003 0.01703,0.004 0.02539,0.006 a 0.20501747,0.20501747 0 0 0 0.002,0.004 l 0.285157,0.0879 c 0.02806,0.0106 0.05794,0.0177 0.08789,0.0195 a 0.20501747,0.20501747 0 0 0 0.01172,0 l 4.158203,-0.0137 4.158203,-0.0137 c 0.04951,-1.4e-4 0.09916,-0.0133 0.142578,-0.0371 l 0.257813,-0.13867 c 0.389645,-0.21025 0.679994,-0.52438 0.865234,-0.9336 l 0.126953,-0.2832 c 0.01939,-0.0388 0.0301,-0.0816 0.03125,-0.125 a 0.20501747,0.20501747 0 0 0 0,-0.006 l 0.002,-4.117188 v -4.119141 a 0.20501747,0.20501747 0 0 0 0,-0.002 c -3.86e-4,-0.02754 -0.0038,-0.05565 -0.01172,-0.08203 l -0.07813,-0.265625 -0.07813,-0.265625 v 0.0059 c -0.01323,-0.0493 -0.03846,-0.09638 -0.07422,-0.132812 a 0.20501747,0.20501747 0 0 0 -0.002,0 l -0.324219,-0.324219 -0.324218,-0.324219 a 0.20501747,0.20501747 0 0 0 0,-0.002 c -0.03643,-0.03576 -0.08351,-0.06099 -0.132813,-0.07422 h 0.0059 l -0.265625,-0.07813 -0.265625,-0.07813 c -0.02638,-0.0079 -0.05449,-0.01133 -0.08203,-0.01172 a 0.20501747,0.20501747 0 0 0 -0.002,0 H 44.220703 43.833984 V 92.419922 91.71875 a 0.20501747,0.20501747 0 0 0 0,-0.002 c -8.11e-4,-0.08574 -0.04173,-0.169511 -0.107422,-0.224609 l -0.08008,-0.06641 -0.01563,-0.01367 a 0.20501747,0.20501747 0 0 0 -0.002,-0.0039 l -0.09766,-0.08008 a 0.20501747,0.20501747 0 0 0 -0.002,0 c -0.105176,-0.08546 -0.269824,-0.08546 -0.375,0 a 0.20501747,0.20501747 0 0 0 -0.002,0 l -0.09766,0.08008 a 0.20501747,0.20501747 0 0 0 -0.01172,0.01172 c -0.0021,0.0021 -0.0038,0.0037 -0.0059,0.0059 l -0.08008,0.06641 c -0.06569,0.0551 -0.10661,0.138871 -0.107422,0.224609 a 0.20501747,0.20501747 0 0 0 0,0.002 v 0.701172 0.402344 H 40.828125 38.806641 V 92.419922 91.71875 a 0.20501747,0.20501747 0 0 0 0,-0.002 c -4.95e-4,-0.08882 -0.04371,-0.175256 -0.113282,-0.230469 l -0.09375,-0.07813 -0.09766,-0.08008 a 0.20501747,0.20501747 0 0 0 -0.002,-0.002 c -0.05376,-0.04345 -0.122425,-0.06363 -0.191406,-0.0625 z m -1.544922,2.542969 h 0.652344 0.404296 v 0.208984 0.507813 a 0.20501747,0.20501747 0 0 0 0,0.002 c 4.96e-4,0.08882 0.04371,0.175257 0.113282,0.230468 l 0.09375,0.07813 0.08984,0.07422 c 0.104618,0.09037 0.275288,0.09471 0.382812,0.0078 a 0.20501747,0.20501747 0 0 0 0.002,-0.002 l 0.09766,-0.08008 a 0.20501747,0.20501747 0 0 0 0.002,-0.0039 l 0.0098,-0.0078 c 0.0021,-0.0021 0.0038,-0.0037 0.0059,-0.0059 L 38.697266,94.75 c 0.06569,-0.0551 0.10661,-0.138871 0.107422,-0.224609 a 0.20501747,0.20501747 0 0 0 0,-0.002 v -0.507813 -0.208984 h 2.023437 2.021484 v 0.208984 0.507813 a 0.20501747,0.20501747 0 0 0 0,0.002 c 8.12e-4,0.08574 0.04173,0.16951 0.107422,0.224609 l 0.08398,0.07031 c 6.99e-4,6.93e-4 0.0012,0.0013 0.002,0.002 a 0.20501747,0.20501747 0 0 0 0.01172,0.01172 l 0.09766,0.08008 a 0.20501747,0.20501747 0 0 0 0.002,0.002 c 0.107524,0.08689 0.278194,0.08256 0.382812,-0.0078 l 0.08984,-0.07422 0.09375,-0.07813 c 0.06957,-0.05521 0.112786,-0.141651 0.113281,-0.230468 a 0.20501747,0.20501747 0 0 0 0,-0.002 v -0.507813 -0.208984 h 0.421875 0.652344 l 0.216797,0.105468 0.199219,0.0957 0.113281,0.19336 0.119141,0.203125 v 0.671875 0.453125 h -4.728516 -4.730469 v -0.412109 -0.640626 l 0.08984,-0.173828 h -0.002 c 0.120435,-0.235022 0.289085,-0.386526 0.447265,-0.447265 a 0.20501747,0.20501747 0 0 0 0.002,0 z m -0.666016,2.707031 h 4.730469 4.728516 v 2.927734 3.164064 l -0.06445,0.15039 h 0.002 c -0.02964,0.0693 -0.110995,0.18006 -0.205079,0.27148 -0.09408,0.0914 -0.205627,0.16605 -0.267578,0.18946 l -0.130859,0.0488 -4.050781,-0.002 -4.041016,-0.002 -0.197266,-0.0879 -0.002,-0.002 c -0.268952,-0.12369 -0.306486,-0.16176 -0.425781,-0.44727 l -0.07617,-0.18359 v -3.132817 z"
       transform="matrix(1.1215605,0,0,1.1215605,16.028611,-75.409207)" /><path
       id="path2074"
       style="fill:#ffffff;fill-opacity:1;stroke-width:1.3055;stroke-dasharray:none"
       d="m 83.10521,25.76356 c -0.888038,-0.01766 -1.594212,0.911427 -1.439453,1.763672 -0.877006,-0.09638 -1.9046,0.01207 -2.84375,-0.02539 0.114299,-0.94521 -0.708469,-2.006621 -1.708984,-1.693359 -0.748422,0.17566 -1.182559,1.00099 -1.095704,1.730468 -1.733243,-0.20461 -3.300449,1.644829 -2.980468,3.328125 0.02878,2.929663 -0.117056,5.870175 0.03711,8.792969 0.268198,0.430599 0.17889,0.965416 0.29248,1.21674 0.934256,0.693893 2.047493,1.277735 3.249702,1.091963 2.933762,-0.03532 5.86914,0.03895 8.801568,-0.08019 1.442264,-0.520144 2.343472,-2.116292 2.060825,-3.619922 -0.0206,-2.827451 0.0653,-5.664389 -0.05765,-8.485817 -0.287337,-1.315258 -1.592642,-2.373173 -2.958255,-2.284886 0.05369,-0.816546 -0.460248,-1.72366 -1.357422,-1.734375 z"
       sodipodi:nodetypes="sccccccccccccss" /><path
       id="path2076"
       style="fill:#41acdd;stroke-width:1.43104"
       sodipodi:type="inkscape:offset"
       inkscape:radius="0.20499697"
       inkscape:original="M 38.371094 91.486328 A 0.09291639 0.09291639 0 0 0 38.251953 91.488281 L 38.158203 91.566406 L 38.060547 91.646484 A 0.09291639 0.09291639 0 0 0 38.025391 91.71875 L 38.025391 92.412109 L 38.025391 93.017578 L 37.326172 93.039062 L 36.537109 93.064453 A 0.09291639 0.09291639 0 0 0 36.498047 93.076172 L 36.271484 93.193359 C 35.941586 93.365946 35.674464 93.627565 35.501953 93.947266 L 35.363281 94.205078 A 0.09291639 0.09291639 0 0 0 35.351562 94.25 L 35.332031 98.367188 L 35.314453 102.48438 A 0.09291639 0.09291639 0 0 0 35.318359 102.50977 L 35.419922 102.86133 L 35.523438 103.21289 A 0.09291639 0.09291639 0 0 0 35.546875 103.25391 L 35.828125 103.53516 L 36.109375 103.81641 A 0.09291639 0.09291639 0 0 0 36.148438 103.83789 L 36.458984 103.93555 A 0.09291639 0.09291639 0 0 0 36.486328 103.94141 L 36.474609 103.94141 L 36.771484 104.0332 A 0.09291639 0.09291639 0 0 0 36.798828 104.03906 L 40.957031 104.02539 L 45.115234 104.01172 A 0.09291639 0.09291639 0 0 0 45.160156 104 L 45.417969 103.86133 C 45.771462 103.67059 46.024266 103.39699 46.193359 103.02344 L 46.324219 102.73242 A 0.09291639 0.09291639 0 0 0 46.333984 102.69336 L 46.335938 98.576172 L 46.335938 94.457031 A 0.09291639 0.09291639 0 0 0 46.332031 94.431641 L 46.253906 94.166016 L 46.175781 93.900391 A 0.09291639 0.09291639 0 0 0 46.152344 93.859375 L 45.828125 93.535156 L 45.503906 93.210938 A 0.09291639 0.09291639 0 0 0 45.462891 93.1875 L 45.197266 93.109375 L 44.931641 93.03125 A 0.09291639 0.09291639 0 0 0 44.90625 93.027344 L 44.220703 93.027344 L 43.628906 93.027344 L 43.628906 92.419922 L 43.628906 91.71875 A 0.09291639 0.09291639 0 0 0 43.595703 91.648438 L 43.5 91.568359 A 0.09291639 0.09291639 0 0 0 43.498047 91.566406 L 43.400391 91.486328 A 0.09291639 0.09291639 0 0 0 43.283203 91.486328 L 43.185547 91.566406 A 0.09291639 0.09291639 0 0 0 43.183594 91.568359 L 43.087891 91.648438 A 0.09291639 0.09291639 0 0 0 43.054688 91.71875 L 43.054688 92.419922 L 43.054688 93.027344 L 40.828125 93.027344 L 38.601562 93.027344 L 38.601562 92.419922 L 38.601562 91.71875 A 0.09291639 0.09291639 0 0 0 38.566406 91.646484 L 38.46875 91.566406 L 38.371094 91.486328 z M 36.728516 93.601562 L 37.416016 93.601562 L 38.025391 93.601562 L 38.025391 94.015625 L 38.025391 94.523438 A 0.09291639 0.09291639 0 0 0 38.060547 94.595703 L 38.158203 94.675781 L 38.251953 94.753906 A 0.09291639 0.09291639 0 0 0 38.371094 94.755859 L 38.46875 94.675781 A 0.09291639 0.09291639 0 0 0 38.470703 94.673828 L 38.566406 94.59375 A 0.09291639 0.09291639 0 0 0 38.599609 94.523438 L 38.599609 94.015625 L 38.599609 93.601562 L 40.828125 93.601562 L 43.054688 93.601562 L 43.054688 94.015625 L 43.054688 94.523438 A 0.09291639 0.09291639 0 0 0 43.087891 94.59375 L 43.183594 94.673828 A 0.09291639 0.09291639 0 0 0 43.185547 94.675781 L 43.283203 94.755859 A 0.09291639 0.09291639 0 0 0 43.402344 94.753906 L 43.496094 94.675781 L 43.59375 94.595703 A 0.09291639 0.09291639 0 0 0 43.628906 94.523438 L 43.628906 94.015625 L 43.628906 93.601562 L 44.255859 93.601562 L 44.955078 93.601562 L 45.214844 93.726562 L 45.46875 93.849609 L 45.615234 94.097656 L 45.761719 94.349609 L 45.761719 95.076172 L 45.761719 95.734375 L 40.828125 95.734375 L 35.892578 95.734375 L 35.892578 95.117188 L 35.892578 94.427734 L 36.003906 94.208984 C 36.143494 93.936585 36.344338 93.744732 36.5625 93.662109 L 36.5625 93.664062 L 36.728516 93.601562 z M 35.892578 96.308594 L 40.828125 96.308594 L 45.761719 96.308594 L 45.761719 99.441406 L 45.761719 102.64648 L 45.681641 102.83594 C 45.588011 103.05476 45.305665 103.32814 45.09375 103.4082 L 44.927734 103.4707 L 40.839844 103.46875 L 36.753906 103.4668 L 36.515625 103.35938 C 36.221285 103.22422 36.113033 103.11065 35.984375 102.80273 L 35.892578 102.58203 L 35.892578 99.408203 L 35.892578 96.308594 z "
       d="m 38.308594,91.263672 c -0.06898,0.0011 -0.139097,0.02513 -0.191406,0.07031 l -0.08984,0.07422 -0.09375,0.07813 c -0.06957,0.05521 -0.112787,0.14165 -0.113282,0.230469 a 0.20501747,0.20501747 0 0 0 0,0.002 v 0.693359 0.40625 l -0.5,0.01563 -0.789062,0.02539 a 0.20501747,0.20501747 0 0 0 -0.0078,0 c -0.04384,0.0031 -0.08671,0.01751 -0.125,0.03906 l -0.220704,0.113281 a 0.20501747,0.20501747 0 0 0 -0.002,0 c -0.365021,0.190961 -0.661202,0.481491 -0.853515,0.83789 l -0.138672,0.257813 c -0.02379,0.04342 -0.03698,0.09307 -0.03711,0.142578 l -0.01953,4.117188 -0.01758,4.117192 a 0.20501747,0.20501747 0 0 0 0,0.002 c 3.85e-4,0.0275 0.0038,0.0556 0.01172,0.082 l 0.101562,0.34961 a 0.20501747,0.20501747 0 0 0 0,0.002 l 0.103516,0.35156 v -0.006 c 0.01322,0.0493 0.03845,0.0964 0.07422,0.13282 a 0.20501747,0.20501747 0 0 0 0.002,0 l 0.28125,0.28125 0.28125,0.28125 a 0.20501747,0.20501747 0 0 0 0.0059,0.006 c 0.03537,0.0326 0.07851,0.056 0.125,0.0684 l 0.291016,0.0918 c 0.0081,0.003 0.01703,0.004 0.02539,0.006 a 0.20501747,0.20501747 0 0 0 0.002,0.004 l 0.285157,0.0879 c 0.02806,0.0106 0.05794,0.0177 0.08789,0.0195 a 0.20501747,0.20501747 0 0 0 0.01172,0 l 4.158203,-0.0137 4.158203,-0.0137 c 0.04951,-1.4e-4 0.09916,-0.0133 0.142578,-0.0371 l 0.257813,-0.13867 c 0.389645,-0.21025 0.679994,-0.52438 0.865234,-0.9336 l 0.126953,-0.2832 c 0.01939,-0.0388 0.0301,-0.0816 0.03125,-0.125 a 0.20501747,0.20501747 0 0 0 0,-0.006 l 0.002,-4.117188 v -4.119141 a 0.20501747,0.20501747 0 0 0 0,-0.002 c -3.86e-4,-0.02754 -0.0038,-0.05565 -0.01172,-0.08203 l -0.07813,-0.265625 -0.07813,-0.265625 v 0.0059 c -0.01323,-0.0493 -0.03846,-0.09638 -0.07422,-0.132812 a 0.20501747,0.20501747 0 0 0 -0.002,0 l -0.324219,-0.324219 -0.324218,-0.324219 a 0.20501747,0.20501747 0 0 0 0,-0.002 c -0.03643,-0.03576 -0.08351,-0.06099 -0.132813,-0.07422 h 0.0059 l -0.265625,-0.07813 -0.265625,-0.07813 c -0.02638,-0.0079 -0.05449,-0.01133 -0.08203,-0.01172 a 0.20501747,0.20501747 0 0 0 -0.002,0 H 44.220703 43.833984 V 92.419922 91.71875 a 0.20501747,0.20501747 0 0 0 0,-0.002 c -8.11e-4,-0.08574 -0.04173,-0.169511 -0.107422,-0.224609 l -0.08008,-0.06641 -0.01563,-0.01367 a 0.20501747,0.20501747 0 0 0 -0.002,-0.0039 l -0.09766,-0.08008 a 0.20501747,0.20501747 0 0 0 -0.002,0 c -0.105176,-0.08546 -0.269824,-0.08546 -0.375,0 a 0.20501747,0.20501747 0 0 0 -0.002,0 l -0.09766,0.08008 a 0.20501747,0.20501747 0 0 0 -0.01172,0.01172 c -0.0021,0.0021 -0.0038,0.0037 -0.0059,0.0059 l -0.08008,0.06641 c -0.06569,0.0551 -0.10661,0.138871 -0.107422,0.224609 a 0.20501747,0.20501747 0 0 0 0,0.002 v 0.701172 0.402344 H 40.828125 38.806641 V 92.419922 91.71875 a 0.20501747,0.20501747 0 0 0 0,-0.002 c -4.95e-4,-0.08882 -0.04371,-0.175256 -0.113282,-0.230469 l -0.09375,-0.07813 -0.09766,-0.08008 a 0.20501747,0.20501747 0 0 0 -0.002,-0.002 c -0.05376,-0.04345 -0.122425,-0.06363 -0.191406,-0.0625 z m -1.544922,2.542969 h 0.652344 0.404296 v 0.208984 0.507813 a 0.20501747,0.20501747 0 0 0 0,0.002 c 4.96e-4,0.08882 0.04371,0.175257 0.113282,0.230468 l 0.09375,0.07813 0.08984,0.07422 c 0.104618,0.09037 0.275288,0.09471 0.382812,0.0078 a 0.20501747,0.20501747 0 0 0 0.002,-0.002 l 0.09766,-0.08008 a 0.20501747,0.20501747 0 0 0 0.002,-0.0039 l 0.0098,-0.0078 c 0.0021,-0.0021 0.0038,-0.0037 0.0059,-0.0059 L 38.697266,94.75 c 0.06569,-0.0551 0.10661,-0.138871 0.107422,-0.224609 a 0.20501747,0.20501747 0 0 0 0,-0.002 v -0.507813 -0.208984 h 2.023437 2.021484 v 0.208984 0.507813 a 0.20501747,0.20501747 0 0 0 0,0.002 c 8.12e-4,0.08574 0.04173,0.16951 0.107422,0.224609 l 0.08398,0.07031 c 6.99e-4,6.93e-4 0.0012,0.0013 0.002,0.002 a 0.20501747,0.20501747 0 0 0 0.01172,0.01172 l 0.09766,0.08008 a 0.20501747,0.20501747 0 0 0 0.002,0.002 c 0.107524,0.08689 0.278194,0.08256 0.382812,-0.0078 l 0.08984,-0.07422 0.09375,-0.07813 c 0.06957,-0.05521 0.112786,-0.141651 0.113281,-0.230468 a 0.20501747,0.20501747 0 0 0 0,-0.002 v -0.507813 -0.208984 h 0.421875 0.652344 l 0.216797,0.105468 0.199219,0.0957 0.113281,0.19336 0.119141,0.203125 v 0.671875 0.453125 h -4.728516 -4.730469 v -0.412109 -0.640626 l 0.08984,-0.173828 h -0.002 c 0.120435,-0.235022 0.289085,-0.386526 0.447265,-0.447265 a 0.20501747,0.20501747 0 0 0 0.002,0 z m -0.666016,2.707031 h 4.730469 4.728516 v 2.927734 3.164064 l -0.06445,0.15039 h 0.002 c -0.02964,0.0693 -0.110995,0.18006 -0.205079,0.27148 -0.09408,0.0914 -0.205627,0.16605 -0.267578,0.18946 l -0.130859,0.0488 -4.050781,-0.002 -4.041016,-0.002 -0.197266,-0.0879 -0.002,-0.002 c -0.268952,-0.12369 -0.306486,-0.16176 -0.425781,-0.44727 l -0.07617,-0.18359 v -3.132817 z"
       transform="matrix(1.1215605,0,0,1.1215605,34.451999,-75.773631)" /></g></svg>
